<?xml version="1.0" encoding="iso-8859-1"?>
<!-- Generator: Adobe Illustrator 19.0.0, SVG Export Plug-In . SVG Version: 6.00 Build 0)  -->
<svg version="1.1" id="Layer_1" xmlns="http://www.w3.org/2000/svg" xmlns:xlink="http://www.w3.org/1999/xlink" x="0px" y="0px"
	 viewBox="0 0 512.001 512.001" style="enable-background:new 0 0 512.001 512.001;" xml:space="preserve">
<path style="fill:#B9BDE6;" d="M207.888,503.579h96.688c13.273,0,24.034-10.76,24.034-24.034V256
	c0-31.448-10.765-48.555-18.597-61.18c-8.167-13.166-26.042-41.739-26.042-69.948V23.095c0-8.104-6.57-14.674-14.674-14.674h-26.59
	c-8.104,0-14.674,6.57-14.674,14.674v101.778c0,28.207-17.876,56.781-26.042,69.948c-7.832,12.625-18.597,29.732-18.597,61.18
	v223.083C183.393,492.611,194.359,503.579,207.888,503.579z"/>
<path style="fill:#ABB0E0;" d="M310.014,194.819c-8.167-13.166-26.042-41.739-26.042-69.948V23.095
	c0-8.104-6.57-14.674-14.674-14.674h-24.702c8.104,0,14.674,6.57,14.674,14.674v101.778c0,28.207,17.876,56.781,26.042,69.948
	c7.832,12.625,18.597,29.732,18.597,61.181v223.545c0,13.274-10.76,24.034-24.034,24.034h24.702
	c13.273,0,24.034-10.76,24.034-24.034V256C328.61,224.552,317.844,207.445,310.014,194.819z"/>
<path style="fill:#F7CF6D;" d="M242.706,93.935h26.59c8.104,0,14.674,6.57,14.674,14.674V23.095c0-8.104-6.57-14.674-14.674-14.674
	h-26.59c-8.104,0-14.674,6.57-14.674,14.674v85.515C228.032,100.506,234.602,93.935,242.706,93.935z"/>
<polygon style="fill:#F9DE8F;" points="283.97,111.85 255.453,140.663 228.032,112.957 228.032,66.229 255.453,93.936 
	283.97,65.122 "/>
<rect x="183.389" y="282.869" style="fill:#F7CF6D;" width="145.213" height="132.648"/>
<rect x="303.911" y="282.869" style="fill:#F4C253;" width="24.702" height="132.648"/>
<circle style="fill:#F9DE8F;" cx="255.451" cy="347.767" r="31.731"/>
<path d="M317.349,190.671l-0.39-0.628c-7.975-12.854-24.568-39.601-24.568-65.17V23.095C292.392,10.361,282.031,0,269.296,0h-26.591
	C229.97,0,219.61,10.361,219.61,23.095v101.778c0,9.159-2.183,19.455-6.488,30.602c-1.675,4.339,0.484,9.214,4.822,10.889
	c4.334,1.673,9.213-0.484,10.889-4.822c3.865-10.009,6.261-19.573,7.18-28.547l13.453,13.593c1.582,1.598,3.737,2.497,5.986,2.497
	c2.249,0,4.404-0.899,5.986-2.497l14.447-14.596c2.487,27.782,18.657,53.866,26.762,66.932l0.39,0.629
	c7.641,12.316,17.151,27.642,17.151,56.449v18.453H191.814V256c0-12.317,1.732-23.19,5.296-33.242
	c1.554-4.383-0.74-9.197-5.123-10.751c-4.382-1.554-9.197,0.739-10.751,5.123c-4.215,11.889-6.264,24.604-6.264,38.87v223.084
	c0,18.15,14.766,32.916,32.916,32.916h96.688c17.895,0,32.454-14.559,32.454-32.454V256
	C337.031,222.392,325.186,203.303,317.349,190.671z M242.706,16.842h26.591c3.448,0,6.253,2.806,6.253,6.253v38.564l-20.096,20.306
	l-19.001-19.199V23.095C236.453,19.648,239.258,16.842,242.706,16.842z M255.454,128.692l-19.001-19.198V86.709l13.016,13.151
	c1.582,1.598,3.737,2.497,5.986,2.497s4.404-0.899,5.986-2.497l14.11-14.257v22.785L255.454,128.692z M320.189,291.295v115.81
	H191.814v-115.81H320.189z M304.577,495.158h-96.688c-8.863,0-16.074-7.211-16.074-16.074v-55.137H320.19v55.6
	C320.189,488.155,313.186,495.158,304.577,495.158z"/>
<path d="M255.45,387.924c22.142,0,40.155-18.013,40.155-40.155s-18.013-40.155-40.155-40.155s-40.155,18.013-40.155,40.155
	S233.309,387.924,255.45,387.924z M255.45,324.458c12.855,0,23.313,10.458,23.313,23.313c0,12.855-10.458,23.313-23.313,23.313
	s-23.313-10.458-23.313-23.313C232.137,334.915,242.596,324.458,255.45,324.458z"/>
<g>
</g>
<g>
</g>
<g>
</g>
<g>
</g>
<g>
</g>
<g>
</g>
<g>
</g>
<g>
</g>
<g>
</g>
<g>
</g>
<g>
</g>
<g>
</g>
<g>
</g>
<g>
</g>
<g>
</g>
</svg>
