<?xml version="1.0" encoding="utf-8"?>
<!-- Generator: Adobe Illustrator 24.0.2, SVG Export Plug-In . SVG Version: 6.00 Build 0)  -->
<svg version="1.1" id="Layer_1" xmlns="http://www.w3.org/2000/svg" xmlns:xlink="http://www.w3.org/1999/xlink" x="0px" y="0px"
	 viewBox="0 0 85.8 85.8" style="enable-background:new 0 0 85.8 85.8;" xml:space="preserve">
<style type="text/css">
	.st0{fill:#00CE79;}
	.st1{fill:#E0E0E0;}
	.st2{fill:#FFFFFF;}
</style>
<path class="st0" d="M31.1,68.8l-8.6,9.1c-0.6,0.6-0.9,1.3-0.9,2c0,0.9,0.3,1.7,1,2.1c0.7,0.5,1.4,0.7,2.3,0.7h37.3
	c0.8,0,1.5-0.3,2-0.8c0.6-0.5,0.8-1.2,0.8-2c0-0.8-0.3-1.4-0.8-1.9c-0.6-0.5-1.2-0.8-2-0.8H31.7l7.9-8.4H31.1z"/>
<path class="st1" d="M32.4,54.6c-0.1-0.7-0.3-1.2-0.7-1.7c-0.4-0.5-0.9-0.8-1.4-1.1c-0.6-0.3-1.1-0.4-1.7-0.4
	c-0.4,0-0.8,0.1-1.3,0.3c-0.4,0.2-0.8,0.4-1.2,0.8c-0.4,0.4-0.7,0.8-0.9,1.4c-0.1,0.3-0.2,0.6-0.2,0.9h7.4V54.6z"/>
<path class="st1" d="M85.1,68.8V46.2H63.7c-0.8,0.9-1.8,1.5-2.9,1.8c-0.4,0.1-0.9,0.2-1.3,0.2c0,0.3,0,0.7,0,1c0,0.8,0,1.6,0,2.4
	c0,0.1-0.1,0.3-0.2,0.4c-0.1,0.1-0.2,0.2-0.4,0.2h-1.7c-0.1,0-0.3-0.1-0.4-0.2c-0.1-0.1-0.2-0.2-0.2-0.4c0-0.8,0-1.6,0-2.4
	c0-0.8,0-1.6,0-2.4v-0.6H52H0.8v22.6h30.3h8.4H85.1z M72.1,51c0-0.2,0.1-0.4,0.2-0.5c0.1-0.1,0.3-0.2,0.5-0.2c0.2,0,0.4,0,0.5,0.2
	c0.1,0.2,0.2,0.3,0.2,0.5v6.5c0,1,0.3,1.8,0.7,2.3c0.5,0.5,1.2,0.8,2.2,0.8c0.6,0,1.2-0.1,1.7-0.4c0.5-0.3,1-0.7,1.3-1.2
	c0.3-0.5,0.5-1,0.5-1.6v-6.5c0-0.2,0.1-0.4,0.2-0.5c0.1-0.1,0.3-0.2,0.5-0.2c0.2,0,0.4,0.1,0.5,0.2c0.1,0.2,0.1,0.3-0.1,0.6v9.6
	c0,1.2-0.2,2.2-0.7,3s-1.1,1.4-1.9,1.8c-0.8,0.4-1.7,0.6-2.7,0.6c-0.6,0-1.2-0.1-1.7-0.2s-1-0.3-1.3-0.5c-0.2-0.1-0.3-0.2-0.4-0.4
	c-0.1-0.2-0.1-0.3,0-0.5c0-0.2,0.1-0.3,0.3-0.4c0.2-0.1,0.3-0.1,0.5,0c0.3,0.2,0.6,0.3,1.1,0.5s1,0.3,1.6,0.3c0.8,0,1.5-0.2,2.1-0.5
	s1.1-0.8,1.4-1.4c0.3-0.6,0.5-1.3,0.5-2.2v-0.8c-0.2,0.3-0.5,0.6-0.8,0.9c-0.4,0.3-0.9,0.6-1.4,0.8s-1,0.3-1.6,0.3
	c-0.9,0-1.6-0.1-2.2-0.5c-0.6-0.4-1-0.9-1.3-1.5c-0.3-0.6-0.4-1.4-0.4-2.2V51z M63.9,51.1c0-0.2,0-0.4,0.2-0.5
	c0.2-0.1,0.3-0.2,0.5-0.2c0.2,0,0.4,0,0.5,0.2c0.1,0.2,0.2,0.3,0.2,0.5v1.4c0.2-0.4,0.4-0.9,0.8-1.2c0.4-0.4,0.8-0.7,1.3-1
	s1.1-0.4,1.7-0.4c0.3,0,0.6,0.1,0.8,0.2c0.3,0.1,0.4,0.3,0.4,0.5s-0.1,0.4-0.2,0.5c-0.1,0.1-0.2,0.2-0.4,0.2c-0.1,0-0.2,0-0.4-0.1
	c-0.2-0.1-0.4-0.1-0.6-0.1c-0.4,0-0.8,0.2-1.2,0.4c-0.4,0.3-0.8,0.6-1.1,1c-0.3,0.4-0.6,0.9-0.8,1.4c-0.2,0.5-0.3,1-0.3,1.5v5.4
	c0,0.2-0.1,0.4-0.2,0.5c-0.2,0.1-0.3,0.2-0.5,0.2c-0.2,0-0.4,0-0.5-0.2c-0.1-0.2-0.2-0.3-0.2-0.5V51.1z M56.7,55.2
	c0.5-0.3,1.1-0.5,1.7-0.5c0.6,0,1.2,0.2,1.7,0.5c0.5,0.3,0.8,0.7,1.2,1.2c0.3,0.5,0.4,1.1,0.4,1.8c0,0.7-0.1,1.3-0.4,1.8
	s-0.7,0.9-1.2,1.2c-0.5,0.3-1.1,0.4-1.7,0.4c-0.6,0-1.2-0.1-1.7-0.4c-0.5-0.3-0.9-0.7-1.2-1.2s-0.4-1.1-0.4-1.8
	c0-0.7,0.1-1.3,0.4-1.8S56.2,55.5,56.7,55.2z M36.6,50.9c0-0.2,0.1-0.4,0.2-0.5c0.2-0.1,0.3-0.2,0.5-0.2s0.4,0,0.5,0.2
	c0.1,0.2,0.2,0.3,0.2,0.5v1.3c0.2-0.3,0.5-0.6,0.8-0.9c0.4-0.3,0.8-0.6,1.3-0.8s1.1-0.3,1.6-0.3c0.9,0,1.7,0.2,2.3,0.7
	c0.6,0.4,1,1,1.2,1.7c0.2-0.4,0.5-0.7,0.9-1.1c0.4-0.4,0.9-0.7,1.5-0.9c0.5-0.2,1.1-0.3,1.7-0.3c0.9,0,1.6,0.2,2.2,0.6
	c0.5,0.4,0.9,0.9,1.2,1.6c0.3,0.6,0.4,1.4,0.4,2.2v6.1c0,0.2,0,0.4-0.2,0.5c-0.2,0.1-0.3,0.2-0.5,0.2c-0.2,0-0.4-0.1-0.5-0.2
	c-0.1-0.2-0.2-0.3-0.2-0.5v-6.1c0-0.6-0.1-1.1-0.3-1.6c-0.2-0.5-0.5-0.9-0.9-1.2c-0.4-0.3-0.9-0.4-1.6-0.4c-0.6,0-1.2,0.1-1.7,0.4
	c-0.5,0.3-1,0.7-1.3,1.2c-0.3,0.5-0.5,1-0.5,1.6v6.1c0,0.2,0,0.4-0.2,0.5c-0.2,0.1-0.3,0.2-0.5,0.2s-0.4,0-0.5-0.2
	C44.1,61.1,44,61,44,60.8v-6.1c0-0.6-0.1-1.1-0.3-1.6c-0.1-0.4-0.4-0.8-0.8-1.1c-0.4-0.3-0.9-0.4-1.6-0.4c-0.6,0-1.2,0.1-1.7,0.4
	c-0.5,0.2-1,0.6-1.3,1.1s-0.5,1-0.5,1.6v6.1c0,0.2-0.1,0.4-0.2,0.5c-0.2,0.1-0.3,0.2-0.5,0.2c-0.2,0-0.2-0.2-0.3-0.4
	c-0.1-0.2-0.2-0.3-0.2-0.5V50.9z M24.2,52.7c0.5-0.9,1.1-1.5,1.9-2c0.8-0.5,1.6-0.7,2.5-0.7c0.7,0,1.3,0.1,1.9,0.3s1.1,0.6,1.6,1
	c0.4,0.4,0.8,1,1.1,1.6c0.3,0.6,0.5,1.4,0.5,2.2c0,0.1-0.1,0.3-0.2,0.4c-0.2,0.1-0.3,0.2-0.5,0.2h-8.2c0,0.8,0.2,1.6,0.5,2.3
	s0.8,1.3,1.5,1.7c0.7,0.4,1.5,0.6,2.4,0.6c0.4,0,0.9-0.1,1.3-0.2c0.4-0.2,0.8-0.4,1.1-0.6c0.3-0.2,0.6-0.4,0.8-0.7
	c0.2-0.1,0.3-0.2,0.5-0.2c0.2,0,0.3,0.1,0.4,0.2c0.1,0.1,0.2,0.3,0.2,0.4c0,0.2-0.1,0.4-0.2,0.5c-0.4,0.6-1,1-1.7,1.4
	c-0.7,0.4-1.5,0.6-2.3,0.6c-1.2,0-2.2-0.2-3-0.7s-1.5-1.1-2.1-2.2c-0.5-0.9-0.7-1.9-0.7-3C23.5,54.6,23.7,53.6,24.2,52.7z M4.7,50.9
	c0-0.2,0.1-0.4,0.2-0.5c0.2-0.1,0.3-0.2,0.5-0.2c0.2,0,0.4,0,0.5,0.2c0.1,0.2,0.2,0.3,0.2,0.5v1.3c0.2-0.3,0.5-0.6,0.8-0.9
	c0.4-0.3,0.8-0.6,1.3-0.8s1-0.3,1.6-0.3c0.9,0,1.7,0.2,2.3,0.7c0.6,0.4,1,1,1.2,1.7c0.2-0.4,0.5-0.7,0.9-1.1
	c0.4-0.4,0.9-0.7,1.5-0.9c0.5-0.2,1.1-0.3,1.7-0.3c0.9,0,1.6,0.2,2.2,0.6c0.5,0.4,0.9,0.9,1.2,1.6c0.3,0.6,0.4,1.4,0.4,2.2v6.1
	c0,0.2-0.1,0.4-0.2,0.5c-0.2,0.1-0.3,0.2-0.5,0.2s-0.4-0.1-0.5-0.2c-0.1-0.2-0.2-0.3-0.2-0.5v-6.1c0-0.6-0.1-1.1-0.3-1.6
	s-0.5-0.9-0.9-1.2c-0.4-0.3-0.9-0.4-1.6-0.4c-0.6,0-1.2,0.1-1.7,0.4c-0.5,0.3-1,0.7-1.3,1.2s-0.5,1-0.5,1.6v6.1c0,0.2,0,0.4-0.2,0.5
	c-0.2,0.1-0.3,0.2-0.5,0.2s-0.4-0.1-0.5-0.2c-0.1-0.2-0.2-0.3-0.2-0.5v-6.1c0-0.6-0.1-1.1-0.3-1.6c-0.1-0.4-0.4-0.8-0.8-1.1
	s-0.9-0.4-1.6-0.4c-0.6,0-1.2,0.1-1.7,0.4c-0.5,0.2-1,0.6-1.3,1.1c-0.3,0.5-0.5,1-0.5,1.6v6.1c0,0.2,0,0.4-0.2,0.5
	c-0.2,0.1-0.3,0.2-0.5,0.2S5,61.3,4.9,61.1c-0.1-0.2-0.2-0.3-0.2-0.5V50.9z M4.3,64.9v-1h66.5v1H4.3z"/>
<path d="M5.2,61.5c0.2,0,0.3-0.1,0.5-0.2c0.2-0.1,0.2-0.3,0.2-0.5v-6.1c0-0.6,0.2-1.1,0.5-1.6c0.3-0.5,0.8-0.9,1.3-1.1
	c0.5-0.3,1.1-0.4,1.7-0.4c0.7,0,1.2,0.1,1.6,0.4s0.7,0.7,0.8,1.1c0.2,0.5,0.3,1,0.3,1.6v6.1c0,0.2,0.1,0.3,0.2,0.5
	c0.1,0.1,0.3,0.2,0.5,0.2s0.3-0.1,0.5-0.2c0.2-0.1,0.2-0.3,0.2-0.5v-6.1c0-0.6,0.2-1.1,0.5-1.6s0.8-0.9,1.3-1.2
	c0.5-0.3,1.1-0.4,1.7-0.4c0.7,0,1.2,0.1,1.6,0.4c0.4,0.3,0.7,0.7,0.9,1.2s0.3,1,0.3,1.6v6.1c0,0.2,0.1,0.3,0.2,0.5
	c0.1,0.1,0.3,0.2,0.5,0.2s0.3-0.1,0.5-0.2c0.1-0.1,0.2-0.3,0.2-0.5v-6.1c0-0.8-0.1-1.6-0.4-2.2c-0.3-0.7-0.7-1.2-1.2-1.6
	c-0.6-0.4-1.3-0.6-2.2-0.6c-0.6,0-1.2,0.1-1.7,0.3c-0.6,0.2-1.1,0.5-1.5,0.9c-0.4,0.4-0.7,0.7-0.9,1.1c-0.2-0.7-0.6-1.3-1.2-1.7
	c-0.6-0.5-1.4-0.7-2.3-0.7c-0.6,0-1.1,0.1-1.6,0.3S7.3,51,6.9,51.3c-0.3,0.3-0.6,0.6-0.8,0.9v-1.3c0-0.2-0.1-0.3-0.2-0.5
	c-0.1-0.2-0.3-0.2-0.5-0.2c-0.2,0-0.3,0.1-0.5,0.2c-0.1,0.1-0.2,0.3-0.2,0.5v9.7c0,0.2,0.1,0.3,0.2,0.5C5,61.3,5,61.5,5.2,61.5z"/>
<path d="M26.3,61c0.8,0.5,1.8,0.7,3,0.7c0.8,0,1.6-0.2,2.3-0.6c0.7-0.4,1.3-0.8,1.7-1.4c0.1-0.1,0.2-0.3,0.2-0.5
	c0-0.1-0.1-0.3-0.2-0.4c-0.1-0.1-0.2-0.2-0.4-0.2c-0.2,0-0.3,0.1-0.5,0.2c-0.2,0.3-0.5,0.5-0.8,0.7c-0.3,0.2-0.7,0.4-1.1,0.6
	c-0.4,0.1-0.9,0.2-1.3,0.2c-0.9,0-1.7-0.2-2.4-0.6c-0.7-0.4-1.2-1-1.5-1.7s-0.5-1.5-0.5-2.3H33c0.2,0,0.3-0.1,0.5-0.2
	c0.1-0.1,0.2-0.3,0.2-0.4c0-0.8-0.2-1.6-0.5-2.2c-0.3-0.6-0.7-1.2-1.1-1.6c-0.5-0.4-1-0.8-1.6-1S29.3,50,28.6,50
	c-0.9,0-1.7,0.2-2.5,0.7c-0.8,0.5-1.4,1.1-1.9,2c-0.5,0.9-0.7,1.9-0.7,3.1c0,1.1,0.2,2.1,0.7,3C24.8,59.9,25.5,60.5,26.3,61z
	 M25.2,53.9c0.2-0.6,0.5-1,0.9-1.4c0.4-0.4,0.8-0.6,1.2-0.8c0.5-0.2,0.9-0.3,1.3-0.3c0.6,0,1.1,0.1,1.7,0.4c0.5,0.3,1,0.6,1.4,1.1
	c0.4,0.5,0.6,1,0.7,1.7v0.2H25C25,54.5,25.1,54.2,25.2,53.9z"/>
<path d="M37.1,61.5c0.2,0,0.3-0.1,0.5-0.2c0.1-0.1,0.2-0.3,0.2-0.5v-6.1c0-0.6,0.2-1.1,0.5-1.6s0.8-0.9,1.3-1.1
	c0.5-0.3,1.1-0.4,1.7-0.4c0.7,0,1.2,0.1,1.6,0.4c0.4,0.3,0.7,0.7,0.8,1.1c0.2,0.5,0.3,1,0.3,1.6v6.1c0,0.2,0.1,0.3,0.2,0.5
	c0.1,0.2,0.3,0.2,0.5,0.2s0.3-0.1,0.5-0.2c0.2-0.1,0.2-0.3,0.2-0.5v-6.1c0-0.6,0.2-1.1,0.5-1.6c0.3-0.5,0.8-0.9,1.3-1.2
	c0.5-0.3,1.1-0.4,1.7-0.4c0.7,0,1.2,0.1,1.6,0.4c0.4,0.3,0.7,0.7,0.9,1.2c0.2,0.5,0.3,1,0.3,1.6v6.1c0,0.2,0.1,0.3,0.2,0.5
	c0.1,0.1,0.3,0.2,0.5,0.2c0.2,0,0.3-0.1,0.5-0.2c0.2-0.1,0.2-0.3,0.2-0.5v-6.1c0-0.8-0.1-1.6-0.4-2.2c-0.3-0.7-0.7-1.2-1.2-1.6
	c-0.6-0.4-1.3-0.6-2.2-0.6c-0.6,0-1.2,0.1-1.7,0.3c-0.6,0.2-1.1,0.5-1.5,0.9c-0.4,0.4-0.7,0.7-0.9,1.1c-0.2-0.7-0.6-1.3-1.2-1.7
	c-0.6-0.5-1.4-0.7-2.3-0.7c-0.5,0-1.1,0.1-1.6,0.3s-0.9,0.5-1.3,0.8c-0.3,0.3-0.6,0.6-0.8,0.9v-1.3c0-0.2-0.1-0.3-0.2-0.5
	c-0.1-0.2-0.3-0.2-0.5-0.2s-0.3,0.1-0.5,0.2c-0.1,0.1-0.2,0.3-0.2,0.5v9.7c0,0.2,0.1,0.3,0.2,0.5C36.9,61.3,36.9,61.5,37.1,61.5z"/>
<path class="st2" d="M56.2,59.6c0.2,0.4,0.5,0.8,0.9,1c0.4,0.3,0.8,0.4,1.3,0.4s0.9-0.2,1.3-0.4c0.4-0.3,0.7-0.6,0.9-1
	c0.2-0.4,0.3-0.9,0.3-1.4c0-0.5-0.1-1-0.3-1.4c-0.2-0.4-0.5-0.7-0.9-1c-0.4-0.3-0.8-0.4-1.3-0.4s-0.9,0.2-1.3,0.4
	c-0.4,0.3-0.7,0.6-0.9,1c-0.2,0.4-0.3,0.9-0.3,1.4S56,59.2,56.2,59.6z"/>
<path class="st0" d="M55.5,56.4c-0.3,0.5-0.4,1.1-0.4,1.8c0,0.7,0.1,1.3,0.4,1.8s0.7,0.9,1.2,1.2c0.5,0.3,1.1,0.4,1.7,0.4
	c0.6,0,1.2-0.1,1.7-0.4c0.5-0.3,0.9-0.7,1.2-1.2s0.4-1.1,0.4-1.8c0-0.7-0.1-1.3-0.4-1.8c-0.4-0.5-0.7-0.9-1.2-1.2
	c-0.5-0.3-1.1-0.5-1.7-0.5c-0.6,0-1.2,0.2-1.7,0.5C56.2,55.5,55.8,55.9,55.5,56.4z M57.1,55.8c0.4-0.2,0.8-0.4,1.3-0.4
	s0.9,0.1,1.3,0.4c0.4,0.3,0.7,0.6,0.9,1c0.2,0.4,0.3,0.9,0.3,1.4c0,0.5-0.1,1-0.3,1.4c-0.2,0.4-0.5,0.7-0.9,1
	c-0.4,0.2-0.8,0.4-1.3,0.4s-0.9-0.1-1.3-0.4c-0.4-0.2-0.7-0.6-0.9-1s-0.3-0.9-0.3-1.4s0.1-1,0.3-1.4C56.4,56.4,56.7,56.1,57.1,55.8z
	"/>
<path d="M64.6,61.5c0.2,0,0.3-0.1,0.5-0.2c0.1-0.1,0.2-0.3,0.2-0.5v-5.4c0-0.5,0.1-1,0.3-1.5c0.2-0.5,0.5-1,0.8-1.4
	c0.3-0.4,0.7-0.7,1.1-1c0.4-0.2,0.8-0.4,1.2-0.4c0.2,0,0.4,0,0.6,0.1c0.2,0.1,0.3,0.1,0.4,0.1c0.2,0,0.3-0.1,0.4-0.2
	c0.1-0.1,0.2-0.3,0.2-0.5s-0.1-0.4-0.4-0.5c-0.2-0.1-0.5-0.2-0.8-0.2c-0.6,0-1.2,0.1-1.7,0.4s-0.9,0.6-1.3,1
	c-0.4,0.4-0.6,0.8-0.8,1.2v-1.4c0-0.2-0.1-0.3-0.2-0.5c-0.1-0.2-0.3-0.2-0.5-0.2c-0.2,0-0.3,0.1-0.5,0.2c-0.2,0.1-0.2,0.3-0.2,0.5
	v9.7c0,0.2,0.1,0.3,0.2,0.5C64.2,61.5,64.4,61.5,64.6,61.5z"/>
<path d="M73.8,61.4c0.6,0.4,1.3,0.5,2.2,0.5c0.6,0,1.1-0.1,1.6-0.3s1-0.5,1.4-0.8c0.3-0.3,0.6-0.6,0.8-0.9v0.8
	c0,0.9-0.2,1.6-0.5,2.2c-0.3,0.6-0.8,1.1-1.4,1.4s-1.3,0.5-2.1,0.5c-0.6,0-1.1-0.1-1.6-0.3s-0.8-0.3-1.1-0.5c-0.2-0.1-0.3-0.1-0.5,0
	c-0.2,0.1-0.3,0.2-0.3,0.4c-0.1,0.2-0.1,0.3,0,0.5c0.1,0.2,0.2,0.3,0.4,0.4c0.3,0.2,0.8,0.4,1.3,0.5s1.1,0.2,1.7,0.2
	c1,0,1.9-0.2,2.7-0.6c0.8-0.4,1.4-1,1.9-1.8s0.7-1.8,0.7-3V51c0.2-0.3,0.2-0.4,0.1-0.6c-0.1-0.1-0.3-0.2-0.5-0.2
	c-0.2,0-0.4,0.1-0.5,0.2c-0.1,0.1-0.2,0.3-0.2,0.5v6.5c0,0.6-0.2,1.1-0.5,1.6c-0.3,0.5-0.8,0.9-1.3,1.2c-0.5,0.3-1.1,0.4-1.7,0.4
	c-1,0-1.7-0.3-2.2-0.8c-0.4-0.5-0.7-1.3-0.7-2.3V51c0-0.2-0.1-0.3-0.2-0.5c-0.1-0.2-0.3-0.2-0.5-0.2c-0.2,0-0.4,0.1-0.5,0.2
	c-0.1,0.1-0.2,0.3-0.2,0.5v6.7c0,0.8,0.1,1.6,0.4,2.2C72.8,60.5,73.2,61,73.8,61.4z"/>
<path class="st0" d="M56.6,46.8c0,0.8,0,1.6,0,2.4c0,0.8,0,1.6,0,2.4c0,0.2,0.1,0.3,0.2,0.4c0.1,0.1,0.3,0.2,0.4,0.2h1.7
	c0.2,0,0.3-0.1,0.4-0.2c0.1-0.1,0.2-0.3,0.2-0.4c0-0.8,0-1.6,0-2.4c0-0.3,0-0.7,0-1c0.4,0,0.9-0.1,1.3-0.2c1.1-0.3,2.1-0.9,2.9-1.8
	c0.3-0.3,0.5-0.6,0.7-0.9c0.8-1.1,1.3-2.5,1.5-4c0.2-1.3,0.1-2.5-0.2-3.5c-0.5-1.6-1.6-3-3-4c-0.1-3.5-0.9-6.6-2.5-9.4
	c-1.7-2.8-4.1-5.1-7.3-6.7c-3.2-1.6-7-2.4-11.6-2.4c-4,0-7.7,0.9-11.2,2.8c-3.5,1.8-6.2,4.5-8,8.1c-0.3,0.6-0.6,1.1-0.9,1.5
	c-0.3,0.4-0.4,0.9-0.4,1.3c0,0.6,0.3,1.2,1,1.7c0.7,0.5,1.4,0.8,2.1,0.8c0.5,0,1-0.2,1.5-0.5c0.5-0.3,0.8-0.7,1.1-1.2
	c1.3-3.2,3.3-5.4,5.9-6.8c2.6-1.4,5.5-2.1,8.5-2.1c3.3,0,6,0.6,8.3,1.7c2.3,1.1,4,2.7,5.3,4.7c0.9,1.6,1.5,3.3,1.7,5.3
	c-2,0.5-3.9,1.7-5.2,3.4c-0.1,0.1-0.1,0.3-0.1,0.5c0,0.2,0.1,0.3,0.2,0.4l1.5,1c0.3,0.2,0.7,0.1,0.9-0.1c0.7-1,1.7-1.7,2.7-2.1
	c-0.2,2.6-1.1,5.3-2.7,8c-0.5,0.8-1.1,1.7-1.7,2.6h4.6V46.8z M62.5,37.5c0.2,0.3,0.4,0.7,0.5,1.1c0.2,0.7,0.2,1.5,0.1,2.3
	c-0.1,1-0.5,2-1,2.7c-0.5,0.8-1.3,1.3-2.1,1.6c-0.1,0-0.2,0.1-0.4,0.1c0.8-1.4,1.4-2.8,1.9-4.1C62,40,62.3,38.7,62.5,37.5z M53,37.4
	l-1.3-1c1.8-2.2,4.6-3.6,7.3-3.4c2.9,0.2,5.4,2.3,6.2,4.9c0.3,1,0.4,2.1,0.2,3.3c-0.2,1.4-0.7,2.7-1.4,3.7c-0.8,1.2-2,2.1-3.3,2.4
	c-0.6,0.2-1.2,0.2-1.8,0.3c0,0.5,0,1.1,0,1.6c0,0.8,0,1.6,0,2.4h-1.7c0-0.8,0-1.6,0-2.4c0-0.8,0-1.6,0-2.4V46H58
	c0.9,0,1.6-0.1,2.2-0.2c0.9-0.3,1.8-0.9,2.4-1.8c0.6-0.8,0.9-1.9,1.1-3c0.1-0.9,0.1-1.8-0.2-2.6c-0.6-2-2.6-3.5-4.8-3.7
	C56.6,34.5,54.4,35.6,53,37.4z"/>
<rect x="4.3" y="63.9" class="st0" width="66.5" height="1"/>
<path class="st2" d="M58.7,34.7c2.2,0.2,4.2,1.7,4.8,3.7c0.3,0.8,0.3,1.7,0.2,2.6c-0.2,1.1-0.5,2.2-1.1,3c-0.6,0.9-1.5,1.5-2.4,1.8
	C59.6,45.9,58.9,46,58,46h-0.8v0.8c0,0.8,0,1.6,0,2.4c0,0.8,0,1.6,0,2.4h1.7c0-0.8,0-1.6,0-2.4c0-0.5,0-1.1,0-1.6
	c0.6-0.1,1.2-0.1,1.8-0.3c1.3-0.3,2.5-1.2,3.3-2.4c0.7-1,1.2-2.3,1.4-3.7c0.2-1.2,0.1-2.3-0.2-3.3c-0.8-2.6-3.3-4.7-6.2-4.9
	c-2.7-0.2-5.5,1.2-7.3,3.4l1.3,1C54.4,35.6,56.6,34.5,58.7,34.7z"/>
</svg>
