<?xml version="1.0" encoding="utf-8"?>
<!-- Generator: Adobe Illustrator 24.0.2, SVG Export Plug-In . SVG Version: 6.00 Build 0)  -->
<svg version="1.1" id="Layer_1" xmlns="http://www.w3.org/2000/svg" xmlns:xlink="http://www.w3.org/1999/xlink" x="0px" y="0px"
	 viewBox="0 0 85.8 85.8" style="enable-background:new 0 0 85.8 85.8;" xml:space="preserve">
<style type="text/css">
	.st0{fill:#E0E0E0;}
	.st1{fill:#00CE79;}
</style>
<g>
	<rect x="0.8" y="46.2" class="st0" width="84.3" height="22.6"/>
	<g>
		<path d="M5.2,61.5c0.2,0,0.3-0.1,0.5-0.2s0.2-0.3,0.2-0.5v-6.1c0-0.6,0.2-1.1,0.5-1.6c0.3-0.5,0.8-0.9,1.3-1.1
			c0.5-0.3,1.1-0.4,1.7-0.4c0.7,0,1.2,0.1,1.6,0.4c0.4,0.3,0.7,0.7,0.8,1.1c0.2,0.5,0.3,1,0.3,1.6v6.1c0,0.2,0.1,0.3,0.2,0.5
			c0.1,0.1,0.3,0.2,0.5,0.2c0.2,0,0.3-0.1,0.5-0.2s0.2-0.3,0.2-0.5v-6.1c0-0.6,0.2-1.1,0.5-1.6s0.8-0.9,1.3-1.2
			c0.5-0.3,1.1-0.4,1.7-0.4c0.7,0,1.2,0.1,1.6,0.4c0.4,0.3,0.7,0.7,0.9,1.2c0.2,0.5,0.3,1,0.3,1.6v6.1c0,0.2,0.1,0.3,0.2,0.5
			c0.1,0.1,0.3,0.2,0.5,0.2c0.2,0,0.3-0.1,0.5-0.2c0.1-0.1,0.2-0.3,0.2-0.5v-6.1c0-0.8-0.1-1.6-0.4-2.2c-0.3-0.7-0.7-1.2-1.2-1.6
			c-0.6-0.4-1.3-0.6-2.2-0.6c-0.6,0-1.2,0.1-1.7,0.3c-0.6,0.2-1.1,0.5-1.5,0.9c-0.4,0.4-0.7,0.7-0.9,1.1c-0.2-0.7-0.6-1.3-1.2-1.7
			c-0.6-0.5-1.4-0.7-2.3-0.7c-0.6,0-1.1,0.1-1.6,0.3c-0.5,0.2-0.9,0.5-1.3,0.8c-0.3,0.3-0.6,0.6-0.8,0.9v-1.3c0-0.2-0.1-0.3-0.2-0.5
			s-0.3-0.2-0.5-0.2c-0.2,0-0.3,0.1-0.5,0.2c-0.1,0.1-0.2,0.3-0.2,0.5v9.7c0,0.2,0.1,0.3,0.2,0.5S5,61.5,5.2,61.5z"/>
		<path d="M26.3,61c0.8,0.5,1.8,0.7,3,0.7c0.8,0,1.6-0.2,2.3-0.6c0.7-0.4,1.3-0.8,1.7-1.4c0.1-0.1,0.2-0.3,0.2-0.5
			c0-0.1-0.1-0.3-0.2-0.4c-0.1-0.1-0.2-0.2-0.4-0.2s-0.3,0.1-0.5,0.2c-0.2,0.3-0.5,0.5-0.8,0.7c-0.3,0.2-0.7,0.4-1.1,0.6
			c-0.4,0.1-0.9,0.2-1.3,0.2c-0.9,0-1.7-0.2-2.4-0.6s-1.2-1-1.5-1.7c-0.3-0.7-0.5-1.5-0.5-2.3h8.2c0.2,0,0.3-0.1,0.5-0.2
			c0.1-0.1,0.2-0.3,0.2-0.4c0-0.8-0.2-1.6-0.5-2.2c-0.3-0.6-0.7-1.2-1.1-1.6c-0.5-0.4-1-0.8-1.6-1s-1.2-0.3-1.9-0.3
			c-0.9,0-1.7,0.2-2.5,0.7c-0.8,0.5-1.4,1.1-1.9,2c-0.5,0.9-0.7,1.9-0.7,3.1c0,1.1,0.2,2.1,0.7,3C24.8,59.9,25.5,60.5,26.3,61z
			 M25.2,53.9c0.2-0.6,0.5-1,0.9-1.4s0.8-0.6,1.2-0.8c0.5-0.2,0.9-0.3,1.3-0.3c0.6,0,1.1,0.1,1.7,0.4c0.5,0.3,1,0.6,1.4,1.1
			c0.4,0.5,0.6,1,0.7,1.7v0.2H25C25,54.5,25.1,54.2,25.2,53.9z"/>
		<path d="M37.1,61.5c0.2,0,0.3-0.1,0.5-0.2c0.1-0.1,0.2-0.3,0.2-0.5v-6.1c0-0.6,0.2-1.1,0.5-1.6c0.3-0.5,0.8-0.9,1.3-1.1
			c0.5-0.3,1.1-0.4,1.7-0.4c0.7,0,1.2,0.1,1.6,0.4c0.4,0.3,0.7,0.7,0.8,1.1c0.2,0.5,0.3,1,0.3,1.6v6.1c0,0.2,0.1,0.3,0.2,0.5
			s0.3,0.2,0.5,0.2s0.3-0.1,0.5-0.2s0.2-0.3,0.2-0.5v-6.1c0-0.6,0.2-1.1,0.5-1.6c0.3-0.5,0.8-0.9,1.3-1.2c0.5-0.3,1.1-0.4,1.7-0.4
			c0.7,0,1.2,0.1,1.6,0.4c0.4,0.3,0.7,0.7,0.9,1.2c0.2,0.5,0.3,1,0.3,1.6v6.1c0,0.2,0.1,0.3,0.2,0.5c0.1,0.1,0.3,0.2,0.5,0.2
			c0.2,0,0.3-0.1,0.5-0.2s0.2-0.3,0.2-0.5v-6.1c0-0.8-0.1-1.6-0.4-2.2c-0.3-0.7-0.7-1.2-1.2-1.6c-0.6-0.4-1.3-0.6-2.2-0.6
			c-0.6,0-1.2,0.1-1.7,0.3c-0.6,0.2-1.1,0.5-1.5,0.9c-0.4,0.4-0.7,0.7-0.9,1.1c-0.2-0.7-0.6-1.3-1.2-1.7c-0.6-0.5-1.4-0.7-2.3-0.7
			c-0.5,0-1.1,0.1-1.6,0.3c-0.5,0.2-0.9,0.5-1.3,0.8c-0.3,0.3-0.6,0.6-0.8,0.9v-1.3c0-0.2-0.1-0.3-0.2-0.5s-0.3-0.2-0.5-0.2
			c-0.2,0-0.3,0.1-0.5,0.2c-0.1,0.1-0.2,0.3-0.2,0.5v9.7c0,0.2,0.1,0.3,0.2,0.5S36.9,61.5,37.1,61.5z"/>
		<path class="st1" d="M60.1,55.2c-0.5-0.3-1.1-0.5-1.7-0.5c-0.6,0-1.2,0.2-1.7,0.5c-0.5,0.3-0.9,0.7-1.2,1.2
			c-0.3,0.5-0.4,1.1-0.4,1.8c0,0.7,0.1,1.3,0.4,1.8c0.3,0.5,0.7,0.9,1.2,1.2c0.5,0.3,1.1,0.4,1.7,0.4c0.6,0,1.2-0.1,1.7-0.4
			c0.5-0.3,0.9-0.7,1.2-1.2c0.3-0.5,0.4-1.1,0.4-1.8c0-0.7-0.1-1.3-0.4-1.8C60.9,55.9,60.6,55.5,60.1,55.2z M60.6,59.6
			c-0.2,0.4-0.5,0.7-0.9,1c-0.4,0.2-0.8,0.4-1.3,0.4s-0.9-0.1-1.3-0.4c-0.4-0.2-0.7-0.6-0.9-1s-0.3-0.9-0.3-1.4c0-0.5,0.1-1,0.3-1.4
			s0.5-0.7,0.9-1c0.4-0.2,0.8-0.4,1.3-0.4s0.9,0.1,1.3,0.4s0.7,0.6,0.9,1s0.3,0.9,0.3,1.4C60.9,58.7,60.8,59.2,60.6,59.6z"/>
		<path d="M65.3,53.1v-2c0-0.2-0.1-0.3-0.2-0.5s-0.3-0.2-0.5-0.2s-0.3,0.1-0.5,0.2s-0.2,0.3-0.2,0.5v9.7c0,0.2,0.1,0.3,0.2,0.5
			s0.3,0.2,0.5,0.2c0.2,0,0.3-0.1,0.5-0.2c0.1-0.1,0.2-0.3,0.2-0.5v-5.4c0-0.5,0.1-1,0.3-1.5c0.2-0.5,0.5-1,0.8-1.4
			c0.3-0.4,0.7-0.7,1.1-1c0.4-0.2,0.8-0.4,1.2-0.4c0.2,0,0.4,0,0.6,0.1c0.2,0.1,0.3,0.1,0.4,0.1c0.2,0,0.3-0.1,0.4-0.2
			c0.1-0.1,0.2-0.3,0.2-0.5c0-0.2-0.1-0.4-0.4-0.5c-0.2-0.1-0.5-0.2-0.8-0.2c-0.6,0-1.2,0.1-1.7,0.4c-0.5,0.3-0.9,0.6-1.3,1
			c-0.4,0.4-0.6,0.9-0.9,1.4C65.3,53,65.3,53.1,65.3,53.1z"/>
		<path d="M81.1,50.4c-0.1-0.1-0.3-0.2-0.5-0.2c-0.2,0-0.4,0.1-0.5,0.2c-0.1,0.1-0.2,0.3-0.2,0.5v6.5c0,0.6-0.2,1.1-0.5,1.6
			s-0.8,0.9-1.3,1.2c-0.5,0.3-1.1,0.4-1.7,0.4c-1,0-1.7-0.3-2.2-0.8c-0.4-0.5-0.7-1.3-0.7-2.3v-6.5c0-0.2-0.1-0.3-0.2-0.5
			s-0.3-0.2-0.5-0.2c-0.2,0-0.4,0.1-0.5,0.2s-0.2,0.3-0.2,0.5v6.7c0,0.8,0.1,1.6,0.4,2.2c0.3,0.6,0.7,1.1,1.3,1.5
			c0.6,0.4,1.3,0.5,2.2,0.5c0.6,0,1.1-0.1,1.6-0.3c0.5-0.2,1-0.5,1.4-0.8c0.3-0.3,0.6-0.6,0.8-0.9v0.8c0,0.9-0.2,1.6-0.5,2.2
			c-0.3,0.6-0.8,1.1-1.4,1.4c-0.6,0.3-1.3,0.5-2.1,0.5c-0.6,0-1.1-0.1-1.6-0.3c-0.5-0.2-0.8-0.3-1.1-0.5c-0.2-0.1-0.3-0.1-0.5,0
			c-0.2,0.1-0.3,0.2-0.3,0.4c-0.1,0.2-0.1,0.3,0,0.5s0.2,0.3,0.4,0.4c0.3,0.2,0.8,0.4,1.3,0.5c0.5,0.1,1.1,0.2,1.7,0.2
			c1,0,1.9-0.2,2.7-0.6c0.8-0.4,1.4-1,1.9-1.8c0.5-0.8,0.7-1.8,0.7-3v-9.6C81.2,50.7,81.2,50.6,81.1,50.4z"/>
		<path class="st1" d="M52.8,37.9c0.3,0.2,0.7,0.1,0.9-0.1c1.2-1.7,3.2-2.6,5.1-2.5c1.9,0.2,3.7,1.5,4.2,3.3
			c0.2,0.7,0.2,1.5,0.1,2.3c-0.1,1-0.5,2-1,2.7c-0.5,0.8-1.3,1.3-2.1,1.6c-0.5,0.2-1.2,0.2-2,0.2l-0.8,0c-0.3,0-0.6,0.3-0.6,0.6
			l0,0.8c0,0.8,0,1.6,0,2.4c0,0.8,0,1.6,0,2.4c0,0.2,0.1,0.3,0.2,0.4c0.1,0.1,0.3,0.2,0.4,0.2l1.7,0c0,0,0,0,0,0
			c0.2,0,0.3-0.1,0.4-0.2c0.1-0.1,0.2-0.3,0.2-0.4c0-0.8,0-1.6,0-2.4c0-0.3,0-0.7,0-1c0.4,0,0.9-0.1,1.3-0.2
			c1.4-0.4,2.7-1.4,3.6-2.7c0.8-1.1,1.3-2.5,1.5-4c0.2-1.3,0.1-2.5-0.2-3.5c-0.9-2.9-3.6-5.1-6.8-5.4c-2.9-0.2-5.9,1.2-7.7,3.6
			c-0.1,0.1-0.1,0.3-0.1,0.5c0,0.2,0.1,0.3,0.2,0.4L52.8,37.9z M59,33c2.9,0.2,5.4,2.3,6.2,4.9c0.3,1,0.4,2.1,0.2,3.3
			c-0.2,1.4-0.7,2.7-1.4,3.7c-0.8,1.2-2,2.1-3.3,2.4c-0.6,0.2-1.2,0.2-1.8,0.3c0,0.5,0,1.1,0,1.6c0,0.8,0,1.6,0,2.4l-1.7,0
			c0-0.8,0-1.6,0-2.4c0-0.8,0-1.6,0-2.4l0-0.8l0.8,0c0.9,0,1.6-0.1,2.2-0.2c0.9-0.3,1.8-0.9,2.4-1.8c0.6-0.8,0.9-1.9,1.1-3
			c0.1-0.9,0.1-1.8-0.2-2.6c-0.6-2-2.6-3.5-4.8-3.7c-2.1-0.2-4.3,0.9-5.7,2.7l-1.3-1C53.5,34.2,56.3,32.8,59,33z"/>
		<rect x="4.3" y="63.9" class="st1" width="66.5" height="1"/>
	</g>
</g>
</svg>
