<?xml version="1.0" encoding="utf-8"?>
<!-- Generator: Adobe Illustrator 24.0.2, SVG Export Plug-In . SVG Version: 6.00 Build 0)  -->
<svg version="1.1" id="Layer_1" xmlns="http://www.w3.org/2000/svg" xmlns:xlink="http://www.w3.org/1999/xlink" x="0px" y="0px"
	 viewBox="0 0 193.1 193.1" style="enable-background:new 0 0 193.1 193.1;" xml:space="preserve">
<style type="text/css">
	.st0{fill:#38382F;}
	.st1{fill:#EFDC2B;}
</style>
<g>
	<path class="st0" d="M94.8,51.4c1.4-0.3,3.3-0.7,5.7-1.1l-1.3-6L94.8,51.4z"/>
	<path class="st0" d="M73.1,42.2c-1.8-1.3-3.6-2.1-5.6-2.3l-2.4-0.2l0.2,1.9c0.1,0.9,0.1,1.7,0.1,2.3c0,1-0.1,2.3-0.2,3.8L64.8,51
		c0.1,0,0.3,0,0.4,0c0.4,0,0.6,0,0.8,0c3.1,0,5.5-0.4,7.1-1.2c0.7-0.4,1.3-0.9,1.9-1.5c0.7-0.8,0.9-1.3,0.9-1.5
		C75.9,45.2,74.9,43.6,73.1,42.2z"/>
	<path class="st0" d="M3,190.1h187.1V3H3V190.1z M56.8,152.7c-0.9,1.8-2.2,3.4-3.8,4.5c-0.1-0.1-0.1-0.3-0.2-0.4
		c-0.4-0.9-1.4-1.4-2.4-1.4c-0.2-0.5-0.3-1-0.5-1.6c1.2-0.8,2.1-1.9,2.8-3.2c0.7-1.3,1-2.8,1-4.2c0-3.4-1.9-6.4-5.7-8.8l0,0
		c-1.1-0.7-3.6-2-7.3-3.6c1,0,1.9-0.5,2.5-1.4c1,0.4,2.2,0.3,3.1-0.4c0.8,0.7,1.8,1.1,2.9,1.1c0.3,0,0.5,0,0.7-0.1
		c1.3,0.9,2.6,1.9,3.7,3c3,3.1,4.6,6.5,4.6,10.1C58.3,148.5,57.8,150.6,56.8,152.7z M37.3,157.9c-0.6,0-1.2-0.2-1.6-0.7
		c-0.4-0.4-0.7-1-0.7-1.6c0-1.3,0.1-3.3,0.2-6c0.1-2.6,0.2-4.6,0.2-5.9c0-1.5,0-3.7-0.1-6.6c0-1.1,0-2.1-0.1-3
		c1.3,0.7,3.1,0.6,3.8-0.7c0.2,0.2,0.5,0.3,0.7,0.4l0.1,10l-0.3,10.1c0.1,0,0.1,0.1,0.2,0.2c0.6,0.4,1.4,0.7,2.2,0.9
		c0,0.2-0.1,0.4-0.1,0.6c-1.1,0-2.2,0.7-2.6,2.1c-0.1,0.4-0.2,0.7-0.3,1.1C38.3,158.5,37.8,158.2,37.3,157.9L37.3,157.9z
		 M82.8,157.3c-0.9,0.9-2.2,1-3.2,0c-4-3.9-8.4-6.7-13.3-8.1l0.1,3.2l0.1,2.1c-1.3-1.1-3.5-0.6-4.5,0.8c0-0.9-0.1-2.1-0.1-3.6
		c-0.1-2-0.1-3.5-0.1-4.5c0-1.2,0.1-2.9,0.4-5.2c0.2-2.3,0.4-4,0.4-5.1c0-0.6-0.1-1.6-0.2-2.8c-0.1-1.3-0.2-2.2-0.2-2.9
		c0-0.8,0.2-1.5,0.7-2.1c0.6-0.8,1.3-1.1,2.3-1.1l4.6,0.4c1.8,0.2,3.3,0.7,4.5,1.3c5.2,2.8,7.9,6.2,7.9,10.3c0,2-0.9,3.8-2.7,5.4
		c-1.2,1.1-2.8,1.9-4.5,2.5c3.6,2,6.3,4.1,8.1,6.3c0.4,0.5,0.6,1,0.6,1.5C83.5,156.3,83.3,156.8,82.8,157.3z M87.3,55.9
		c-0.2-0.3-0.3-0.7-0.3-1.2c0-0.8,0.3-1.8,2-2.3c1.4-2.7,3.2-5.8,5.4-9.2c1.1-1.8,2.1-3.2,2.8-4.2c-0.1,2.3,2.3,4,4.5,2.8
		c0.1-0.1,0.2-0.1,0.3-0.2c0.2,2,0.2,3.6,0.1,5.7c-0.1,1.1,0.5,1.9,1.2,2.4c0,0,0,0,0,0c-0.2,1.4,0.3,2.8,1.6,3.5
		c-0.3,1.4,0.4,2.5,1.5,3l0.3,1.5l1.1,2.9c0.5,1.4,0.6,1.9,0.6,2.2c0,0.6-0.2,1.2-0.7,1.6c-0.5,0.4-1,0.7-1.6,0.7
		c-1.4,0-2.5-1.6-3.4-4.7c-0.3-1.1-0.7-3-1.2-5.6c-1.2,0.2-2.8,0.5-4.7,0.9l-4.8,1c-0.6,1.7-1.7,4-3.2,7.1c-0.5,0.9-1.1,1.3-2,1.3
		c-0.6,0-1.1-0.2-1.6-0.6c-0.5-0.4-0.7-1-0.7-1.6C84.5,62.4,84.8,61.2,87.3,55.9z M78.8,94.7c0-1.7-0.1-3-0.1-3.8
		c0-0.7-0.1-1.8-0.2-3.2c0.9-0.2,1.7-0.9,2.1-2c0.1-0.3,0.3-0.6,0.4-0.9c0.7,0,1.3-0.3,1.8-0.9c0.2-0.3,0.5-0.5,0.7-0.8
		c0.1,0.1,0.2,0.2,0.3,0.4c3.1,4.7,6,8.6,8.5,11.7c2.8,3.5,5.9,6.8,9.2,10c0-0.4,0-0.9,0-1.5l-0.1-2.4c0-5.5-0.2-9.9-0.6-13.2
		c0-0.3-0.2-1-0.5-1.9c-0.3-0.9-0.4-1.6-0.4-2.1c0-1.7,0.8-2.6,2.4-2.6c2.5,0,3.7,4,3.7,12.7c0,1.4,0,3.5-0.1,6.3
		c0,2.8-0.1,4.9-0.1,6.3c0,0.2,0,0.5,0,0.7c-1.6-1-4-0.5-4.5,1.7c-0.1,0.6-0.3,1.2-0.4,1.9c-0.2-0.1-0.3-0.3-0.5-0.4
		c-5-4.7-10.7-11.5-17.1-20.2l-0.1,7.5c0,1,0,2.6,0.1,4.7c0,1.8,0.1,3.2,0.1,4.3c-0.1,0-0.2,0-0.4-0.1c-0.2-0.5-0.4-1.1-0.7-1.6
		c0-0.5,0.1-1,0.1-1.5c0-2.2-1.9-3.2-3.6-2.8c0-1,0-1.8,0-2.4C78.8,97.6,78.8,96.4,78.8,94.7z M110.7,82.3c0.1-0.3,0.1-0.6,0.3-0.8
		c0.2,0.3,0.5,0.5,0.8,0.7c0.4,0.2,0.8,0.3,1.3,0.4c0.3,0.2,0.7,0.3,1,0.3c0.1,0.1,0.2,0.2,0.3,0.4c-0.1,1.1-0.4,2.9-1,5.2
		c-0.3,1.4-1,2.1-2,2.1c-0.7,0-1.8-0.3-1.9-2.1c0-0.5,0.1-1.4,0.4-2.8L110.7,82.3z M177.6,47.8c0.1-1.2,0.1-2.9,0.2-4.9
		c1.1,0,2.1-0.4,2.7-1.4c0,0,0-0.1,0.1-0.1c0.4,0.1,0.9,0,1.3-0.1c0.1,0.1,0.2,0.1,0.3,0.2c0,0.1,0,0.2,0,0.2c0,0.8,0,1.3,0,1.7
		c0,1.3-0.1,3.2-0.3,5.7c-0.2,2.5-0.3,4.4-0.3,5.6c0,1,0.1,2.4,0.2,4.3c0,0.5,0.1,1,0.1,1.5c-1-1.3-3.2-1.6-4.4-0.5
		c0-0.3,0-0.6-0.1-0.9c-0.1-1.9-0.2-3.4-0.2-4.3c0-0.8,0-1.6,0.1-2.4c-2.1,0.1-4.6,0.4-7.5,0.9l-7.7,1.5c0,1.1-0.1,2.7-0.3,4.6
		c-0.2,2.1-0.3,3.7-0.3,4.8c0,0.1,0,0.2,0,0.3c-0.2,0.1-0.4,0.1-0.6,0.2c-0.9,0.5-1.4,0.9-1.9,1.7c-0.5-0.1-0.9-0.3-1.3-0.6
		c-0.4-0.4-0.6-1-0.6-1.6c0-1.3,0.1-3.4,0.3-6c0.2-2.6,0.3-4.6,0.3-6c0-0.7,0-1.7-0.1-3.1c0-1.4-0.1-2.5-0.1-3.2
		c0-1,0.1-2.5,0.2-4.5c0-0.5,0.1-0.9,0.1-1.3c0.8,0.4,1.8,0.5,2.7-0.1c0.6-0.3,1.1-0.7,1.6-1.2c0,0,0,0,0.1-0.1
		c0,0.8-0.1,1.7-0.2,2.7c-0.1,2-0.2,3.5-0.2,4.5l0.1,4.3l7.7-1.5C172.7,48.1,175.4,47.8,177.6,47.8z M144.9,148.3l0,6.6
		c-1.3-1.3-3.6-1.3-4.6,0.4c0-2.9,0.1-6.8,0.3-11.7c0.2-5.8,0.3-10.3,0.3-13.2c0-0.6,0.2-1.2,0.6-1.6c0.4-0.5,1-0.7,1.6-0.7
		c0.2,0,0.4,0,0.6,0.1c0.6,0.9,1.2,2.2,1.4,2.5c0.1,0.1,0.2,0.3,0.3,0.4c0,1.2-0.1,2.9-0.2,5.1c-0.1,2-0.2,3.6-0.2,4.8
		c1.5-1.5,3.2-3.3,5.1-5.4l1.2-1.4c0.6,0.8,1.6,1.2,2.7,1.1c0.4,0.6,1.1,0.9,1.8,1c-0.4,0.4-0.7,0.8-1.2,1.3c-2.2,2.4-4.4,4.7-6.7,7
		c1.5,1.6,3.8,3.8,6.8,6.6l2,1.7c0.4,0.3,0.7,0.5,1.1,0.7c0.3,0.5,0.6,1,0.9,1.5c-1.1-0.3-2.6,0.4-3.1,1.4c-0.1,0.2-0.2,0.5-0.4,0.9
		c-1.5-0.9-3.2-2.2-5.1-4L144.9,148.3z M88.1,158.4c-0.6,0-1.2-0.2-1.6-0.7c-0.4-0.4-0.6-1-0.6-1.6c0-0.6,0.2-1.2,0.6-1.6
		c0.4-0.5,1-0.7,1.6-0.7c0.8,0,2-0.1,3.7-0.4c0.1-0.9,0.2-2,0.2-3.2c0-0.9,0-1.9-0.1-3.2c-0.1-1.3-0.1-2.3-0.1-3.2
		c0-2.8,0.2-6.4,0.5-10.5l-2.3,0.1c0.1-0.1,0.1-0.2,0.2-0.3c0,0,0,0,0,0c1.3,0.4,2.9-0.3,3.7-1.3c0.3-0.5,0.7-0.9,1-1.4
		c0.9,0.2,2,0,2.8-0.8c0.2-0.2,0.4-0.4,0.6-0.6c1.4,0.1,2.9,0.3,4.5,0.5c1.3,0.2,2,1,2,2.4c0,0.7-0.3,1.3-0.8,1.7
		c-0.5,0.3-1,0.5-1.5,0.5c-0.8,0-1.9-0.1-3.1-0.2l-2.7-0.3c-0.3,3.5-0.4,6.9-0.4,10.1c0,0.9,0,2,0.1,3.3c0.1,1.3,0.1,2.4,0.1,3.3
		c0,1,0,2-0.1,2.9l5.6-0.1c0.4,0,0.8,0.1,1.1,0.3c-0.8,0.2-1.5,0.6-1.9,1.4c-0.1,0.2-0.1,0.3-0.2,0.5c-1.1-0.1-2.2,0.3-2.8,1.4
		c-0.1,0.4-0.3,0.7-0.5,1.1c-0.9,0-1.6,0-2.1,0c-0.8,0-2.1,0.1-3.7,0.3C90.2,158.3,88.9,158.4,88.1,158.4z M135,146.9
		c0,2.8-0.1,4.9-0.1,6.3c0,0.6-0.1,1.6-0.3,3.1c-0.3,1.8-1.5,2.2-2.4,2.2c-0.8,0-1.7-0.5-2.7-1.5c-5-4.7-10.7-11.5-17.1-20.2
		l-0.1,7.5c0,1,0,2.6,0.1,4.7c0,1.9,0.1,3.3,0.1,4.4c-0.6-0.4-1.2-0.6-1.9-0.6c-0.4-1.2-1.6-1.7-2.8-1.7c0-0.7,0-1.6,0.1-2.6
		c0.1-1.6,0.1-2.7,0.1-3.5c0-0.8,0-2.1-0.1-3.8c0-1.7-0.1-3-0.1-3.8c0-0.8-0.1-2-0.2-3.5c-0.2-1.6-0.2-2.8-0.2-3.6
		c0-0.5,0.2-0.9,0.4-1.4c0.8,0.7,2.1,1,3.1,0.6c0.6,0.5,1.4,0.8,2.2,0.6c0.9,1.4,1.8,2.7,2.7,3.9c0,0,0,0.1,0,0.1
		c-0.1,1.4,0.9,2.4,2.1,2.8c1.3,1.7,2.5,3.3,3.6,4.7c2.8,3.5,5.9,6.8,9.2,10c0-0.4,0-0.9,0-1.5l-0.1-2.4c0-2.6-0.1-5-0.1-7.1
		c1.4,1.2,3.8,1.2,4.7-1.1c0,0.3,0,0.7,0,1C135.1,142,135,144.1,135,146.9z M147.3,35.7c0.6,0,1.2,0,1.7,0.1c0,0,0,0,0.1,0
		c0,0.7,0,1.4,0,2.2c0.1,2.3,2.5,3.4,4.2,2.8c0.3,0.1,0.7,0.2,1,0.3c0,0.6-0.2,1.1-0.5,1.5c-0.4,0.6-1,0.9-1.8,0.9
		c-0.7,0-1.6-0.3-2.2-1.6c-0.4-1-0.7-1.2-0.8-1.3c-0.1,0-0.4-0.2-1.8-0.2c-1.7,0-3.7,1.4-5.8,4.1c-3,3.7-4.5,7.2-4.5,10.5
		c0,1.5,0.5,2.9,1.5,4c1,1.1,2.2,1.7,3.6,1.7c1.2,0,2.5-0.3,3.8-1c0.6-0.3,1.5-0.9,2.7-1.8c-0.7,0.8-1.3,1.6-2,2.5
		c-0.7,0-1.4,0.3-2,0.8c-0.3,0.3-0.6,0.6-0.8,0.9c-0.7-0.3-1.3-0.4-2-0.4c-1.1-1.2-3.2-1.6-4.4-0.2c-0.4,0.5-0.8,0.9-1.2,1.3
		c-0.3-0.2-0.6-0.4-1-0.6c-1.8-2-2.7-4.4-2.7-7.1c0-4.3,1.8-8.9,5.5-13.4C141,37.6,144.1,35.7,147.3,35.7z M111.1,35.3
		c0.4,0,1.1,0.1,2.2,0.2c0.1,0.1,0.2,0.3,0.2,0.4c1.2,1.9,4.4,1.8,5.4-0.1c0.5,0,1,0,1.7,0c0.3,0,0.6,0,0.9,0
		c0.2,0.3,0.4,0.6,0.6,0.9c1,1.2,3.3,1.1,4.2,0c0.1-0.1,0.2-0.2,0.3-0.3c1.2,0.5,2.6,0.5,3.7-0.2c0.9,0.1,1.7,0.1,2.3,0.1
		c0.6,0,1.2,0.2,1.6,0.7c0.4,0.4,0.7,1,0.7,1.7c0,0.6-0.2,1.2-0.7,1.6c-0.4,0.4-1,0.7-1.6,0.7c-0.9,0-2.4-0.1-4.3-0.2
		c-1.9-0.1-3.3-0.2-4.3-0.2h-1c0.1,1.7,0.2,4.5,0.5,8.1c0.3,3.6,0.4,6.5,0.4,8.5c0,0.4,0,1.1,0.1,2c0,0.3,0,0.5,0.1,0.7
		c-1.5-1.1-3.9-0.9-4.5,1.3c0,0,0-0.1,0-0.1c0-0.6,0-1.5-0.1-2.8c-0.1-1.2-0.1-2.2-0.1-2.8c0-1.8-0.1-4.3-0.4-7.6
		c-0.3-3.3-0.4-5.7-0.5-7.3l-1.4,0c-2.8,0-5-0.2-6.6-0.6c-1.1-0.3-1.7-0.9-1.8-1.9c0-0.3,0-0.6,0-0.8c0.1-0.4,0.3-0.8,0.5-1.1
		C109.8,35.5,110.4,35.2,111.1,35.3z M60.5,48.9c0.2-2.3,0.4-4,0.4-5.1c0-0.6-0.1-1.6-0.2-2.8c-0.1-1.3-0.2-2.2-0.2-2.9
		c0-0.8,0.2-1.5,0.7-2.1c0.6-0.8,1.3-1.1,2.3-1.1l4.6,0.4c1.8,0.2,3.3,0.7,4.5,1.3c0.1,0,0.1,0.1,0.2,0.1c0,2,1.9,3.2,3.6,2.9
		c0.3,0.2,0.6,0.4,1,0.5c2,2,3,4.3,3,6.8c0,2-0.9,3.8-2.7,5.4c-1.2,1.1-2.8,1.9-4.5,2.5c3.6,2,6.3,4.1,8.1,6.3
		c0.4,0.5,0.6,1,0.6,1.5c0,0.6-0.2,1.2-0.7,1.6c-0.9,0.9-2.2,1-3.2,0c-4-3.9-8.4-6.7-13.3-8.1l0.1,3.2l0.1,3.7
		c0,0.7-0.2,1.2-0.6,1.7c-0.4,0.4-1,0.7-1.6,0.7s-1.2-0.2-1.6-0.7c-0.4-0.4-0.6-1-0.6-1.7c0-1,0-2.5-0.1-4.4c-0.1-2-0.1-3.5-0.1-4.5
		C60.1,52.9,60.2,51.2,60.5,48.9z M41.3,41.5c3.1-3.8,6.2-5.8,9.3-5.8c0.6,0,1.2,0,1.7,0.1c0.4,0,0.8,0.1,1.1,0.2
		c0.5-0.6,1.1-0.9,1.9-0.9c0.7,0,1.7,0.4,2,2c0.2,1,0.3,2.3,0.3,3.8c0,0.6-0.2,1.1-0.5,1.6c-0.4,0.6-1,0.9-1.8,0.9
		c-1,0-1.7-0.6-2.2-1.6c-0.4-1-0.7-1.2-0.8-1.3c-0.1,0-0.4-0.2-1.8-0.2c-1.7,0-3.7,1.4-5.8,4.1c-3,3.7-4.5,7.2-4.5,10.5
		c0,1.5,0.5,2.9,1.5,4c0.4,0.5,0.9,0.9,1.5,1.2c-0.6,0.3-1,0.9-1.2,1.7c-0.1,0.4-0.2,0.9-0.2,1.3c-0.8-0.7-1.6-1.5-2.4-2.4
		c-0.6-0.7-1.6-1-2.4-0.9c-0.8-1.5-1.2-3.1-1.2-4.9C35.8,50.5,37.7,46,41.3,41.5z M31.5,61.1c-0.9,0.2-1.7,0.8-2,1.9c0,0,0,0,0,0
		c-2.1-1.7-5.4-0.1-5.2,2.3c-1.3,0.3-2.6,0.5-4,0.5c-2.4,0-4.5-0.5-6.5-1.4c-2.5-1.1-3.8-2.8-3.8-4.8c0-0.6,0.2-1.2,0.7-1.6
		c0.4-0.4,1-0.6,1.6-0.6c0.7,0,1.4,0.4,1.9,1.2c0.6,0.9,1.2,1.5,1.6,1.8c1,0.7,2.5,1,4.5,1c1.9,0,3.7-0.4,5.3-1.2c2-1,3-2.4,3-4.2
		c0-1.5-0.8-2.6-2.5-3.4c-1.5-0.8-3.3-1.2-5.5-1.2c-2-0.1-3.8-0.5-5.3-1.4c-1.8-1-2.8-2.6-2.9-4.5c0.9-0.2,1.7-0.8,2.1-1.5
		c0.8-0.1,1.5-0.6,2-1.3c0.2,0.1,0.4,0.3,0.6,0.4c0.2,0.1,0.4,0.2,0.6,0.3c-0.3,0.5-0.5,1.1-0.5,1.7c0,0.8,0.8,1.5,2.5,1.8
		c0.7,0.2,2,0.3,4,0.4c3,0.2,5.3,1.2,7,2.8c1.6,1.5,2.3,3.4,2.3,5.6C33.2,57.8,32.6,59.6,31.5,61.1z M28.4,36.8
		c2.2,0.6,3.3,1.4,3.3,2.4c0,1.3-0.7,2-2.1,2c-0.5,0-1.4-0.1-2.7-0.4c-0.8-0.2-1.4-0.3-2-0.3c-0.1-0.3-0.2-0.7-0.4-1
		c-0.4-0.8-0.9-1.5-1.4-2.3c-0.2-0.3-0.4-0.6-0.6-0.9c0.5-0.1,1-0.1,1.5-0.1C25.4,36.2,26.9,36.4,28.4,36.8z"/>
	<path class="st0" d="M67.7,144.1c3.1,0,5.5-0.4,7.1-1.2c0.7-0.4,1.3-0.9,1.9-1.5c0.7-0.8,0.9-1.3,0.9-1.5c0-1.6-1-3.2-2.8-4.6
		c-1.8-1.3-3.6-2.1-5.6-2.3l-2.4-0.2l0.2,1.9c0.1,0.9,0.1,1.7,0.1,2.3c0,1-0.1,2.3-0.2,3.8l-0.4,3.4c0.1,0,0.3,0,0.4,0
		C67.2,144.1,67.5,144.1,67.7,144.1z"/>
	<path d="M0,0v193.1h193.1V0H0z M190.1,190.1H3V3h187.1V190.1z"/>
	<path class="st1" d="M23.8,47.4c-2-0.1-3.3-0.3-4-0.4c-1.7-0.4-2.5-1-2.5-1.8c0-0.6,0.2-1.2,0.5-1.7c-0.2-0.1-0.4-0.2-0.6-0.3
		c-0.2-0.1-0.4-0.3-0.6-0.4c-0.5,0.7-1.2,1.2-2,1.3c-0.4,0.8-1.2,1.4-2.1,1.5c0.1,1.9,1,3.4,2.9,4.5c1.4,0.8,3.2,1.3,5.3,1.4
		c2.2,0.1,4,0.5,5.5,1.2c1.7,0.9,2.5,2,2.5,3.4c0,1.8-1,3.2-3,4.2c-1.6,0.8-3.4,1.2-5.3,1.2c-2,0-3.5-0.3-4.5-1
		c-0.5-0.3-1-0.9-1.6-1.8c-0.5-0.8-1.2-1.2-1.9-1.2c-0.6,0-1.2,0.2-1.6,0.6C10.2,58.4,10,59,10,59.6c0,2,1.3,3.7,3.8,4.8
		c2,0.9,4.1,1.4,6.5,1.4c1.4,0,2.8-0.2,4-0.5c-0.3-2.4,3-4.1,5.2-2.3c0,0,0,0,0,0c0.3-1.1,1.1-1.7,2-1.9c1.2-1.5,1.7-3.2,1.7-5.2
		c0-2.2-0.8-4.1-2.3-5.6C29.2,48.6,26.8,47.6,23.8,47.4z"/>
	<path class="st1" d="M23.2,37.2c0.5,0.7,0.9,1.5,1.4,2.3c0.2,0.4,0.3,0.7,0.4,1c0.6,0.1,1.2,0.2,2,0.3c1.3,0.3,2.2,0.4,2.7,0.4
		c1.3,0,2.1-0.7,2.1-2c0-1-1.1-1.8-3.3-2.4c-1.6-0.4-3-0.6-4.2-0.6c-0.5,0-1,0-1.5,0.1C22.9,36.6,23.1,36.9,23.2,37.2z"/>
	<path class="st1" d="M39.4,60.6c0.8,0.9,1.6,1.7,2.4,2.4c0.1-0.4,0.2-0.9,0.2-1.3c0.2-0.9,0.6-1.4,1.2-1.7c-0.5-0.3-1-0.6-1.5-1.2
		c-1-1.1-1.5-2.4-1.5-4c0-3.3,1.5-6.8,4.5-10.5c2.1-2.7,4.1-4.1,5.8-4.1c1.3,0,1.7,0.1,1.8,0.2c0.1,0.1,0.4,0.3,0.8,1.3
		c0.5,1.1,1.2,1.6,2.2,1.6c0.8,0,1.4-0.3,1.8-0.9c0.3-0.5,0.5-1,0.5-1.6c0-1.5-0.1-2.8-0.3-3.8c-0.3-1.7-1.3-2-2-2
		c-0.7,0-1.4,0.3-1.9,0.9c-0.3-0.1-0.7-0.2-1.1-0.2c-0.5-0.1-1.1-0.1-1.7-0.1c-3.1,0-6.3,1.9-9.3,5.8c-3.6,4.5-5.5,9-5.5,13.4
		c0,1.8,0.4,3.4,1.2,4.9C37.9,59.6,38.8,59.9,39.4,60.6z"/>
	<path class="st1" d="M60.4,63c0,0.7,0.2,1.2,0.6,1.7c0.4,0.4,1,0.7,1.6,0.7s1.2-0.2,1.6-0.7c0.4-0.4,0.6-1,0.6-1.7l-0.1-3.7
		l-0.1-3.2c4.8,1.4,9.3,4.2,13.3,8.1c1,1,2.3,0.9,3.2,0c0.5-0.5,0.7-1,0.7-1.6c0-0.5-0.2-1.1-0.6-1.5c-1.8-2.2-4.6-4.3-8.1-6.3
		c1.8-0.6,3.3-1.5,4.5-2.5c1.8-1.5,2.7-3.4,2.7-5.4c0-2.5-1-4.8-3-6.8c-0.4-0.1-0.7-0.2-1-0.5c-1.7,0.3-3.7-0.9-3.6-2.9
		c-0.1,0-0.1-0.1-0.2-0.1c-1.2-0.6-2.7-1.1-4.5-1.3l-4.6-0.4c-1-0.1-1.8,0.3-2.3,1.1c-0.5,0.6-0.7,1.3-0.7,2.1
		c0,0.7,0.1,1.6,0.2,2.9c0.1,1.2,0.2,2.2,0.2,2.8c0,1.1-0.1,2.9-0.4,5.1c-0.3,2.3-0.4,4.1-0.4,5.2c0,1,0,2.5,0.1,4.5
		C60.3,60.5,60.4,62,60.4,63z M75,48.3c-0.6,0.6-1.2,1.1-1.9,1.5c-1.5,0.8-3.9,1.2-7.1,1.2c-0.2,0-0.5,0-0.8,0c-0.2,0-0.3,0-0.4,0
		l0.4-3.4c0.2-1.5,0.2-2.8,0.2-3.8c0-0.6,0-1.4-0.1-2.3l-0.2-1.9l2.4,0.2c1.9,0.2,3.8,1,5.6,2.3c1.9,1.4,2.8,3,2.8,4.6
		C75.9,47.1,75.7,47.6,75,48.3z"/>
	<path class="st1" d="M86.9,65.1c0.8,0,1.5-0.4,2-1.3c1.5-3.1,2.5-5.4,3.2-7.1l4.8-1c1.9-0.4,3.4-0.7,4.7-0.9
		c0.5,2.7,0.9,4.6,1.2,5.6c0.9,3.2,2,4.7,3.4,4.7c0.6,0,1.1-0.2,1.6-0.7c0.5-0.4,0.7-1,0.7-1.6c0-0.2-0.1-0.7-0.6-2.2l-1.1-2.9
		l-0.3-1.5c-1.1-0.5-1.9-1.6-1.5-3c-1.3-0.7-1.8-2-1.6-3.5c0,0,0,0,0,0c-0.8-0.5-1.3-1.3-1.2-2.4c0.1-2.1,0.2-3.7-0.1-5.7
		c-0.1,0.1-0.2,0.1-0.3,0.2c-2.2,1.1-4.6-0.5-4.5-2.8c-0.7,1-1.7,2.4-2.8,4.2c-2.2,3.4-4,6.5-5.4,9.2c-1.6,0.4-2,1.5-2,2.3
		c0,0.4,0.1,0.8,0.3,1.2c-2.5,5.3-2.8,6.5-2.8,6.9c0,0.6,0.2,1.2,0.7,1.6C85.7,64.9,86.3,65.1,86.9,65.1z M94.8,51.4l4.4-7.2l1.3,6
		C98.1,50.7,96.2,51.1,94.8,51.4z"/>
	<path class="st1" d="M108.8,37.9c0.1,1,0.7,1.7,1.8,1.9c1.6,0.4,3.8,0.6,6.6,0.6l1.4,0c0.1,1.6,0.2,4,0.5,7.3
		c0.3,3.2,0.4,5.8,0.4,7.6c0,0.6,0,1.6,0.1,2.8c0.1,1.2,0.1,2.2,0.1,2.8c0,0,0,0.1,0,0.1c0.6-2.2,3-2.4,4.5-1.3c0-0.2,0-0.5-0.1-0.7
		c-0.1-0.9-0.1-1.5-0.1-2c0-2-0.1-4.9-0.4-8.5c-0.3-3.6-0.4-6.3-0.5-8.1h1c1,0,2.4,0.1,4.3,0.2c1.9,0.2,3.4,0.2,4.3,0.2
		c0.6,0,1.2-0.2,1.6-0.7c0.4-0.4,0.7-1,0.7-1.6c0-0.7-0.2-1.2-0.7-1.7c-0.4-0.4-1-0.7-1.6-0.7c-0.6,0-1.4,0-2.3-0.1
		c-1.1,0.7-2.4,0.7-3.7,0.2c-0.1,0.1-0.2,0.2-0.3,0.3c-1,1.1-3.3,1.2-4.2,0c-0.2-0.3-0.4-0.6-0.6-0.9c-0.3,0-0.6,0-0.9,0
		c-0.6,0-1.2,0-1.7,0c-0.9,1.8-4.2,2-5.4,0.1c-0.1-0.1-0.2-0.3-0.2-0.4c-1.1-0.1-1.9-0.2-2.2-0.2c-0.7-0.1-1.3,0.2-1.8,0.7
		c-0.3,0.3-0.4,0.7-0.5,1.1C108.8,37.4,108.8,37.6,108.8,37.9z"/>
	<path class="st1" d="M135.2,62c0.4,0.2,0.7,0.4,1,0.6c0.4-0.4,0.8-0.8,1.2-1.3c1.2-1.4,3.3-1,4.4,0.2c0.7,0,1.3,0.1,2,0.4
		c0.3-0.3,0.6-0.6,0.8-0.9c0.5-0.5,1.2-0.8,2-0.8c0.7-0.8,1.3-1.6,2-2.5c-1.2,0.8-2.1,1.4-2.7,1.8c-1.3,0.6-2.5,1-3.8,1
		c-1.4,0-2.6-0.6-3.6-1.7c-1-1.1-1.5-2.4-1.5-4c0-3.3,1.5-6.8,4.5-10.5c2.1-2.7,4.1-4.1,5.8-4.1c1.3,0,1.7,0.1,1.8,0.2
		c0.1,0.1,0.4,0.3,0.8,1.3c0.6,1.4,1.5,1.6,2.2,1.6c0.8,0,1.4-0.3,1.8-0.9c0.3-0.4,0.5-1,0.5-1.5c-0.4,0-0.7-0.1-1-0.3
		c-1.7,0.7-4.1-0.5-4.2-2.8c0-0.8,0-1.5,0-2.2c0,0,0,0-0.1,0c-0.5-0.1-1.1-0.1-1.7-0.1c-3.1,0-6.3,1.9-9.3,5.8
		c-3.6,4.5-5.5,9-5.5,13.4C132.5,57.6,133.4,60,135.2,62z"/>
	<path class="st1" d="M162,50.2l-0.1-4.3c0-1,0.1-2.5,0.2-4.5c0.1-1,0.1-1.9,0.2-2.7c0,0,0,0-0.1,0.1c-0.5,0.4-1.1,0.8-1.6,1.2
		c-1,0.6-1.9,0.6-2.7,0.1c0,0.4,0,0.8-0.1,1.3c-0.1,2-0.2,3.5-0.2,4.5c0,0.7,0,1.8,0.1,3.2c0.1,1.4,0.1,2.4,0.1,3.1
		c0,1.3-0.1,3.3-0.3,6c-0.2,2.7-0.3,4.7-0.3,6c0,0.6,0.2,1.1,0.6,1.6c0.3,0.4,0.8,0.6,1.3,0.6c0.5-0.8,1-1.3,1.9-1.7
		c0.2-0.1,0.4-0.2,0.6-0.2c0-0.1,0-0.2,0-0.3c0-1.1,0.1-2.8,0.3-4.8c0.2-1.9,0.3-3.4,0.3-4.6l7.7-1.5c2.9-0.6,5.5-0.9,7.5-0.9
		c0,0.8-0.1,1.6-0.1,2.4c0,1,0.1,2.4,0.2,4.3c0,0.3,0,0.6,0.1,0.9c1.2-1.1,3.4-0.7,4.4,0.5c0-0.5-0.1-1-0.1-1.5
		c-0.1-1.9-0.2-3.3-0.2-4.3c0-1.2,0.1-3.1,0.3-5.6c0.2-2.5,0.3-4.4,0.3-5.7c0-0.4,0-0.9,0-1.7c0-0.1,0-0.2,0-0.2
		c-0.1,0-0.2-0.1-0.3-0.2c-0.4,0.1-0.9,0.1-1.3,0.1c0,0,0,0.1-0.1,0.1c-0.5,1-1.6,1.4-2.7,1.4c0,2-0.1,3.7-0.2,4.9
		c-2.2,0.1-4.8,0.4-7.9,0.9L162,50.2z"/>
	<path class="st1" d="M82.4,103.6c0,0.5,0,1-0.1,1.5c0.3,0.5,0.5,1,0.7,1.6c0.1,0,0.2,0,0.4,0.1c0-1,0-2.4-0.1-4.3
		c0-2.1-0.1-3.7-0.1-4.7l0.1-7.5c6.4,8.7,12.1,15.5,17.1,20.2c0.2,0.2,0.3,0.3,0.5,0.4c0.1-0.6,0.3-1.2,0.4-1.9
		c0.5-2.1,2.9-2.6,4.5-1.7c0-0.3,0-0.5,0-0.7c0-1.4,0-3.5,0.1-6.3c0-2.8,0.1-4.9,0.1-6.3c0-8.6-1.2-12.7-3.7-12.7
		c-1.5,0-2.4,0.9-2.4,2.6c0,0.5,0.1,1.2,0.4,2.1c0.3,1,0.5,1.6,0.5,1.9c0.4,3.3,0.6,7.7,0.6,13.2l0.1,2.4c0,0.6,0,1.1,0,1.5
		c-3.3-3.2-6.4-6.5-9.2-10c-2.5-3.1-5.3-7-8.5-11.7c-0.1-0.1-0.2-0.3-0.3-0.4c-0.2,0.3-0.5,0.5-0.7,0.8c-0.5,0.5-1.2,0.8-1.8,0.9
		c-0.1,0.3-0.3,0.6-0.4,0.9c-0.5,1.1-1.3,1.8-2.1,2c0.1,1.4,0.2,2.5,0.2,3.2c0,0.8,0,2.1,0.1,3.8c0,1.7,0.1,2.9,0.1,3.8
		c0,0.6,0,1.4,0,2.4C80.5,100.5,82.3,101.4,82.4,103.6z"/>
	<path class="st1" d="M109.5,88.4c0.1,1.8,1.2,2.1,1.9,2.1c1,0,1.6-0.7,2-2.1c0.6-2.3,0.9-4.1,1-5.2c-0.1-0.1-0.2-0.2-0.3-0.4
		c-0.4,0-0.7-0.2-1-0.3c-0.5,0-0.9-0.1-1.3-0.4c-0.3-0.2-0.6-0.4-0.8-0.7c-0.1,0.2-0.2,0.5-0.3,0.8l-0.7,3.3
		C109.6,87,109.5,87.9,109.5,88.4z"/>
	<path class="st1" d="M39.3,157.6c0.4-1.5,1.5-2.1,2.6-2.1c0-0.2,0.1-0.4,0.1-0.6c-0.8-0.2-1.6-0.4-2.2-0.9
		c-0.1-0.1-0.2-0.1-0.2-0.2l0.3-10.1l-0.1-10c-0.3-0.1-0.5-0.2-0.7-0.4c-0.8,1.3-2.5,1.4-3.8,0.7c0,0.9,0,1.9,0.1,3
		c0.1,2.9,0.1,5.1,0.1,6.6c0,1.3-0.1,3.3-0.2,5.9c-0.1,2.6-0.2,4.6-0.2,6c0,0.6,0.2,1.2,0.7,1.6c0.4,0.5,1,0.7,1.6,0.7h0.1
		c0.4,0.3,1,0.6,1.6,0.8C39.1,158.3,39.2,158,39.3,157.6z"/>
	<path class="st1" d="M50.1,133.2c-0.2,0-0.5,0.1-0.7,0.1c-1.1,0-2.1-0.4-2.9-1.1c-0.9,0.7-2.1,0.9-3.1,0.4
		c-0.6,0.9-1.6,1.4-2.5,1.4c3.7,1.7,6.2,2.9,7.3,3.6l0,0c3.8,2.5,5.7,5.4,5.7,8.8c0,1.5-0.4,2.9-1,4.2c-0.7,1.3-1.6,2.4-2.8,3.2
		c0.2,0.5,0.3,1,0.5,1.6c1,0.1,1.9,0.5,2.4,1.4c0.1,0.1,0.1,0.3,0.2,0.4c1.6-1.2,2.9-2.7,3.8-4.5c1-2,1.6-4.2,1.6-6.4
		c0-3.7-1.5-7.1-4.6-10.1C52.7,135,51.4,134,50.1,133.2z"/>
	<path class="st1" d="M74.8,147.8c1.8-0.6,3.3-1.5,4.5-2.5c1.8-1.5,2.7-3.4,2.7-5.4c0-4-2.6-7.5-7.9-10.3c-1.2-0.6-2.7-1.1-4.5-1.3
		l-4.6-0.4c-1-0.1-1.8,0.3-2.3,1.1c-0.5,0.6-0.7,1.3-0.7,2.1c0,0.7,0.1,1.6,0.2,2.9c0.1,1.2,0.2,2.2,0.2,2.8c0,1.1-0.1,2.9-0.4,5.1
		c-0.3,2.3-0.4,4.1-0.4,5.2c0,1,0,2.5,0.1,4.5c0.1,1.5,0.1,2.7,0.1,3.6c1-1.5,3.2-1.9,4.5-0.8l-0.1-2.1l-0.1-3.2
		c4.8,1.4,9.3,4.2,13.3,8.1c1,1,2.3,0.9,3.2,0c0.5-0.5,0.7-1,0.7-1.6c0-0.5-0.2-1.1-0.6-1.5C81.1,151.9,78.4,149.8,74.8,147.8z
		 M66.8,140.7c0.2-1.5,0.2-2.8,0.2-3.8c0-0.6,0-1.4-0.1-2.3l-0.2-1.9l2.4,0.2c1.9,0.2,3.8,1,5.6,2.3c1.9,1.4,2.8,3,2.8,4.6
		c0,0.3-0.2,0.8-0.9,1.5c-0.6,0.6-1.2,1.1-1.9,1.5c-1.5,0.8-3.9,1.2-7.1,1.2c-0.2,0-0.5,0-0.8,0c-0.2,0-0.3,0-0.4,0L66.8,140.7z"/>
	<path class="st1" d="M97.7,157.7c0.2-0.3,0.4-0.7,0.5-1.1c0.5-1.1,1.6-1.5,2.8-1.4c0.1-0.2,0.1-0.3,0.2-0.5
		c0.4-0.8,1.1-1.2,1.9-1.4c-0.3-0.2-0.7-0.3-1.1-0.3l-5.6,0.1c0.1-0.9,0.1-1.8,0.1-2.9c0-0.9,0-2-0.1-3.3c0-1.3-0.1-2.4-0.1-3.3
		c0-3.2,0.1-6.6,0.4-10.1l2.7,0.3c1.2,0.2,2.3,0.2,3.1,0.2c0.6,0,1.1-0.2,1.5-0.5c0.5-0.4,0.8-1,0.8-1.7c0-1.4-0.7-2.2-2-2.4
		c-1.6-0.2-3.1-0.4-4.5-0.5c-0.2,0.2-0.4,0.4-0.6,0.6c-0.8,0.7-1.8,0.9-2.8,0.8c-0.3,0.5-0.7,0.9-1,1.4c-0.8,1.1-2.4,1.7-3.7,1.3
		c0,0,0,0,0,0c-0.1,0.1-0.1,0.2-0.2,0.3l2.3-0.1c-0.3,4.2-0.5,7.7-0.5,10.5c0,0.9,0,1.9,0.1,3.2c0.1,1.2,0.1,2.3,0.1,3.2
		c0,1.2-0.1,2.2-0.2,3.2c-1.7,0.2-3,0.4-3.7,0.4c-0.6,0-1.2,0.2-1.6,0.7c-0.4,0.4-0.6,1-0.6,1.6c0,0.6,0.2,1.2,0.6,1.6
		c0.4,0.4,1,0.7,1.6,0.7c0.9,0,2.1-0.1,3.8-0.4c1.6-0.2,2.9-0.3,3.7-0.3C96.1,157.7,96.8,157.7,97.7,157.7z"/>
	<path class="st1" d="M130.4,140.7c0.1,2.1,0.1,4.5,0.1,7.1l0.1,2.4c0,0.6,0,1.1,0,1.5c-3.3-3.2-6.4-6.5-9.2-10
		c-1.1-1.4-2.3-3-3.6-4.7c-1.2-0.4-2.2-1.4-2.1-2.8c0,0,0-0.1,0-0.1c-0.9-1.2-1.7-2.5-2.7-3.9c-0.8,0.2-1.6-0.1-2.2-0.6
		c-1,0.4-2.3,0.1-3.1-0.6c-0.3,0.4-0.4,0.9-0.4,1.4c0,0.8,0.1,2,0.2,3.6c0.1,1.5,0.2,2.7,0.2,3.5c0,0.8,0,2.1,0.1,3.8
		c0,1.7,0.1,2.9,0.1,3.8c0,0.8,0,1.9-0.1,3.5c0,1.1-0.1,1.9-0.1,2.6c1.2,0,2.4,0.6,2.8,1.7c0.7,0,1.3,0.2,1.9,0.6
		c0-1.1,0-2.5-0.1-4.4c0-2.1-0.1-3.7-0.1-4.7l0.1-7.5c6.4,8.7,12.1,15.5,17.1,20.2c1,1,1.9,1.5,2.7,1.5c0.9,0,2.1-0.4,2.4-2.2
		c0.2-1.4,0.3-2.5,0.3-3.1c0-1.4,0-3.5,0.1-6.3c0-2.8,0.1-4.9,0.1-6.3c0-0.3,0-0.7,0-1C134.2,141.8,131.9,141.9,130.4,140.7z"/>
	<path class="st1" d="M155,157.4c0.2-0.4,0.3-0.7,0.4-0.9c0.5-1,2-1.7,3.1-1.4c-0.2-0.5-0.6-1-0.9-1.5c-0.4-0.2-0.8-0.4-1.1-0.7
		l-2-1.7c-3-2.8-5.3-5-6.8-6.6c2.3-2.3,4.6-4.6,6.7-7c0.4-0.5,0.8-0.9,1.2-1.3c-0.7-0.1-1.4-0.4-1.8-1c-1.1,0.1-2.1-0.3-2.7-1.1
		l-1.2,1.4c-1.9,2.1-3.6,3.9-5.1,5.4c0-1.2,0.1-2.9,0.2-4.8c0.1-2.2,0.2-3.9,0.2-5.1c-0.1-0.1-0.2-0.3-0.3-0.4
		c-0.2-0.3-0.8-1.6-1.4-2.5c-0.2-0.1-0.4-0.1-0.6-0.1c-0.6,0-1.2,0.2-1.6,0.7c-0.4,0.4-0.6,1-0.6,1.6c0,2.9-0.1,7.4-0.3,13.2
		c-0.1,4.9-0.2,8.8-0.3,11.7c1.1-1.7,3.3-1.7,4.6-0.4l0-6.6l5,5.1C151.8,155.2,153.5,156.6,155,157.4z"/>
</g>
</svg>
