<?xml version="1.0" encoding="utf-8"?>
<!-- Generator: Adobe Illustrator 24.0.2, SVG Export Plug-In . SVG Version: 6.00 Build 0)  -->
<svg version="1.1" id="Layer_1" xmlns="http://www.w3.org/2000/svg" xmlns:xlink="http://www.w3.org/1999/xlink" x="0px" y="0px"
	 viewBox="0 0 85.8 85.8" style="enable-background:new 0 0 85.8 85.8;" xml:space="preserve">
<style type="text/css">
	.st0{clip-path:url(#SVGID_2_);fill:#6D522E;}
	.st1{clip-path:url(#SVGID_2_);fill:#4F3A26;}
	.st2{fill:#4F3A26;}
	.st3{font-family:'Impact';}
	.st4{font-size:17.7252px;}
</style>
<g>
	<g>
		<defs>
			<path id="SVGID_1_" d="M33.2,11.5c0,0,17.4-2.1,18.9,30.7c1.3,31.2-7.9,34-17.1,34.7c-9.3,0.7-18.2-4.4-16.7-31.5
				C19.8,18.2,24.7,12.8,33.2,11.5z"/>
		</defs>
		<use xlink:href="#SVGID_1_"  style="overflow:visible;fill:#846541;"/>
		<clipPath id="SVGID_2_">
			<use xlink:href="#SVGID_1_"  style="overflow:visible;"/>
		</clipPath>
		<path class="st0" d="M44.3,21.5c0,0-2.1-5.4-8-6.2c-5.9-0.8-6.5-1-7.7,1.9c-1.2,2.9-3.2,0.6-3.2,3.8c-0.1,3.1,7.5-1.3,7.5,1.5
			s8.9,9.2,11.1,6.7S44.3,21.5,44.3,21.5z"/>
		<path class="st0" d="M30.7,41.4c0,0-3.3-10.3-4.1-5.1c-0.7,5.2,0.3,6.4-1,6.6c-1.2,0.2-3.6-2.8-3.3,1.8s3.9,2.6,4.1,5.1
			c0.2,2.5-2.1,2.3-1,5.9c1,3.6-1.6,5.1-2.8,3.2c-1.2-1.9,0.8-7.2-1.3-7.5s-3.7,3.1-1.9,5.5c1.8,2.5,4.5,4.5,3.2,5.8
			s9.6,9.2,7.7,1.4s-2-10,0-10.7s4-3.6,2.1-5.5c-1.9-1.9-2.5-2.4-2.4-3.5C29.9,43.4,31.2,43.4,30.7,41.4z"/>
		<path class="st0" d="M41.7,68.3c0,0-2.4-1.9-2.4,1.7S43.1,70.1,41.7,68.3z"/>
		<ellipse class="st1" cx="27.2" cy="24.6" rx="0.3" ry="0.3"/>
		<ellipse class="st1" cx="34.7" cy="29.4" rx="0.3" ry="0.6"/>
		<ellipse class="st1" cx="33.1" cy="35.4" rx="0.4" ry="0.5"/>
		<ellipse class="st1" cx="35.5" cy="33.7" rx="0.4" ry="0.6"/>
		<ellipse class="st1" cx="45.9" cy="28" rx="0.7" ry="0.9"/>
		<ellipse class="st1" cx="22.5" cy="26.5" rx="0.3" ry="0.4"/>
		<ellipse class="st1" cx="25.4" cy="28.6" rx="0.1" ry="0.3"/>
		<ellipse class="st1" cx="28.8" cy="31.1" rx="0.1" ry="0.2"/>
		<ellipse class="st1" cx="40.7" cy="15.8" rx="0.2" ry="0.3"/>
		<ellipse class="st1" cx="38" cy="21.4" rx="0.5" ry="0.8"/>
		<ellipse class="st1" cx="40.1" cy="68.3" rx="0.4" ry="0.5"/>
		<ellipse class="st1" cx="43.9" cy="67.5" rx="0.2" ry="0.2"/>
		<ellipse class="st1" cx="46.3" cy="62.7" rx="0.2" ry="0.2"/>
		<ellipse class="st1" cx="42.7" cy="56.6" rx="0.1" ry="0.1"/>
		<ellipse class="st1" cx="45.8" cy="48.7" rx="0.3" ry="0.6"/>
		<ellipse class="st1" cx="37.4" cy="54.9" rx="0.2" ry="0.3"/>
		<ellipse class="st1" cx="32.8" cy="63.9" rx="0.2" ry="0.4"/>
		<ellipse class="st1" cx="27.6" cy="60.1" rx="0.4" ry="0.1"/>
		<path class="st1" d="M24.8,51.8C24.8,51.8,24.7,51.8,24.8,51.8C24.7,51.8,24.8,51.8,24.8,51.8C24.8,51.8,24.9,51.8,24.8,51.8
			C24.9,51.8,24.8,51.8,24.8,51.8z"/>
		<ellipse class="st1" cx="22.5" cy="48.6" rx="0.3" ry="0.8"/>
		<ellipse class="st1" cx="24.3" cy="43" rx="0" ry="0.3"/>
		<ellipse class="st1" cx="28.6" cy="44.1" rx="0.6" ry="0.2"/>
		<ellipse class="st1" cx="33.1" cy="44.3" rx="0.2" ry="0.3"/>
		<ellipse class="st1" cx="36.1" cy="40.6" rx="0.3" ry="0.4"/>
	</g>
	<text transform="matrix(0.9907 0 0 1 1.953125e-03 37.604)" class="st2 st3 st4">SH</text>
	<text transform="matrix(0.9907 0 0 1 50.8037 37.604)" class="st2 st3 st4">T</text>
	<text transform="matrix(0.9907 0 0 1 9.042 67.2148)" class="st2 st3 st4">P</text>
	<text transform="matrix(0.9907 0 0 1 52.7549 67.2148)" class="st2 st3 st4">TATO</text>
</g>
</svg>
