<?xml version="1.0" encoding="utf-8"?>
<!-- Generator: Adobe Illustrator 24.0.2, SVG Export Plug-In . SVG Version: 6.00 Build 0)  -->
<svg version="1.1" id="Layer_1" xmlns="http://www.w3.org/2000/svg" xmlns:xlink="http://www.w3.org/1999/xlink" x="0px" y="0px"
	 viewBox="0 0 140 140" style="enable-background:new 0 0 140 140;" xml:space="preserve">
<style type="text/css">
	.st0{fill:#FFFFFF;}
	.st1{fill:#131D1F;}
	.st2{fill:#4C6067;}
	.st3{fill:#171A0B;}
</style>
<rect class="st0" width="140" height="140"/>
<g>
	<path class="st1" d="M94.5,129.8H45.2v-0.3h-35c1.1,1.6,3.5,4.3,5.8,4.3c3.3,0,106.1,0,106.1,0s6.3-0.1,8.1-4.3H94.4v0.3H94.5z"/>
	<path class="st2" d="M137.9,12.9c-0.1-3.3-2.6-5.9-5.9-6.1c-8.3-0.6-26.4-1.4-58.5-1.4c-34,0-55.1,1-64.5,1.6
		c-3.2,0.2-5.7,2.8-5.9,6c-3.1,51.3-0.9,95.7,0,110.6c0.2,3.1,2.6,5.6,5.7,5.9c0.4,0,0.9,0.1,1.4,0.1h35v-2.4c-1.3,0-19.3,0-30,0
		c-11.1,0-9.7-10.2-9.7-10.2s10.1,0,24.2,0c12.5,0,15.1,5.8,15.5,7.2v-2.8h49.3v2.8c0.4-1.2,2.9-7.2,15.6-7.2c14.1,0,24.2,0,24.2,0
		s1.5,10.2-9.7,10.2c-10.8,0-28.9,0-30.1,0v2.4h35.8c0.4,0,0.8-0.1,1.2-0.1c3.2-0.2,5.7-2.7,5.9-5.9C139.5,88.3,138.3,31,137.9,12.9
		z M57.5,119.8h-5.6v-1h5.6V119.8z M62.7,119.8h-3.6v-1h3.6V119.8z M82.3,119.9h-4.4v-1h4.4V119.9z M89,119.8h-4.9v-1H89V119.8z
		 M129.4,106.1c0,0.5-0.4,1-1,1c-0.4,0-21.1,0.4-48.1,0.4c-21.5,0-47-0.3-69.5-1.2c-0.5,0-1-0.5-1-1c0-0.8,0.3-77.7,1.1-88.7
		c0-0.5,0.5-0.9,1-0.9c0.7,0,68.5-1.2,117.1,0.4c0.5,0,0.9,0.4,1,1C130.1,17.4,131.4,52.7,129.4,106.1z"/>
	<path d="M116.7,34.8v6.3c0.2,0,0.3,0,0.5,0c0.6,0,1-0.1,1.2-0.4c0.2-0.3,0.3-0.9,0.3-1.8v-2c0-0.8-0.1-1.4-0.4-1.7
		C118.1,34.9,117.6,34.8,116.7,34.8z"/>
	<path d="M24.9,35c-0.3-0.1-0.7-0.2-1.4-0.2v16.3c0.9,0,1.5-0.2,1.7-0.6c0.2-0.4,0.3-1.4,0.3-3v-9.6c0-1.1,0-1.8-0.1-2.2
		C25.3,35.4,25.2,35.2,24.9,35z"/>
	<path d="M40.6,34.8v5.5c0.7,0,1.2-0.1,1.5-0.3s0.4-0.8,0.4-1.9v-1.4c0-0.8-0.1-1.3-0.4-1.5C41.9,34.9,41.3,34.8,40.6,34.8z"/>
	<path d="M129.1,16.1C80.5,14.5,12.7,15.7,12,15.7c-0.5,0-0.9,0.4-1,0.9c-0.7,11-1.1,87.9-1.1,88.7c0,0.5,0.4,1,1,1
		c22.5,1,48,1.2,69.5,1.2c27,0,47.7-0.4,48.1-0.4c0.5,0,1-0.4,1-1c2-53.4,0.7-88.7,0.7-89.1C130.1,16.5,129.7,16.1,129.1,16.1z
		 M54.4,73.3v-5h14.1v5h-3.8v19.8h-6.4V73.3H54.4z M50.8,55.3V30.6h6.4v24.8L50.8,55.3L50.8,55.3z M68.3,55.3L65,44v11.3h-5.4V30.6
		H65l3.6,11.1V30.6H74v24.8L68.3,55.3L68.3,55.3z M76.3,68.3c0.8,6.8,1.4,12.6,1.7,17.3c0.3-4.8,0.7-9,1.1-12.7l0.4-4.6h6.8L83,93.1
		h-9.8l-3.7-24.8H76.3z M85.6,30.6h6l-3.7,11.2l4,13.6h-6.7l-2.6-10.6v10.6h-6.4V30.6h6.4v9.6L85.6,30.6z M99.9,51.2
		c0.1,0.3,0.4,0.5,0.7,0.5c0.4,0,0.7-0.2,0.8-0.5c0.1-0.3,0.2-1.1,0.2-2.3V30.6h6.4v16.5c0,1.9-0.1,3.2-0.2,4s-0.5,1.5-1.1,2.3
		s-1.4,1.4-2.4,1.8c-1,0.4-2.1,0.6-3.5,0.6c-1.5,0-2.8-0.2-3.9-0.7s-2-1.1-2.5-1.9s-0.9-1.6-1-2.5s-0.2-2.7-0.2-5.5V30.6h6.4v18.6
		C99.7,50.2,99.8,50.9,99.9,51.2z M124.2,39.7c0,1.6-0.2,2.7-0.5,3.5s-0.9,1.3-1.8,1.7s-2,0.6-3.4,0.6h-1.7v10h-6.4V30.6h6.5
		c1.8,0,3.1,0.1,4,0.4s1.7,0.7,2.1,1.2c0.5,0.5,0.8,1.2,1,1.9c0.2,0.7,0.3,1.9,0.3,3.4L124.2,39.7L124.2,39.7z M47.6,43.7
		c0.4,0.5,0.7,1,0.8,1.5s0.2,1.7,0.2,3.7v6.5h-6v-8.2c0-1.3-0.1-2.1-0.3-2.5c-0.2-0.3-0.8-0.5-1.6-0.5v11.2h-6.4V30.6h4.6
		c3,0,5.1,0.1,6.2,0.4s2,0.8,2.6,1.8c0.7,1,1,2.5,1,4.6c0,1.9-0.2,3.2-0.7,3.9s-1.4,1.1-2.8,1.2C46.3,42.7,47.1,43.2,47.6,43.7z
		 M31.9,39.3V48c0,2.2-0.1,3.7-0.3,4.5c-0.2,0.8-0.6,1.3-1.1,1.8c-0.5,0.4-1.2,0.7-1.9,0.9c-0.8,0.2-1.9,0.3-3.5,0.3H17V30.6h4.8
		c3.1,0,5.2,0.1,6.3,0.4c1.1,0.3,1.9,0.8,2.5,1.4c0.6,0.7,0.9,1.4,1.1,2.2S31.9,37,31.9,39.3z"/>
	<path class="st1" d="M29.7,117c-14.1,0-24.2,0-24.2,0s-1.5,10.2,9.7,10.2c10.7,0,28.7,0,30,0v-3C44.8,122.8,42.1,117,29.7,117z"/>
	<path class="st1" d="M124.5,127.2c11.1,0,9.7-10.2,9.7-10.2s-10.1,0-24.2,0c-12.7,0-15.2,6-15.6,7.2v2.9
		C95.6,127.2,113.8,127.2,124.5,127.2z"/>
	<path d="M94.5,129.8v-0.3v-2.4v-2.9v-2.8H45.2v2.7v3v2.4v0.3H94.5z M79.7,126h1.6v1.6h-1.6V126z M76.8,125.9h1.6v1.6h-1.6V125.9z
		 M63.3,123.8h6.9v1.6h-6.9C63.3,125.4,63.3,123.8,63.3,123.8z M47.5,123.7h14.7v1.7H47.5V123.7z"/>
	<rect x="47.5" y="123.7" class="st2" width="14.7" height="1.7"/>
	<rect x="76.8" y="125.9" class="st2" width="1.6" height="1.6"/>
	<rect x="79.7" y="126" class="st2" width="1.6" height="1.6"/>
	<rect x="63.3" y="123.8" class="st3" width="6.9" height="1.6"/>
	<path class="st0" d="M28.2,31c-1.1-0.3-3.2-0.4-6.3-0.4h-4.8v24.8h8.1c1.5,0,2.7-0.1,3.5-0.3s1.4-0.5,1.9-0.9s0.9-1,1.1-1.8
		c0.2-0.7,0.3-2.2,0.3-4.5v-8.7c0-2.3-0.1-3.9-0.2-4.7c-0.1-0.8-0.5-1.5-1.1-2.2C30.1,31.8,29.3,31.3,28.2,31z M25.5,47.5
		c0,1.7-0.1,2.7-0.3,3c-0.2,0.4-0.8,0.6-1.7,0.6V34.8c0.7,0,1.2,0.1,1.4,0.2c0.3,0.1,0.4,0.4,0.5,0.7c0.1,0.3,0.1,1,0.1,2.2V47.5z"
		/>
	<path class="st0" d="M47.8,41.2c0.5-0.7,0.7-2,0.7-3.9c0-2.1-0.3-3.6-1-4.6s-1.6-1.6-2.6-1.8s-3.1-0.4-6.2-0.4h-4.6v24.8h6.4V44.2
		c0.9,0,1.4,0.2,1.6,0.5c0.2,0.3,0.3,1.1,0.3,2.5v8.2h6v-6.5c0-2-0.1-3.2-0.2-3.7s-0.4-0.9-0.8-1.5c-0.4-0.5-1.3-1-2.6-1.3
		C46.4,42.3,47.3,41.9,47.8,41.2z M42.6,38.1c0,1.1-0.1,1.7-0.4,1.9c-0.3,0.2-0.8,0.3-1.5,0.3v-5.5c0.7,0,1.3,0.1,1.5,0.4
		c0.3,0.2,0.4,0.8,0.4,1.5V38.1z"/>
	<rect x="50.8" y="30.6" class="st0" width="6.4" height="24.8"/>
	<polygon class="st0" points="74,30.6 68.6,30.6 68.6,41.7 65,30.6 59.6,30.6 59.6,55.3 65,55.3 65,44.1 68.3,55.3 74,55.3 	"/>
	<polygon class="st0" points="76.3,30.6 76.3,55.3 82.8,55.3 82.8,44.7 85.4,55.3 92,55.3 88,41.8 91.7,30.6 85.6,30.6 82.8,40.2 
		82.8,30.6 	"/>
	<path class="st0" d="M93.3,30.6v14.7c0,2.8,0.1,4.6,0.2,5.5s0.4,1.7,1,2.5s1.4,1.4,2.5,1.9s2.4,0.7,3.9,0.7c1.3,0,2.5-0.2,3.5-0.6
		c1-0.4,1.8-1,2.4-1.8s1-1.6,1.1-2.3c0.1-0.8,0.2-2.1,0.2-4V30.6h-6.4v18.2c0,1.2-0.1,2-0.2,2.3s-0.4,0.5-0.8,0.5s-0.6-0.2-0.7-0.5
		s-0.2-1-0.2-2.1V30.6H93.3z"/>
	<path class="st0" d="M123,32.2c-0.5-0.5-1.2-0.9-2.1-1.2s-2.3-0.4-4-0.4h-6.5v24.8h6.4v-10h1.7c1.4,0,2.5-0.2,3.4-0.6
		c0.9-0.4,1.5-0.9,1.8-1.7s0.5-1.9,0.5-3.5v-2.2c0-1.5-0.1-2.7-0.3-3.4C123.8,33.3,123.4,32.7,123,32.2z M118.8,38.9
		c0,0.9-0.1,1.5-0.3,1.8c-0.2,0.3-0.6,0.4-1.2,0.4c-0.1,0-0.3,0-0.5,0v-6.3c0.8,0,1.4,0.1,1.7,0.4c0.3,0.3,0.4,0.8,0.4,1.7
		L118.8,38.9L118.8,38.9z"/>
	<polygon class="st0" points="64.7,93.1 64.7,73.3 68.5,73.3 68.5,68.3 54.4,68.3 54.4,73.3 58.2,73.3 58.2,93.1 	"/>
	<path class="st0" d="M83,93.1l3.3-24.8h-6.8l-0.4,4.6c-0.4,3.7-0.7,7.9-1.1,12.7c-0.3-4.7-0.9-10.5-1.7-17.3h-6.8l3.7,24.8H83z"/>
	<rect x="51.9" y="118.8" class="st1" width="5.6" height="1"/>
	<rect x="59.2" y="118.8" class="st1" width="3.6" height="1"/>
	<rect x="78" y="118.9" class="st1" width="4.4" height="1"/>
	<rect x="84.1" y="118.8" class="st1" width="4.9" height="1"/>
</g>
</svg>
