<svg xmlns="http://www.w3.org/2000/svg" xmlns:xlink="http://www.w3.org/1999/xlink" viewBox="0 0 1920 1080"><defs><style>.cls-1{isolation:isolate;}.cls-2{fill:#d97e32;}.cls-3{fill:#ef9d60;}.cls-4{fill:#732f2e;}.cls-5{fill:#471211;}.cls-6{fill:#414242;}.cls-17,.cls-46,.cls-47,.cls-55,.cls-56,.cls-58,.cls-59,.cls-6,.cls-61,.cls-62,.cls-63,.cls-65,.cls-66,.cls-67,.cls-8{fill-rule:evenodd;}.cls-34,.cls-48,.cls-52,.cls-7,.cls-9{mix-blend-mode:multiply;}.cls-7{opacity:0.2;}.cls-8{fill:#df9253;}.cls-10{fill:#d1d3d4;}.cls-11,.cls-17{fill:#fff;}.cls-12{fill:#939598;}.cls-13{fill:#58595b;}.cls-14{fill:#424244;}.cls-15{fill:#282828;}.cls-16{fill:#a06b47;}.cls-18{fill:url(#linear-gradient);}.cls-19{fill:#231f20;}.cls-20{fill:#414042;}.cls-21{fill:url(#linear-gradient-2);}.cls-22{fill:#f4f4f4;}.cls-23{fill:#354951;}.cls-24{fill:#31424a;}.cls-25{fill:#fccc80;}.cls-26{fill:#e9aa56;}.cls-27{fill:#55707b;}.cls-28{fill:#455a66;}.cls-29{fill:#37474f;}.cls-30{fill:#002538;}.cls-31,.cls-48{fill:#f8a268;}.cls-32{fill:#e98c4d;}.cls-33,.cls-34,.cls-47{fill:#f5b7ac;}.cls-34{opacity:0.4;}.cls-35{fill:#0e3441;}.cls-36{fill:#78361a;}.cls-37{fill:#b51f38;}.cls-38{fill:#d37637;}.cls-39{fill:#48341c;}.cls-40{fill:#705338;}.cls-41{fill:#999475;}.cls-42{fill:#841b22;}.cls-43{fill:#e76c24;}.cls-44,.cls-68{fill:#e4edf8;}.cls-45{fill:#f48c61;}.cls-46,.cls-59{fill:#f4e1e3;}.cls-48{opacity:0.5;}.cls-49{fill:#f7d5d0;}.cls-50{fill:#8b5e3c;}.cls-51{fill:#7f5538;}.cls-52{fill:#e6e7e8;}.cls-53,.cls-54{fill:none;stroke-linecap:square;stroke-miterlimit:10;stroke-width:6px;}.cls-53{stroke:#754c29;}.cls-54{stroke:#a97c50;}.cls-55{fill:#8a3023;stroke:#744460;stroke-miterlimit:22.93;stroke-width:0.22px;}.cls-56{fill:#f1f2f2;}.cls-57,.cls-58{fill:#fffffd;}.cls-59{opacity:0.6;}.cls-60,.cls-62{fill:#742331;}.cls-61{fill:#f09584;}.cls-63{fill:#641323;}.cls-64,.cls-65{fill:#4a1736;}.cls-66{fill:#997c2e;}.cls-67{fill:#ffcc03;}.cls-68{opacity:0.1;}</style><linearGradient id="linear-gradient" x1="754" y1="35.69" x2="754" y2="397.3" gradientUnits="userSpaceOnUse"><stop offset="0" stop-color="#fff"/><stop offset="0.17" stop-color="#fff" stop-opacity="0.78"/><stop offset="0.39" stop-color="#fff" stop-opacity="0.51"/><stop offset="0.6" stop-color="#fff" stop-opacity="0.29"/><stop offset="0.78" stop-color="#fff" stop-opacity="0.13"/><stop offset="0.92" stop-color="#fff" stop-opacity="0.04"/><stop offset="1" stop-color="#fff" stop-opacity="0"/></linearGradient><linearGradient id="linear-gradient-2" x1="1195.43" y1="35.69" x2="1195.43" y2="397.3" xlink:href="#linear-gradient"/></defs><g class="cls-1"><g id="Layer_1" data-name="Layer 1"><rect class="cls-2" width="1920" height="1080"/><rect class="cls-3" y="2.78" width="1920" height="794.81"/><path class="cls-4" d="M864.68,192.34c-3.47-4.38-8.13-7.69-11.62-12.12-4.08-5.17-7.35-11.26-7.58-17.94-.27-7.54,0-15.08,0-22.62h.9v-10.8h-14v10.8h.9c0,7.54.23,15.08,0,22.62-.24,6.68-3.5,12.77-7.59,17.94-3.49,4.43-8.14,7.74-11.62,12.12-6,7.49-7.3,18.1-5.41,27.28,2.85,13.89,17,22.8,30.78,22.8s27.93-8.91,30.78-22.8C872,210.44,870.64,199.83,864.68,192.34Z" transform="translate(0)"/><path class="cls-4" d="M789.84,162c-2-1.6-2.4-11.23-2.4-11.23h2.4l-1.47-10.69a1.1,1.1,0,0,0-1.09-.95H771.54a1.1,1.1,0,0,0-1.09.95L769,150.76h2.41S771,160.39,769,162s-12.44,1.61-12.44,9.23v68.45a1.09,1.09,0,0,0,.94,1.1c3.35.44,14.8,1.87,21.93,1.87s18.59-1.43,21.93-1.87a1.09,1.09,0,0,0,.94-1.1V171.22C802.28,163.6,791.85,163.6,789.84,162Z" transform="translate(0)"/><path class="cls-4" d="M910.61,162c-2-1.6-2.41-11.23-2.41-11.23h2.41l-1.47-10.69a1.11,1.11,0,0,0-1.1-.95H892.31a1.09,1.09,0,0,0-1.09.95l-1.48,10.69h2.41s-.4,9.63-2.41,11.23-12.44,1.61-12.44,9.23v68.45a1.1,1.1,0,0,0,1,1.1c3.34.44,14.79,1.87,21.93,1.87s18.58-1.43,21.92-1.87a1.1,1.1,0,0,0,.95-1.1V171.22C923.05,163.6,912.62,163.6,910.61,162Z" transform="translate(0)"/><path class="cls-4" d="M1047.22,162c-2-1.6-2.4-11.23-2.4-11.23h2.4l-1.47-10.69a1.1,1.1,0,0,0-1.09-.95h-15.74a1.1,1.1,0,0,0-1.09.95l-1.47,10.69h2.41s-.41,9.63-2.41,11.23-12.44,1.61-12.44,9.23v68.45a1.1,1.1,0,0,0,.94,1.1c3.35.44,14.8,1.87,21.93,1.87s18.59-1.43,21.93-1.87a1.09,1.09,0,0,0,.94-1.1V171.22C1059.66,163.6,1049.23,163.6,1047.22,162Z" transform="translate(0)"/><path class="cls-4" d="M734.46,154.75V123.67a1.34,1.34,0,0,1,.63-1.13,2.64,2.64,0,0,0,1.24-2.24v-5.08H723.24v5.08a2.64,2.64,0,0,0,1.24,2.24,1.34,1.34,0,0,1,.63,1.13v31.08s-7.72,7.25-7.72,14.5V238a1.87,1.87,0,0,0,1.87,1.87h21a1.87,1.87,0,0,0,1.87-1.87V169.25C742.18,162,734.46,154.75,734.46,154.75Z" transform="translate(0)"/><path class="cls-4" d="M958.06,176.87l-6.75-7.58a12,12,0,0,1-3-7.95v-24H951a1.19,1.19,0,0,0,1.2-1.19v-10a1,1,0,0,0-1-1H937.7a1,1,0,0,0-1,1v10a1.19,1.19,0,0,0,1.19,1.19h2.67v24a12,12,0,0,1-3,7.95l-6.76,7.58a7.21,7.21,0,0,0-1.82,4.78v57.11a.82.82,0,0,0,.82.82h29.31a.82.82,0,0,0,.81-.82V181.65A7.21,7.21,0,0,0,958.06,176.87Z" transform="translate(0)"/><path class="cls-4" d="M1000.69,176.87l-6.76-7.58a12,12,0,0,1-3-7.95v-24h2.68a1.19,1.19,0,0,0,1.19-1.19v-10a1,1,0,0,0-1-1H980.32a1,1,0,0,0-1,1v10a1.19,1.19,0,0,0,1.2,1.19h2.67v24a12,12,0,0,1-3,7.95l-6.75,7.58a7.21,7.21,0,0,0-1.82,4.78v57.11a.82.82,0,0,0,.81.82h29.31a.82.82,0,0,0,.82-.82V181.65A7.21,7.21,0,0,0,1000.69,176.87Z" transform="translate(0)"/><path class="cls-4" d="M701.43,197.81c-7.51-7.42-12.51-17.41-12.47-28.06,0-8,0-15.93,0-23.89h.82v-4.15a.42.42,0,0,0-.42-.43H678.44a.42.42,0,0,0-.42.43v4.15h.82c0,8,0,15.92,0,23.89,0,10.65-5,20.64-12.47,28.06a10.09,10.09,0,0,0-3,8.06c.87,9.72,3.09,30.47,6.56,34.61h27.88c3.48-4.14,5.69-24.89,6.56-34.61A10.09,10.09,0,0,0,701.43,197.81Z" transform="translate(0)"/><path class="cls-4" d="M688.53,145.26h-9.09V133.87a1.72,1.72,0,0,1,1.73-1.73h5.62a1.73,1.73,0,0,1,1.74,1.73Z" transform="translate(0)"/><path class="cls-5" d="M928.67,190.47c-3.48-4.38-8.13-7.69-11.62-12.11-4.08-5.18-7.35-11.27-7.58-18-.27-7.53,0-15.08,0-22.62h.9V127h-14v10.8h.9c0,7.54.22,15.09,0,22.62-.24,6.68-3.5,12.77-7.59,18-3.49,4.42-8.14,7.73-11.62,12.11-6,7.5-7.3,18.11-5.41,27.29,2.85,13.89,17,22.8,30.78,22.8s27.92-8.91,30.78-22.8C936,208.58,934.63,198,928.67,190.47Z" transform="translate(0)"/><path class="cls-5" d="M853.83,160.13c-2-1.61-2.41-11.24-2.41-11.24h2.41l-1.47-10.68a1.11,1.11,0,0,0-1.09-1H835.53a1.11,1.11,0,0,0-1.09,1L833,148.89h2.4s-.4,9.63-2.4,11.24-12.44,1.6-12.44,9.22v68.46a1.08,1.08,0,0,0,.94,1.09c3.34.44,14.79,1.88,21.93,1.88s18.58-1.44,21.93-1.88a1.09,1.09,0,0,0,.94-1.09V169.35C866.27,161.73,855.84,161.73,853.83,160.13Z" transform="translate(0)"/><path class="cls-5" d="M974.6,160.13c-2-1.61-2.41-11.24-2.41-11.24h2.41l-1.48-10.68a1.1,1.1,0,0,0-1.09-1H956.3a1.1,1.1,0,0,0-1.09,1l-1.48,10.68h2.41s-.4,9.63-2.41,11.24-12.44,1.6-12.44,9.22v68.46a1.09,1.09,0,0,0,1,1.09c3.34.44,14.79,1.88,21.93,1.88s18.58-1.44,21.92-1.88a1.09,1.09,0,0,0,.95-1.09V169.35C987,161.73,976.6,161.73,974.6,160.13Z" transform="translate(0)"/><path class="cls-5" d="M798.45,152.88V121.81a1.33,1.33,0,0,1,.63-1.13,2.66,2.66,0,0,0,1.24-2.25v-5.08h-13.1v5.08a2.67,2.67,0,0,0,1.25,2.25,1.33,1.33,0,0,1,.63,1.13v31.07s-7.72,7.25-7.72,14.5v68.77a1.86,1.86,0,0,0,1.87,1.87h21a1.87,1.87,0,0,0,1.87-1.87V167.38C806.17,160.13,798.45,152.88,798.45,152.88Z" transform="translate(0)"/><path class="cls-5" d="M1037.52,175l-6.75-7.59a12,12,0,0,1-3-7.95V135.53h2.67a1.2,1.2,0,0,0,1.2-1.2v-10a1,1,0,0,0-1-1h-13.44a1,1,0,0,0-1,1v10a1.19,1.19,0,0,0,1.19,1.2H1020v23.94a12,12,0,0,1-3,7.95l-6.76,7.59a7.19,7.19,0,0,0-1.82,4.78V236.9a.81.81,0,0,0,.82.81h29.31a.81.81,0,0,0,.81-.81V179.79A7.19,7.19,0,0,0,1037.52,175Z" transform="translate(0)"/><path class="cls-5" d="M765.42,195.94c-7.51-7.42-12.51-17.4-12.47-28.06,0-8,0-15.92,0-23.89h.82v-4.15a.42.42,0,0,0-.42-.42H742.43a.42.42,0,0,0-.42.42V144h.82c0,8,0,15.93,0,23.89,0,10.66-5,20.64-12.47,28.06a10.12,10.12,0,0,0-3,8.07c.87,9.71,3.08,30.47,6.56,34.61h27.88c3.47-4.14,5.69-24.9,6.56-34.61A10.12,10.12,0,0,0,765.42,195.94Z" transform="translate(0)"/><path class="cls-5" d="M752.52,143.39h-9.09V132a1.73,1.73,0,0,1,1.73-1.74h5.62a1.74,1.74,0,0,1,1.74,1.74Z" transform="translate(0)"/><path class="cls-4" d="M1171.32,162c-2-1.6-2.41-11.23-2.41-11.23h2.41l-1.48-10.69a1.09,1.09,0,0,0-1.09-.95H1153a1.09,1.09,0,0,0-1.09.95l-1.48,10.69h2.41s-.4,9.63-2.41,11.23S1138,163.6,1138,171.22v68.45a1.1,1.1,0,0,0,1,1.1c3.34.44,14.79,1.87,21.92,1.87s18.59-1.43,21.93-1.87a1.1,1.1,0,0,0,1-1.1V171.22C1183.76,163.6,1173.32,163.6,1171.32,162Z" transform="translate(0)"/><path class="cls-4" d="M1115.94,154.75V123.67a1.33,1.33,0,0,1,.62-1.13,2.63,2.63,0,0,0,1.25-2.24v-5.08h-13.1v5.08a2.64,2.64,0,0,0,1.24,2.24,1.34,1.34,0,0,1,.63,1.13v31.08s-7.72,7.25-7.72,14.5V238a1.87,1.87,0,0,0,1.87,1.87h21.06a1.87,1.87,0,0,0,1.87-1.87V169.25C1123.66,162,1115.94,154.75,1115.94,154.75Z" transform="translate(0)"/><path class="cls-4" d="M1082.91,197.81c-7.51-7.42-12.52-17.41-12.47-28.06,0-8,0-15.93,0-23.89h.81v-4.15a.42.42,0,0,0-.42-.43h-10.91a.42.42,0,0,0-.42.43v4.15h.81c0,8,0,15.92,0,23.89,0,10.65-5,20.64-12.47,28.06a10,10,0,0,0-3,8.06c.86,9.72,3.08,30.47,6.56,34.61h27.87c3.48-4.14,5.7-24.89,6.56-34.61A10,10,0,0,0,1082.91,197.81Z" transform="translate(0)"/><path class="cls-4" d="M1070,145.26h-9.09V133.87a1.73,1.73,0,0,1,1.74-1.73h5.62a1.73,1.73,0,0,1,1.73,1.73Z" transform="translate(0)"/><path class="cls-5" d="M1179.93,152.88V121.81a1.32,1.32,0,0,1,.62-1.13,2.65,2.65,0,0,0,1.25-2.25v-5.08h-13.1v5.08a2.66,2.66,0,0,0,1.24,2.25,1.33,1.33,0,0,1,.63,1.13v31.07s-7.72,7.25-7.72,14.5v68.77a1.87,1.87,0,0,0,1.87,1.87h21a1.86,1.86,0,0,0,1.87-1.87V167.38C1187.64,160.13,1179.93,152.88,1179.93,152.88Z" transform="translate(0)"/><path class="cls-5" d="M1146.89,195.94c-7.5-7.42-12.51-17.4-12.46-28.06,0-8,0-15.92,0-23.89h.81v-4.15a.42.42,0,0,0-.42-.42h-10.91a.42.42,0,0,0-.43.42V144h.82c0,8,0,15.93,0,23.89,0,10.66-5,20.64-12.47,28.06a10.08,10.08,0,0,0-3,8.07c.86,9.71,3.08,30.47,6.56,34.61h27.87c3.48-4.14,5.7-24.9,6.56-34.61A10.06,10.06,0,0,0,1146.89,195.94Z" transform="translate(0)"/><path class="cls-5" d="M1134,143.39h-9.09V132a1.74,1.74,0,0,1,1.74-1.74h5.61A1.74,1.74,0,0,1,1134,132Z" transform="translate(0)"/><rect class="cls-2" x="654.74" y="237.71" width="543.91" height="8.49"/><path class="cls-4" d="M864.68,339.08c-3.47-4.38-8.13-7.69-11.62-12.11-4.08-5.18-7.35-11.27-7.58-18-.27-7.54,0-15.08,0-22.62h.9V275.6h-14v10.8h.9c0,7.54.23,15.08,0,22.62-.24,6.68-3.5,12.77-7.59,18-3.49,4.42-8.14,7.73-11.62,12.11-6,7.5-7.3,18.1-5.41,27.29,2.85,13.89,17,22.8,30.78,22.8s27.93-8.91,30.78-22.8C872,357.18,870.64,346.58,864.68,339.08Z" transform="translate(0)"/><path class="cls-4" d="M789.84,308.73c-2-1.6-2.4-11.23-2.4-11.23h2.4l-1.47-10.69a1.11,1.11,0,0,0-1.09-.95H771.54a1.11,1.11,0,0,0-1.09.95L769,297.5h2.41s-.41,9.63-2.41,11.23-12.44,1.61-12.44,9.23v68.46a1.08,1.08,0,0,0,.94,1.09c3.35.44,14.8,1.88,21.93,1.88S798,388,801.34,387.51a1.08,1.08,0,0,0,.94-1.09V318C802.28,310.34,791.85,310.34,789.84,308.73Z" transform="translate(0)"/><path class="cls-4" d="M910.61,308.73c-2-1.6-2.41-11.23-2.41-11.23h2.41l-1.47-10.69a1.12,1.12,0,0,0-1.1-.95H892.31a1.1,1.1,0,0,0-1.09.95l-1.48,10.69h2.41s-.4,9.63-2.41,11.23S877.3,310.34,877.3,318v68.46a1.09,1.09,0,0,0,1,1.09c3.34.44,14.79,1.88,21.93,1.88s18.58-1.44,21.92-1.88a1.09,1.09,0,0,0,.95-1.09V318C923.05,310.34,912.62,310.34,910.61,308.73Z" transform="translate(0)"/><path class="cls-4" d="M1047.22,308.73c-2-1.6-2.4-11.23-2.4-11.23h2.4l-1.47-10.69a1.11,1.11,0,0,0-1.09-.95h-15.74a1.11,1.11,0,0,0-1.09.95l-1.47,10.69h2.41s-.41,9.63-2.41,11.23-12.44,1.61-12.44,9.23v68.46a1.09,1.09,0,0,0,.94,1.09c3.35.44,14.8,1.88,21.93,1.88s18.59-1.44,21.93-1.88a1.08,1.08,0,0,0,.94-1.09V318C1059.66,310.34,1049.23,310.34,1047.22,308.73Z" transform="translate(0)"/><path class="cls-4" d="M734.46,301.49V270.42a1.33,1.33,0,0,1,.63-1.13,2.67,2.67,0,0,0,1.24-2.25V262H723.24V267a2.67,2.67,0,0,0,1.24,2.25,1.33,1.33,0,0,1,.63,1.13v31.07s-7.72,7.25-7.72,14.5v68.77a1.87,1.87,0,0,0,1.87,1.87h21a1.87,1.87,0,0,0,1.87-1.87V316C742.18,308.74,734.46,301.49,734.46,301.49Z" transform="translate(0)"/><path class="cls-4" d="M958.06,323.62,951.31,316a12,12,0,0,1-3-7.95V284.14H951a1.2,1.2,0,0,0,1.2-1.2v-10a1,1,0,0,0-1-1H937.7a1,1,0,0,0-1,1v10a1.19,1.19,0,0,0,1.19,1.2h2.67v23.94a12,12,0,0,1-3,7.95l-6.76,7.59a7.17,7.17,0,0,0-1.82,4.78v57.11a.82.82,0,0,0,.82.81h29.31a.81.81,0,0,0,.81-.81V328.4A7.17,7.17,0,0,0,958.06,323.62Z" transform="translate(0)"/><path class="cls-4" d="M1000.69,323.62,993.93,316a12,12,0,0,1-3-7.95V284.14h2.68a1.19,1.19,0,0,0,1.19-1.2v-10a1,1,0,0,0-1-1H980.32a1,1,0,0,0-1,1v10a1.2,1.2,0,0,0,1.2,1.2h2.67v23.94a12,12,0,0,1-3,7.95l-6.75,7.59a7.17,7.17,0,0,0-1.82,4.78v57.11a.81.81,0,0,0,.81.81h29.31a.82.82,0,0,0,.82-.81V328.4A7.17,7.17,0,0,0,1000.69,323.62Z" transform="translate(0)"/><path class="cls-4" d="M701.43,344.55c-7.51-7.42-12.51-17.41-12.47-28.06,0-8,0-15.93,0-23.89h.82v-4.15a.42.42,0,0,0-.42-.42H678.44a.42.42,0,0,0-.42.42v4.15h.82c0,8,0,15.93,0,23.89,0,10.65-5,20.64-12.47,28.06a10.11,10.11,0,0,0-3,8.07c.87,9.71,3.09,30.46,6.56,34.6h27.88c3.48-4.14,5.69-24.89,6.56-34.6A10.11,10.11,0,0,0,701.43,344.55Z" transform="translate(0)"/><path class="cls-4" d="M688.53,292h-9.09V280.62a1.73,1.73,0,0,1,1.73-1.74h5.62a1.74,1.74,0,0,1,1.74,1.74Z" transform="translate(0)"/><path class="cls-5" d="M928.67,337.22c-3.48-4.38-8.13-7.69-11.62-12.12-4.08-5.17-7.35-11.26-7.58-17.94-.27-7.54,0-15.08,0-22.62h.9v-10.8h-14v10.8h.9c0,7.54.22,15.08,0,22.62-.24,6.68-3.5,12.77-7.59,17.94-3.49,4.43-8.14,7.74-11.62,12.12-6,7.49-7.3,18.1-5.41,27.28,2.85,13.89,17,22.8,30.78,22.8s27.92-8.91,30.78-22.8C936,355.32,934.63,344.71,928.67,337.22Z" transform="translate(0)"/><path class="cls-5" d="M853.83,306.87c-2-1.6-2.41-11.24-2.41-11.24h2.41L852.36,285a1.1,1.1,0,0,0-1.09-.95H835.53a1.1,1.1,0,0,0-1.09.95L833,295.63h2.4s-.4,9.64-2.4,11.24-12.44,1.61-12.44,9.23v68.45a1.08,1.08,0,0,0,.94,1.09c3.34.45,14.79,1.88,21.93,1.88s18.58-1.43,21.93-1.88a1.08,1.08,0,0,0,.94-1.09V316.1C866.27,308.48,855.84,308.48,853.83,306.87Z" transform="translate(0)"/><path class="cls-5" d="M974.6,306.87c-2-1.6-2.41-11.24-2.41-11.24h2.41L973.12,285A1.09,1.09,0,0,0,972,284H956.3a1.09,1.09,0,0,0-1.09.95l-1.48,10.68h2.41s-.4,9.64-2.41,11.24-12.44,1.61-12.44,9.23v68.45a1.08,1.08,0,0,0,1,1.09c3.34.45,14.79,1.88,21.93,1.88s18.58-1.43,21.92-1.88a1.08,1.08,0,0,0,.95-1.09V316.1C987,308.48,976.6,308.48,974.6,306.87Z" transform="translate(0)"/><path class="cls-5" d="M798.45,299.63V268.55a1.34,1.34,0,0,1,.63-1.13,2.64,2.64,0,0,0,1.24-2.24V260.1h-13.1v5.08a2.65,2.65,0,0,0,1.25,2.24,1.34,1.34,0,0,1,.63,1.13v31.08s-7.72,7.25-7.72,14.5V382.9a1.87,1.87,0,0,0,1.87,1.87h21a1.87,1.87,0,0,0,1.87-1.87V314.13C806.17,306.88,798.45,299.63,798.45,299.63Z" transform="translate(0)"/><path class="cls-5" d="M1037.52,321.75l-6.75-7.58a12,12,0,0,1-3-7.95v-24h2.67a1.2,1.2,0,0,0,1.2-1.2v-10a1,1,0,0,0-1-1h-13.44a1,1,0,0,0-1,1v10a1.19,1.19,0,0,0,1.19,1.2H1020v24a12,12,0,0,1-3,7.95l-6.76,7.58a7.21,7.21,0,0,0-1.82,4.78v57.11a.82.82,0,0,0,.82.82h29.31a.82.82,0,0,0,.81-.82V326.53A7.21,7.21,0,0,0,1037.52,321.75Z" transform="translate(0)"/><path class="cls-5" d="M765.42,342.69c-7.51-7.42-12.51-17.41-12.47-28.06,0-8,0-15.93,0-23.89h.82v-4.15a.42.42,0,0,0-.42-.43H742.43a.42.42,0,0,0-.42.43v4.15h.82c0,8,0,15.92,0,23.89,0,10.65-5,20.64-12.47,28.06a10.09,10.09,0,0,0-3,8.06c.87,9.71,3.08,30.47,6.56,34.61h27.88c3.47-4.14,5.69-24.9,6.56-34.61A10.09,10.09,0,0,0,765.42,342.69Z" transform="translate(0)"/><path class="cls-5" d="M752.52,290.14h-9.09V278.75a1.72,1.72,0,0,1,1.73-1.73h5.62a1.73,1.73,0,0,1,1.74,1.73Z" transform="translate(0)"/><path class="cls-4" d="M1171.32,308.73c-2-1.6-2.41-11.23-2.41-11.23h2.41l-1.48-10.69a1.1,1.1,0,0,0-1.09-.95H1153a1.1,1.1,0,0,0-1.09.95l-1.48,10.69h2.41s-.4,9.63-2.41,11.23S1138,310.34,1138,318v68.46a1.09,1.09,0,0,0,1,1.09c3.34.44,14.79,1.88,21.92,1.88s18.59-1.44,21.93-1.88a1.09,1.09,0,0,0,1-1.09V318C1183.76,310.34,1173.32,310.34,1171.32,308.73Z" transform="translate(0)"/><path class="cls-4" d="M1115.94,301.49V270.42a1.32,1.32,0,0,1,.62-1.13,2.66,2.66,0,0,0,1.25-2.25V262h-13.1V267a2.67,2.67,0,0,0,1.24,2.25,1.33,1.33,0,0,1,.63,1.13v31.07s-7.72,7.25-7.72,14.5v68.77a1.87,1.87,0,0,0,1.87,1.87h21.06a1.87,1.87,0,0,0,1.87-1.87V316C1123.66,308.74,1115.94,301.49,1115.94,301.49Z" transform="translate(0)"/><path class="cls-4" d="M1082.91,344.55c-7.51-7.42-12.52-17.41-12.47-28.06,0-8,0-15.93,0-23.89h.81v-4.15a.42.42,0,0,0-.42-.42h-10.91a.42.42,0,0,0-.42.42v4.15h.81c0,8,0,15.93,0,23.89,0,10.65-5,20.64-12.47,28.06a10.07,10.07,0,0,0-3,8.07c.86,9.71,3.08,30.46,6.56,34.6h27.87c3.48-4.14,5.7-24.89,6.56-34.6A10.07,10.07,0,0,0,1082.91,344.55Z" transform="translate(0)"/><path class="cls-4" d="M1070,292h-9.09V280.62a1.74,1.74,0,0,1,1.74-1.74h5.62a1.74,1.74,0,0,1,1.73,1.74Z" transform="translate(0)"/><path class="cls-5" d="M1179.93,299.63V268.55a1.33,1.33,0,0,1,.62-1.13,2.63,2.63,0,0,0,1.25-2.24V260.1h-13.1v5.08a2.64,2.64,0,0,0,1.24,2.24,1.34,1.34,0,0,1,.63,1.13v31.08s-7.72,7.25-7.72,14.5V382.9a1.87,1.87,0,0,0,1.87,1.87h21a1.87,1.87,0,0,0,1.87-1.87V314.13C1187.64,306.88,1179.93,299.63,1179.93,299.63Z" transform="translate(0)"/><path class="cls-5" d="M1146.89,342.69c-7.5-7.42-12.51-17.41-12.46-28.06,0-8,0-15.93,0-23.89h.81v-4.15a.42.42,0,0,0-.42-.43h-10.91a.43.43,0,0,0-.43.43v4.15h.82c0,8,0,15.92,0,23.89,0,10.65-5,20.64-12.47,28.06a10,10,0,0,0-3,8.06c.86,9.71,3.08,30.47,6.56,34.61h27.87c3.48-4.14,5.7-24.9,6.56-34.61A10,10,0,0,0,1146.89,342.69Z" transform="translate(0)"/><path class="cls-5" d="M1134,290.14h-9.09V278.75a1.73,1.73,0,0,1,1.74-1.73h5.61a1.73,1.73,0,0,1,1.74,1.73Z" transform="translate(0)"/><rect class="cls-2" x="654.74" y="384.46" width="543.91" height="8.49"/><path class="cls-6" d="M1600.28,957.87c0,10.2-257.17,18.47-574.41,18.47s-574.42-8.27-574.42-18.47,257.17-18.46,574.42-18.46S1600.28,947.68,1600.28,957.87Z" transform="translate(0)"/><g class="cls-7"><path class="cls-8" d="M1345.38,72.23H1046.65a42,42,0,0,0,0,83.94h37.64a27.86,27.86,0,0,1,0,55.71H948.43a42.08,42.08,0,0,0-42,42h0a42.1,42.1,0,0,0,42,42h326.91a42.09,42.09,0,0,0,42-42h0a42.08,42.08,0,0,0-42-42h1.53a27.86,27.86,0,0,1,0-55.71h68.51a42,42,0,0,0,0-83.94Z" transform="translate(0)"/><path class="cls-8" d="M1001.88,318.56H792.32a43.09,43.09,0,0,1-43-43h0a43.09,43.09,0,0,1,43-43h58a64.74,64.74,0,0,0,0-129.48H389.58a64.74,64.74,0,0,0,0,129.48H495.27a43.08,43.08,0,0,1,43,43h0a43.08,43.08,0,0,1-43,43h2.34a64.74,64.74,0,0,0,0,129.48h504.27a64.74,64.74,0,0,0,0-129.48Z" transform="translate(0)"/><path class="cls-8" d="M1615.43,323.31H1154.65a64.74,64.74,0,1,0,0,129.47h58a43,43,0,0,1,0,85.93H1003.13a64.74,64.74,0,1,0,0,129.48H1507.4a64.74,64.74,0,0,0,0-129.48h2.35a43,43,0,0,1,0-85.93h105.68a64.74,64.74,0,1,0,0-129.47Z" transform="translate(0)"/></g><g class="cls-9"><path class="cls-10" d="M1319.46,309.41c0-.09,0-.1.07-.21,1.25-4.57-1.16-10.66-5.27-13.3a10,10,0,0,0-8.7-1.31c-1.59.6-3.69,2.07-4.66,5.61,0,0,0,0,0,.07.72.22,1.41.45,2.09.67a1.24,1.24,0,0,1,0-.16,5.66,5.66,0,0,1,3.33-4.15,7.77,7.77,0,0,1,6.73,1.11,11,11,0,0,1,4.48,10.2c-4.64-3.28-11.35-6.28-20.83-8.88-2.08-.57-6.65,9.47-10.21,22.42s-4.74,23.92-2.65,24.5c30.85,8.46,38.2-1.06,41.69-13.79C1327.78,324.08,1327.62,316.19,1319.46,309.41Z" transform="translate(0)"/><path class="cls-10" d="M1385.84,309.41c0-.09,0-.1.07-.21,1.25-4.57-1.16-10.66-5.27-13.3a10,10,0,0,0-8.7-1.31c-1.59.6-3.69,2.07-4.66,5.61a.17.17,0,0,0,0,.07l2.09.67,0-.16a5.7,5.7,0,0,1,3.33-4.15,7.78,7.78,0,0,1,6.74,1.11,11,11,0,0,1,4.48,10.2c-4.65-3.28-11.35-6.28-20.83-8.88-2.08-.57-6.66,9.47-10.21,22.42s-4.74,23.92-2.66,24.5c30.86,8.46,38.21-1.06,41.7-13.79C1394.16,324.08,1394,316.19,1385.84,309.41Z" transform="translate(0)"/><path class="cls-10" d="M1452.22,309.41l.07-.21c1.25-4.57-1.17-10.66-5.27-13.3a10,10,0,0,0-8.7-1.31c-1.59.6-3.69,2.07-4.66,5.61l0,.07,2.1.67,0-.16a5.7,5.7,0,0,1,3.33-4.15,7.76,7.76,0,0,1,6.73,1.11,11,11,0,0,1,4.48,10.2c-4.64-3.28-11.35-6.28-20.82-8.88-2.09-.57-6.66,9.47-10.21,22.42s-4.74,23.92-2.66,24.5c30.85,8.46,38.21-1.06,41.7-13.79C1460.54,324.08,1460.37,316.19,1452.22,309.41Z" transform="translate(0)"/><path class="cls-10" d="M1518.6,309.41a1.28,1.28,0,0,1,.07-.21c1.25-4.57-1.17-10.66-5.27-13.3a10,10,0,0,0-8.7-1.31c-1.59.6-3.69,2.07-4.66,5.61l0,.07c.72.22,1.42.45,2.09.67a.75.75,0,0,0,0-.16,5.7,5.7,0,0,1,3.33-4.15,7.76,7.76,0,0,1,6.73,1.11,11,11,0,0,1,4.48,10.2c-4.64-3.28-11.35-6.28-20.82-8.88-2.09-.57-6.66,9.47-10.21,22.42s-4.74,23.92-2.66,24.5c30.85,8.46,38.2-1.06,41.7-13.79C1526.92,324.08,1526.75,316.19,1518.6,309.41Z" transform="translate(0)"/></g><path class="cls-11" d="M1292.62,294.94c-2.09-.57-6.66,9.47-10.21,22.43s-4.75,23.92-2.66,24.49c30.85,8.46,38.2-1.06,41.69-13.79S1322.56,303.16,1292.62,294.94Z" transform="translate(0)"/><path class="cls-12" d="M1293.09,296.59c1.81.49-.71,10.38-4,22.52s-6.21,21.94-8,21.45-.57-10.75,2.76-22.89S1291.28,296.09,1293.09,296.59Z" transform="translate(0)"/><path class="cls-11" d="M1301.44,290.47c-1.59.61-3.68,2.07-4.65,5.62l0,.06c.72.22,1.42.45,2.09.68a.75.75,0,0,1,0-.16,5.7,5.7,0,0,1,3.33-4.16,7.77,7.77,0,0,1,6.73,1.12,11,11,0,0,1,4.48,10.25c.63.49,1.27.89,1.89,1.44a1.13,1.13,0,0,0,.08-.24c1.26-4.57-1.16-10.66-5.26-13.3A10,10,0,0,0,1301.44,290.47Z" transform="translate(0)"/><path class="cls-11" d="M1359,294.94c-2.08-.57-6.65,9.47-10.2,22.43s-4.75,23.92-2.66,24.49c30.85,8.46,38.2-1.06,41.69-13.79S1388.94,303.16,1359,294.94Z" transform="translate(0)"/><path class="cls-12" d="M1359.47,296.59c1.8.49-.71,10.38-4,22.52s-6.21,21.94-8,21.45-.57-10.75,2.76-22.89S1357.66,296.09,1359.47,296.59Z" transform="translate(0)"/><path class="cls-11" d="M1367.82,290.47c-1.59.61-3.68,2.07-4.66,5.62a.13.13,0,0,1,0,.06c.72.22,1.41.45,2.09.68a.75.75,0,0,1,0-.16,5.65,5.65,0,0,1,3.33-4.16,7.77,7.77,0,0,1,6.73,1.12,11,11,0,0,1,4.48,10.25c.63.49,1.27.89,1.89,1.44a2.25,2.25,0,0,0,.08-.24c1.25-4.57-1.16-10.66-5.26-13.3A10,10,0,0,0,1367.82,290.47Z" transform="translate(0)"/><path class="cls-11" d="M1425.37,294.94c-2.08-.57-6.65,9.47-10.2,22.43s-4.75,23.92-2.66,24.49c30.85,8.46,38.2-1.06,41.69-13.79S1455.32,303.16,1425.37,294.94Z" transform="translate(0)"/><path class="cls-12" d="M1425.85,296.59c1.8.49-.71,10.38-4,22.52s-6.22,21.94-8,21.45-.57-10.75,2.76-22.89S1424,296.09,1425.85,296.59Z" transform="translate(0)"/><path class="cls-11" d="M1434.2,290.47c-1.59.61-3.69,2.07-4.66,5.62,0,0,0,0,0,.06.72.22,1.41.45,2.09.68a.75.75,0,0,1,0-.16,5.65,5.65,0,0,1,3.33-4.16,7.77,7.77,0,0,1,6.73,1.12,11,11,0,0,1,4.48,10.25c.63.49,1.27.89,1.89,1.44,0-.13,0-.11.08-.24,1.25-4.57-1.16-10.66-5.27-13.3A10,10,0,0,0,1434.2,290.47Z" transform="translate(0)"/><path class="cls-11" d="M1491.75,294.94c-2.08-.57-6.66,9.47-10.21,22.43s-4.74,23.92-2.66,24.49c30.86,8.46,38.21-1.06,41.7-13.79S1521.7,303.16,1491.75,294.94Z" transform="translate(0)"/><path class="cls-12" d="M1492.23,296.59c1.8.49-.71,10.38-4,22.52s-6.22,21.94-8,21.45-.57-10.75,2.76-22.89S1490.42,296.09,1492.23,296.59Z" transform="translate(0)"/><path class="cls-11" d="M1500.58,290.47c-1.59.61-3.69,2.07-4.66,5.62a.13.13,0,0,0,0,.06c.72.22,1.41.45,2.09.68a.75.75,0,0,1,0-.16,5.66,5.66,0,0,1,3.32-4.16,7.79,7.79,0,0,1,6.74,1.12,11,11,0,0,1,4.47,10.25c.64.49,1.27.89,1.9,1.44l.08-.24c1.25-4.57-1.16-10.66-5.27-13.3A10,10,0,0,0,1500.58,290.47Z" transform="translate(0)"/><rect class="cls-13" x="1242.51" y="276.8" width="315.51" height="8.89" rx="4.36"/><path class="cls-14" d="M1253.65,281.25a6.79,6.79,0,1,0-6.79,6.79A6.79,6.79,0,0,0,1253.65,281.25Z" transform="translate(0)"/><path class="cls-12" d="M1249.88,281.25a3,3,0,1,0-3,3A3,3,0,0,0,1249.88,281.25Z" transform="translate(0)"/><path class="cls-14" d="M1560.05,281.25a6.79,6.79,0,1,0-6.79,6.79A6.79,6.79,0,0,0,1560.05,281.25Z" transform="translate(0)"/><path class="cls-12" d="M1556.28,281.25a3,3,0,1,0-3,3A3,3,0,0,0,1556.28,281.25Z" transform="translate(0)"/><path class="cls-14" d="M1306.26,293.25a.84.84,0,0,1-.84.84h0a.85.85,0,0,1-.84-.84V275.3a.84.84,0,0,1,.84-.84h0a.83.83,0,0,1,.84.84Z" transform="translate(0)"/><path class="cls-14" d="M1372.64,293.25a.84.84,0,0,1-.84.84h0a.85.85,0,0,1-.84-.84V275.3a.84.84,0,0,1,.84-.84h0a.83.83,0,0,1,.84.84Z" transform="translate(0)"/><path class="cls-14" d="M1439,293.25a.85.85,0,0,1-.84.84h0a.85.85,0,0,1-.84-.84V275.3a.84.84,0,0,1,.84-.84h0a.84.84,0,0,1,.84.84Z" transform="translate(0)"/><path class="cls-14" d="M1505.4,293.25a.85.85,0,0,1-.84.84h0a.84.84,0,0,1-.84-.84V275.3a.83.83,0,0,1,.84-.84h0a.84.84,0,0,1,.84.84Z" transform="translate(0)"/><rect class="cls-15" x="429.03" y="149.79" width="193.02" height="221.77" rx="2.05"/><path class="cls-16" d="M620.51,379.78H431.59A10.8,10.8,0,0,1,420.81,369V151.33a10.8,10.8,0,0,1,10.78-10.78H620.51a10.8,10.8,0,0,1,10.78,10.78V369A10.8,10.8,0,0,1,620.51,379.78ZM438.27,362.32H613.83V158H438.27Z" transform="translate(0)"/><path class="cls-11" d="M508,185.93c-.07-2-.14-4.35-.14-6.73h-.07c-.51,2.09-1.19,4.42-1.83,6.34l-2,6.38H501.1l-1.74-6.33c-.54-1.92-1.1-4.25-1.49-6.39h0c-.1,2.21-.17,4.73-.3,6.77l-.29,6.22h-3.42l1-16.37h4.93l1.61,5.47c.51,1.89,1,3.93,1.38,5.85h.07c.46-1.89,1-4,1.56-5.88l1.74-5.44H511l.9,16.37h-3.62Z" transform="translate(0)"/><path class="cls-11" d="M524.47,185.27h-6v3.89h6.73v3H514.73V175.82h10.1v3h-6.39v3.4h6Z" transform="translate(0)"/><path class="cls-11" d="M527.7,192.19V175.82H532l3.4,6a48.79,48.79,0,0,1,2.67,5.61h.07a61.42,61.42,0,0,1-.31-6.82v-4.79h3.4v16.37h-3.89l-3.5-6.31A60.79,60.79,0,0,1,531,180.1l-.07,0c.1,2.16.15,4.47.15,7.14v4.93Z" transform="translate(0)"/><path class="cls-11" d="M548.14,175.82v9.43c0,2.81,1.07,4.25,3,4.25s3-1.36,3-4.25v-9.43h3.69V185c0,5.05-2.55,7.46-6.83,7.46-4.12,0-6.55-2.28-6.55-7.5v-9.14Z" transform="translate(0)"/><path class="cls-11" d="M465,228.08a5.14,5.14,0,1,0,0,10.27C471.12,238.35,471.12,228.08,465,228.08Z" transform="translate(0)"/><path class="cls-11" d="M465,267.48a5.14,5.14,0,1,0,0,10.27C471.12,277.75,471.12,267.48,465,267.48Z" transform="translate(0)"/><path class="cls-11" d="M465,306.69A5.14,5.14,0,1,0,465,317C471.12,317,471.12,306.69,465,306.69Z" transform="translate(0)"/><path class="cls-17" d="M618.87,224a28.81,28.81,0,1,0,28.81,28.81A28.8,28.8,0,0,0,618.87,224Z" transform="translate(0)"/><path class="cls-17" d="M661.58,186.78a10.93,10.93,0,1,0,10.93,10.92A10.92,10.92,0,0,0,661.58,186.78Z" transform="translate(0)"/><path class="cls-17" d="M608,156a8,8,0,1,0,7.94,8A8,8,0,0,0,608,156Z" transform="translate(0)"/><polygon class="cls-18" points="870.6 367.06 637.4 367.06 678.58 151.35 829.43 151.35 870.6 367.06"/><rect class="cls-19" x="752.89" y="1.82" width="2.05" height="45.15"/><path class="cls-20" d="M774.34,58.39V47H733.49V58.39a81.56,81.56,0,0,0-61.09,78.93v15c0,.36,0,.71,0,1.06h163c0-.35,0-.7,0-1.06v-15A81.55,81.55,0,0,0,774.34,58.39Z" transform="translate(0)"/><polygon class="cls-21" points="1312.03 367.06 1078.83 367.06 1120 151.35 1270.85 151.35 1312.03 367.06"/><rect class="cls-19" x="1194.4" y="1.82" width="2.05" height="45.15"/><path class="cls-20" d="M1215.85,58.39V47H1175V58.39a81.55,81.55,0,0,0-61.08,78.93v15c0,.36,0,.71,0,1.06h163c0-.35,0-.7,0-1.06v-15A81.55,81.55,0,0,0,1215.85,58.39Z" transform="translate(0)"/><rect class="cls-22" x="1262.98" y="486.76" width="110.61" height="16.74"/><path class="cls-22" d="M1353.28,323.54a82.57,82.57,0,0,0-35-7.75h0a82.57,82.57,0,0,0-35,7.75l35,88Z" transform="translate(0)"/><path class="cls-23" d="M1283.28,323.54a84.74,84.74,0,0,0-20.3,11.73V487.66l37.8,14.7,17.5-11.13V400.8Z" transform="translate(0)"/><path class="cls-24" d="M1373.58,335.27a84.74,84.74,0,0,0-20.3-11.73l-35,77.26v90.43L1336,502.36l37.54-13.81Z" transform="translate(0)"/><rect class="cls-25" x="1295.8" y="280.61" width="44.97" height="52.57"/><path class="cls-26" d="M1295.8,280.61v28.82a66.9,66.9,0,0,0,45,0V280.61Z" transform="translate(0)"/><rect class="cls-27" x="1307.12" y="324.78" width="22.32" height="22.32" rx="4.02"/><path class="cls-28" d="M1307.15,343.39,1290.08,350a5.51,5.51,0,0,1-7.49-5.14V327.05a5.51,5.51,0,0,1,7.49-5.14l17.07,6.59Z" transform="translate(0)"/><path class="cls-28" d="M1329.41,343.39l17.07,6.59a5.5,5.5,0,0,0,7.48-5.14V327.05a5.5,5.5,0,0,0-7.48-5.14l-17.07,6.59Z" transform="translate(0)"/><path class="cls-29" d="M1293.36,334.56a1.59,1.59,0,1,0,0,3.17h13.76v-3.17Z" transform="translate(0)"/><path class="cls-29" d="M1343.2,334.56a1.59,1.59,0,1,1,0,3.17h-13.76v-3.17Z" transform="translate(0)"/><path class="cls-29" d="M1321.58,358.78a3.3,3.3,0,1,1-3.3-3.3A3.3,3.3,0,0,1,1321.58,358.78Z" transform="translate(0)"/><path class="cls-29" d="M1321.58,380.47a3.3,3.3,0,1,1-3.3-3.3A3.3,3.3,0,0,1,1321.58,380.47Z" transform="translate(0)"/><path class="cls-27" d="M1313,425.38a3.3,3.3,0,1,1-3.3-3.3A3.3,3.3,0,0,1,1313,425.38Z" transform="translate(0)"/><path class="cls-27" d="M1313,453.91a3.3,3.3,0,1,1-3.3-3.3A3.3,3.3,0,0,1,1313,453.91Z" transform="translate(0)"/><path class="cls-27" d="M1313,482.44a3.3,3.3,0,1,1-3.3-3.3A3.29,3.29,0,0,1,1313,482.44Z" transform="translate(0)"/><path class="cls-22" d="M1235.23,400.05V503H1263V336.9A85.18,85.18,0,0,0,1235.23,400.05Z" transform="translate(0)"/><path class="cls-22" d="M1401.33,400.05a85.18,85.18,0,0,0-27.75-63.15V503h27.75Z" transform="translate(0)"/><path class="cls-30" d="M1248.33,149.17H1270a0,0,0,0,1,0,0v60.09a0,0,0,0,1,0,0h-1.44A20.22,20.22,0,0,1,1248.33,189V149.17A0,0,0,0,1,1248.33,149.17Z"/><path class="cls-31" d="M1385.11,194.59c8.08,0,14.62,7.06,14.62,15.77h0c0,8.7-6.54,15.76-14.62,15.76h-7.25V194.59Z" transform="translate(0)"/><path class="cls-32" d="M1381.74,201.92c4.32,0,7.83,3.77,7.83,8.44h0c0,4.66-3.51,8.44-7.83,8.44h-3.88V201.92Z" transform="translate(0)"/><path class="cls-33" d="M1379.66,246.61a61.91,61.91,0,0,1-61.92,61.91h0a61.91,61.91,0,0,1-61.91-61.91V187.23a61.91,61.91,0,0,1,61.91-61.91h0a61.91,61.91,0,0,1,61.92,61.91Z" transform="translate(0)"/><path class="cls-34" d="M1317.74,125.32a61.89,61.89,0,0,0-14.7,1.77,61.93,61.93,0,0,1,48.82,60.51V247a61.93,61.93,0,0,1-47.2,60.15,62.62,62.62,0,0,0,13.08,1.39,61.91,61.91,0,0,0,61.92-61.91V187.23A61.91,61.91,0,0,0,1317.74,125.32Z" transform="translate(0)"/><path class="cls-30" d="M1376.49,149.42V143a44.33,44.33,0,0,0-44.32-44.33h-43.71A44.33,44.33,0,0,0,1244.13,143v18.47h101.62a17.61,17.61,0,0,1,17.62,17.61v19.08a11,11,0,0,0,10.3,11.12A10.83,10.83,0,0,0,1385,198.44V160A10.83,10.83,0,0,0,1376.49,149.42Z" transform="translate(0)"/><rect class="cls-30" x="1234.52" y="134.01" width="111.52" height="48.72" rx="23.43"/><path class="cls-35" d="M1285,209.12a5.86,5.86,0,1,1-5.86-5.86A5.87,5.87,0,0,1,1285,209.12Z" transform="translate(0)"/><path class="cls-35" d="M1343.18,209.12a5.87,5.87,0,1,1-5.87-5.86A5.87,5.87,0,0,1,1343.18,209.12Z" transform="translate(0)"/><path class="cls-35" d="M1290.31,195.86a3,3,0,0,1-3,3h-17.81a3,3,0,0,1-3-3h0a3,3,0,0,1,3-3h17.81a3,3,0,0,1,3,3Z" transform="translate(0)"/><path class="cls-35" d="M1348.36,195.86a3,3,0,0,1-3,3h-17.81a3,3,0,0,1-3-3h0a3,3,0,0,1,3-3h17.81a3,3,0,0,1,3,3Z" transform="translate(0)"/><path class="cls-36" d="M1287.76,253.07a18.31,18.31,0,0,0,18.39,17.38,18.52,18.52,0,0,0,18.39-17.38Z" transform="translate(0)"/><path class="cls-11" d="M1320.2,254.08a4.58,4.58,0,0,1-4.64,4.64h-18.68a4.57,4.57,0,0,1-4.63-4.64v-1h27.8v1Z" transform="translate(0)"/><path class="cls-37" d="M1317,267.11a16.83,16.83,0,0,0-10.86-3.75,17.65,17.65,0,0,0-10.86,3.75,18.75,18.75,0,0,0,10.86,3.63,21.07,21.07,0,0,0,10.86-3.63" transform="translate(0)"/><path class="cls-35" d="M1311,293.9a4,4,0,0,1-4,4h0a4,4,0,0,1-4-4v-7.22a4,4,0,0,1,4-4h0a4,4,0,0,1,4,4Z" transform="translate(0)"/><path class="cls-35" d="M1264,247a20.34,20.34,0,0,0,20.16,17.73h2A20.35,20.35,0,0,0,1306.33,247Z" transform="translate(0)"/><path class="cls-35" d="M1306.32,247a20.35,20.35,0,0,0,20.18,17.73h2A20.35,20.35,0,0,0,1348.68,247Z" transform="translate(0)"/><path class="cls-38" d="M1318.26,242.9a11.17,11.17,0,0,1-11.17,11.17h0a11.17,11.17,0,0,1-11.17-11.17V222.61a11.17,11.17,0,0,1,11.17-11.17h0a11.17,11.17,0,0,1,11.17,11.17Z" transform="translate(0)"/><path class="cls-19" d="M1281.47,241a15.31,15.31,0,1,1,15.31-15.31A15.32,15.32,0,0,1,1281.47,241Zm0-29.15a13.85,13.85,0,1,0,13.85,13.84A13.86,13.86,0,0,0,1281.47,211.82Z" transform="translate(0)"/><path class="cls-19" d="M1330.82,241a15.31,15.31,0,1,1,15.31-15.31A15.32,15.32,0,0,1,1330.82,241Zm0-29.15a13.85,13.85,0,1,0,13.85,13.84A13.86,13.86,0,0,0,1330.82,211.82Z" transform="translate(0)"/><path class="cls-19" d="M1316.75,220.81a14,14,0,0,0-22.35,0l-1.18-.87a15.47,15.47,0,0,1,24.71,0Z" transform="translate(0)"/><path class="cls-22" d="M1238.12,391.66a22.2,22.2,0,0,1-8.71-1.79L1129,347a22.24,22.24,0,1,1,17.45-40.92L1246.86,349a22.25,22.25,0,0,1-8.74,42.71Z" transform="translate(0)"/><path class="cls-22" d="M1153.67,358.17a24.7,24.7,0,0,1-9.7-2l-16-6.82a24.77,24.77,0,0,1,19.43-45.58l16,6.83a24.77,24.77,0,0,1-9.73,47.56Z" transform="translate(0)"/><path class="cls-39" d="M1254.28,429.19l25.46,17.46L1291,430.24l-25.46-17.46c-13-8.9-19-34.58-31.81-43.34L1174,328.5l-10,14.66-11.24,16.41-10,14.66,59.72,40.94C1215.16,423.92,1242.45,421.09,1254.28,429.19Z" transform="translate(0)"/><path class="cls-40" d="M1248.74,402.63a1.74,1.74,0,0,1,.55-.53,1.88,1.88,0,0,1,2.59.6c1,1.66,2,3.12,3,4.46a1.88,1.88,0,0,1-3,2.21c-1-1.42-2.06-2.95-3.14-4.68A1.88,1.88,0,0,1,1248.74,402.63Z" transform="translate(0)"/><path class="cls-40" d="M1229,373a1.87,1.87,0,0,1,2.61-.49c5.62,3.85,10.18,12.17,14.59,20.21a1.88,1.88,0,0,1-3.3,1.81c-4.2-7.66-8.53-15.57-13.42-18.92A1.88,1.88,0,0,1,1229,373Z" transform="translate(0)"/><rect class="cls-41" x="1168.91" y="363.53" width="55.44" height="28.19" transform="translate(208.63 1151.17) rotate(-55.57)"/><path class="cls-42" d="M1252.24,428a20.25,20.25,0,0,1,2,1.2l15.49,10.62L1281,423.4l-15.49-10.62c-.64-.44-1.26-.93-1.87-1.44Z" transform="translate(0)"/><path class="cls-43" d="M1279.74,446.65s3.56,15,1.37,27.59,9.17-7.1,8.83-19.25-3.34-18.36-3.34-18.36Z" transform="translate(0)"/><path class="cls-44" d="M1305.84,502.9h-36.17a6,6,0,0,1-6-5.95V438.44a1.25,1.25,0,0,1,1.25-1.25h45.58a1.25,1.25,0,0,1,1.25,1.25V497A6,6,0,0,1,1305.84,502.9Zm-39.62-63.21V497a3.46,3.46,0,0,0,3.45,3.45h36.17a3.45,3.45,0,0,0,3.45-3.45V439.69Z" transform="translate(0)"/><path class="cls-43" d="M1306.16,472.24v20.32a4.69,4.69,0,0,1-4.7,4.7h-27.4a4.69,4.69,0,0,1-4.7-4.7V472.24Z" transform="translate(0)"/><path class="cls-45" d="M1273.37,482.93a1.64,1.64,0,0,0-1.65,1.64v2a1.65,1.65,0,0,0,3.29,0v-2A1.63,1.63,0,0,0,1273.37,482.93Zm-1.65-10.69v8.13a1.65,1.65,0,1,0,3.29,0v-8.13Z" transform="translate(0)"/><path class="cls-17" d="M1382.64,351.34a18.94,18.94,0,0,0-18.93,18.93V480.49a18.93,18.93,0,1,0,37.86,0V370.27A18.93,18.93,0,0,0,1382.64,351.34Z" transform="translate(0)"/><path class="cls-46" d="M1381.6,377.66V487.87a18.88,18.88,0,0,0,3.78,11.35,18.93,18.93,0,0,0,16.19-18.73V370.27a18.78,18.78,0,0,0-3.78-11.34A18.93,18.93,0,0,0,1381.6,377.66Z" transform="translate(0)"/><path class="cls-47" d="M1382.64,461.56h-57.35a18.93,18.93,0,0,0,0,37.86h57.35a18.93,18.93,0,0,0,0-37.86Z" transform="translate(0)"/><path class="cls-33" d="M1331.66,479.14a25.51,25.51,0,1,1-25.51-25.51A25.51,25.51,0,0,1,1331.66,479.14Z" transform="translate(0)"/><path class="cls-48" d="M1306.15,496.87a25.52,25.52,0,0,1-25.22-21.62,26.29,26.29,0,0,0-.29,3.89,25.51,25.51,0,0,0,51,0,26.29,26.29,0,0,0-.29-3.89A25.53,25.53,0,0,1,1306.15,496.87Z" transform="translate(0)"/><path class="cls-49" d="M1319.38,470.05c0,2.87-4.35,5.2-9.7,5.2s-9.7-2.33-9.7-5.2,4.34-5.21,9.7-5.21S1319.38,467.17,1319.38,470.05Z" transform="translate(0)"/><path class="cls-33" d="M1125.85,340.48,1224,411.23c8,5.8,20.22,1.41,24.86-6.52,5.37-9.17,1.5-19.09-6.52-24.87l-98.13-70.75c-8-5.8-20.21-1.41-24.86,6.52-5.37,9.17-1.5,19.08,6.52,24.87Z" transform="translate(0)"/><path class="cls-33" d="M1260.74,391.46A25.51,25.51,0,1,1,1235.23,366,25.52,25.52,0,0,1,1260.74,391.46Z" transform="translate(0)"/><path class="cls-48" d="M1235.23,409.2A25.53,25.53,0,0,1,1210,387.57a26.29,26.29,0,0,0-.29,3.89,25.51,25.51,0,1,0,51,0,26.29,26.29,0,0,0-.29-3.89A25.53,25.53,0,0,1,1235.23,409.2Z" transform="translate(0)"/><path class="cls-49" d="M1248.46,382.37c0,2.88-4.34,5.2-9.7,5.2s-9.7-2.32-9.7-5.2,4.34-5.2,9.7-5.2S1248.46,379.5,1248.46,382.37Z" transform="translate(0)"/><rect class="cls-50" x="512.18" y="514.84" width="987.77" height="443.11"/><rect class="cls-51" x="563.34" y="557.81" width="249.87" height="365.67"/><rect class="cls-51" x="878.09" y="557.81" width="249.87" height="365.67"/><rect class="cls-51" x="1193.45" y="557.81" width="249.87" height="365.67"/><rect class="cls-52" x="512.18" y="514.84" width="987.77" height="10.37"/><rect class="cls-20" x="491.95" y="498.53" width="1022.82" height="16.3"/><polyline class="cls-53" points="563.34 923.48 563.34 557.81 813.21 557.81"/><polyline class="cls-54" points="813.21 557.81 813.21 923.48 563.34 923.48"/><polyline class="cls-53" points="879.12 923.48 879.12 557.81 1128.99 557.81"/><polyline class="cls-54" points="1128.99 557.81 1128.99 923.48 879.12 923.48"/><polyline class="cls-53" points="1194.9 923.48 1194.9 557.81 1444.77 557.81"/><polyline class="cls-54" points="1444.77 557.81 1444.77 923.48 1194.9 923.48"/><path class="cls-55" d="M747.68,631.52a19.21,19.21,0,0,1-5.66-13.6v-3.21H634.53v3.21a19.29,19.29,0,0,1-19.25,19.25h-3.21v207h3.21a19.29,19.29,0,0,1,19.25,19.25v3.21H742v-3.21a19.29,19.29,0,0,1,19.25-19.25h3.21v-207h-3.21A19.2,19.2,0,0,1,747.68,631.52ZM758.06,837.9a25.79,25.79,0,0,0-22.26,22.26h-95a25.62,25.62,0,0,0-7.34-14.91h0a25.65,25.65,0,0,0-14.91-7.34V643.39a25.82,25.82,0,0,0,22.26-22.26h95a25.79,25.79,0,0,0,22.26,22.26Z" transform="translate(0)"/><path class="cls-55" d="M1065.47,631.52a19.21,19.21,0,0,1-5.66-13.6v-3.21H952.33v3.21a19.31,19.31,0,0,1-19.26,19.25h-3.2v207h3.2a19.31,19.31,0,0,1,19.26,19.25v3.21h107.48v-3.21a19.29,19.29,0,0,1,19.25-19.25h3.21v-207h-3.21A19.22,19.22,0,0,1,1065.47,631.52Zm10.38,206.38a25.79,25.79,0,0,0-22.26,22.26h-95a25.62,25.62,0,0,0-7.34-14.91h0a25.65,25.65,0,0,0-14.91-7.34V643.39a25.82,25.82,0,0,0,22.26-22.26h95a25.79,25.79,0,0,0,22.26,22.26Z" transform="translate(0)"/><path class="cls-55" d="M1383.26,631.52a19.21,19.21,0,0,1-5.66-13.6v-3.21H1270.12v3.21a19.31,19.31,0,0,1-19.25,19.25h-3.21v207h3.21a19.31,19.31,0,0,1,19.25,19.25v3.21H1377.6v-3.21a19.29,19.29,0,0,1,19.25-19.25h3.21v-207h-3.21A19.22,19.22,0,0,1,1383.26,631.52Zm10.38,206.38a25.77,25.77,0,0,0-22.25,22.26h-95.06a25.62,25.62,0,0,0-7.34-14.91h0a25.65,25.65,0,0,0-14.91-7.34V643.39a25.82,25.82,0,0,0,22.26-22.26h95.06a25.77,25.77,0,0,0,22.25,22.26Z" transform="translate(0)"/><path class="cls-17" d="M620.38,470.14H470.87a28.39,28.39,0,1,0,0,56.78H620.38a28.39,28.39,0,1,0,0-56.78Z" transform="translate(0)"/><path class="cls-56" d="M625.56,515.25H476a28.38,28.38,0,0,1-28.39-28.39,29,29,0,0,1,.51-5.38,28.4,28.4,0,0,0,22.71,45.44H620.38a28.38,28.38,0,0,0,27.88-23A28.33,28.33,0,0,1,625.56,515.25Z" transform="translate(0)"/><path class="cls-47" d="M804.25,322.63A34.78,34.78,0,1,0,839,357.41,34.78,34.78,0,0,0,804.25,322.63Z" transform="translate(0)"/><path class="cls-17" d="M838.4,470.14H688.89a28.39,28.39,0,1,0,0,56.78H838.4a28.39,28.39,0,1,0,0-56.78Z" transform="translate(0)"/><path class="cls-17" d="M842.84,379.24a28.3,28.3,0,0,0-55.46,11.32l23.3,113.63a28.3,28.3,0,1,0,55.45-11.31Z" transform="translate(0)"/><path class="cls-56" d="M865.65,490.53,842.84,379.24a28.31,28.31,0,0,0-20.75-21.77,28.35,28.35,0,0,1,3.11,8.3L848,477.06a28.4,28.4,0,0,1-27.25,36.4H671.25a28.18,28.18,0,0,1-7-.89,28.39,28.39,0,0,0,24.68,14.35H838.4a28.39,28.39,0,0,0,27.25-36.39Z" transform="translate(0)"/><path class="cls-47" d="M777.63,307.6a8.18,8.18,0,0,0-8.16,8.16v33a8.16,8.16,0,1,0,16.32,0v-33A8.17,8.17,0,0,0,777.63,307.6Z" transform="translate(0)"/><path class="cls-47" d="M648.77,426.32a19,19,0,0,0-18.9,18.9v11.71a18.91,18.91,0,0,0,37.81,0V445.22A19,19,0,0,0,648.77,426.32Z" transform="translate(0)"/><path class="cls-47" d="M597.51,376.94l.35,21.7A49.27,49.27,0,0,0,647.78,447h0a49.26,49.26,0,0,0,48.33-49.91l-.35-21.7A49.27,49.27,0,0,0,645.84,327h0A49.27,49.27,0,0,0,597.51,376.94Z" transform="translate(0)"/><rect class="cls-57" x="608.76" y="446.62" width="71.69" height="21.29" rx="7.1"/><path class="cls-58" d="M691.68,461.63H597.54A40.7,40.7,0,0,0,557,502.22V671.9a40.7,40.7,0,0,0,40.59,40.59h94.14a40.71,40.71,0,0,0,40.59-40.59V502.22A40.71,40.71,0,0,0,691.68,461.63Z" transform="translate(0)"/><path class="cls-59" d="M691.68,461.63h-8.47a40.33,40.33,0,0,1,2.07,12.73V644a40.71,40.71,0,0,1-40.6,40.59H559a40.73,40.73,0,0,0,38.52,27.86h94.14a40.71,40.71,0,0,0,40.59-40.59V502.22A40.71,40.71,0,0,0,691.68,461.63Z" transform="translate(0)"/><rect class="cls-60" x="582.28" y="301.36" width="90.68" height="124.96" rx="43.94"/><rect class="cls-60" x="645.39" y="304.44" width="55.24" height="73.68" rx="26.77"/><circle class="cls-33" cx="675.53" cy="377.23" r="13.53" transform="translate(-67.86 162.71) rotate(-13.08)"/><path class="cls-61" d="M675.53,370.21a7,7,0,1,0,7,7A7,7,0,0,0,675.53,370.21Z" transform="translate(0)"/><path class="cls-62" d="M690.09,297.34H622a16.86,16.86,0,0,0,0,33.72h68.1a16.86,16.86,0,0,0,0-33.72Z" transform="translate(0)"/><path class="cls-63" d="M656,389.73a38.56,38.56,0,0,1-38.56,38.56h0a38.56,38.56,0,0,1-38.56-38.56V343a38.56,38.56,0,0,1,38.56-38.56h0A38.56,38.56,0,0,1,656,343Z" transform="translate(0)"/><path class="cls-64" d="M644.61,696.85H551.05c-11.75,0-24.16,12.94-19.17,25.16l64.28,157.08,10.32,25.22c4.1,10,13,17,24.45,13.88,9.5-2.62,18-14.41,13.88-24.45L580.53,736.66l-10.32-25.22Q560.63,724,551.05,736.6h93.56a19.88,19.88,0,1,0,0-39.75Z" transform="translate(0)"/><path class="cls-64" d="M642.47,736.6H736l-19.16-25.16L652.59,868.52l-10.32,25.22c-4.11,10,4.38,21.83,13.88,24.45,11.4,3.13,20.35-3.87,24.45-13.88l64.28-157.08L755.2,722c5-12.22-7.42-25.16-19.17-25.16H642.47a19.88,19.88,0,1,0,0,39.75Z" transform="translate(0)"/><path class="cls-65" d="M732.27,690.6a11.93,11.93,0,0,1-11.92,11.93H565.07a11.93,11.93,0,0,1-11.92-11.93h0a11.92,11.92,0,0,1,11.92-11.92H720.35a11.92,11.92,0,0,1,11.92,11.92Z" transform="translate(0)"/><path class="cls-33" d="M605.58,902.11l.9,2.2c4.1,10,13,17,24.45,13.88,6.91-1.9,13.28-8.67,14.66-16.08Z" transform="translate(0)"/><path class="cls-33" d="M641.49,902.11a21.68,21.68,0,0,0,14.66,16.08c11.4,3.13,20.35-3.87,24.45-13.88l.9-2.2Z" transform="translate(0)"/><path class="cls-6" d="M1025.34,976.34c45.38,0,82.16,4.59,82.16,10.27s-36.78,10.27-82.16,10.27-82.16-4.6-82.16-10.27,36.78-10.27,82.16-10.27" transform="translate(0)"/><path class="cls-66" d="M981.18,746h88.32a9.78,9.78,0,0,1,9.75,9.75h0a9.78,9.78,0,0,1-9.75,9.76H981.18a9.79,9.79,0,0,1-9.76-9.76h0a9.78,9.78,0,0,1,9.76-9.75" transform="translate(0)"/><path class="cls-67" d="M969.88,736.28H1080.8a9.78,9.78,0,0,1,9.75,9.76h0a9.78,9.78,0,0,1-9.75,9.75H969.88a9.78,9.78,0,0,1-9.76-9.75h0a9.79,9.79,0,0,1,9.76-9.76" transform="translate(0)"/><path class="cls-11" d="M1069.74,765.24a6.15,6.15,0,1,0-12.28.62l11.3,216.7a6.15,6.15,0,1,0,12.28-.62Zm-88.81,0a6.14,6.14,0,1,1,12.27.62l-11.29,216.7a6.15,6.15,0,1,1-12.28-.62Z" transform="translate(0)"/><rect class="cls-11" x="982.73" y="893.67" width="86.27" height="10.27"/><rect class="cls-11" x="982.73" y="911.38" width="86.27" height="10.27"/><path class="cls-6" d="M647.4,976.34c45.37,0,82.16,4.59,82.16,10.27s-36.79,10.27-82.16,10.27-82.16-4.6-82.16-10.27S602,976.34,647.4,976.34" transform="translate(0)"/><path class="cls-66" d="M603.23,746h88.33a9.79,9.79,0,0,1,9.76,9.75h0a9.79,9.79,0,0,1-9.76,9.76H603.23a9.78,9.78,0,0,1-9.75-9.76h0a9.78,9.78,0,0,1,9.75-9.75" transform="translate(0)"/><path class="cls-67" d="M591.94,736.28H702.86a9.78,9.78,0,0,1,9.75,9.76h0a9.78,9.78,0,0,1-9.75,9.75H591.94a9.78,9.78,0,0,1-9.76-9.75h0a9.79,9.79,0,0,1,9.76-9.76" transform="translate(0)"/><path class="cls-11" d="M691.8,765.24a6.15,6.15,0,1,0-12.28.62l11.3,216.7a6.15,6.15,0,0,0,12.28-.62Zm-88.81,0a6.14,6.14,0,1,1,12.27.62L604,982.56a6.15,6.15,0,1,1-12.28-.62Z" transform="translate(0)"/><rect class="cls-11" x="604.79" y="893.67" width="86.27" height="10.27"/><rect class="cls-11" x="604.79" y="911.38" width="86.27" height="10.27"/><path class="cls-6" d="M1380.68,976.34c45.38,0,82.17,4.59,82.17,10.27s-36.79,10.27-82.17,10.27-82.16-4.6-82.16-10.27,36.79-10.27,82.16-10.27" transform="translate(0)"/><path class="cls-66" d="M1336.52,746h88.33a9.78,9.78,0,0,1,9.75,9.75h0a9.78,9.78,0,0,1-9.75,9.76h-88.33a9.79,9.79,0,0,1-9.76-9.76h0a9.79,9.79,0,0,1,9.76-9.75" transform="translate(0)"/><path class="cls-67" d="M1325.22,736.28h110.92a9.79,9.79,0,0,1,9.76,9.76h0a9.78,9.78,0,0,1-9.76,9.75H1325.22a9.78,9.78,0,0,1-9.75-9.75h0a9.78,9.78,0,0,1,9.75-9.76" transform="translate(0)"/><path class="cls-11" d="M1425.09,765.24a6.15,6.15,0,0,0-12.28.62l11.3,216.7a6.14,6.14,0,1,0,12.27-.62Zm-88.81,0a6.14,6.14,0,1,1,12.27.62l-11.3,216.7a6.14,6.14,0,1,1-12.27-.62Z" transform="translate(0)"/><rect class="cls-11" x="1338.08" y="893.67" width="86.27" height="10.27"/><rect class="cls-11" x="1338.08" y="911.38" width="86.27" height="10.27"/><path class="cls-44" d="M914.2,498.53H875.7a6.34,6.34,0,0,1-6.33-6.33V429.93a1.33,1.33,0,0,1,1.33-1.33h48.5a1.34,1.34,0,0,1,1.34,1.33V492.2A6.35,6.35,0,0,1,914.2,498.53ZM872,431.27V492.2a3.68,3.68,0,0,0,3.67,3.67h38.5a3.68,3.68,0,0,0,3.67-3.67V431.27Z" transform="translate(0)"/><path class="cls-68" d="M914.2,498.53H875.7a6.34,6.34,0,0,1-6.33-6.33V429.93a1.33,1.33,0,0,1,1.33-1.33h48.5a1.34,1.34,0,0,1,1.34,1.33V492.2A6.35,6.35,0,0,1,914.2,498.53Z" transform="translate(0)"/><path class="cls-43" d="M908.5,485.94c-11.12.05-23.7-.94-34.31-5.36V488a5.15,5.15,0,0,0,5.14,5.15h31.24a5.15,5.15,0,0,0,5.14-5.15v-2.18Q912.16,485.93,908.5,485.94Z" transform="translate(0)"/></g></g></svg>