<svg data-name="Layer 1" xmlns="http://www.w3.org/2000/svg" viewBox="0 0 144.47 115.07" replaceData=""><g><path d="M996.66,580.78l24.8,17,11-16-24.8-17c-12.66-8.67-18.53-33.69-31-42.22l-58.17-39.87L908.69,497l-11,16L888,527.25l58.16,39.87C958.56,575.65,985.14,572.89,996.66,580.78Z" transform="translate(-887.95 -482.71)"/><path d="M991.27,554.91a1.68,1.68,0,0,1,.54-.52,1.83,1.83,0,0,1,2.52.59c1,1.61,2,3,2.91,4.34a1.83,1.83,0,0,1-3,2.16c-1-1.38-2-2.88-3.06-4.57A1.82,1.82,0,0,1,991.27,554.91Z" transform="translate(-887.95 -482.71)"/><path d="M972,526.08a1.82,1.82,0,0,1,2.54-.48c5.48,3.76,9.92,11.86,14.21,19.69a1.83,1.83,0,0,1-3.21,1.76c-4.09-7.46-8.31-15.17-13.07-18.43A1.83,1.83,0,0,1,972,526.08Z" transform="translate(-887.95 -482.71)"/><rect x="913.52" y="516.82" width="53.99" height="27.46" transform="translate(-916.78 523.67) rotate(-55.57)"/><path d="M994.68,579.61a18.11,18.11,0,0,1,2,1.17l15.09,10.34,11-16-15.09-10.34a22.15,22.15,0,0,1-1.82-1.41Z" transform="translate(-887.95 -482.71)"/><g></svg>