<svg data-name="Layer 1" xmlns="http://www.w3.org/2000/svg" viewBox="0 0 40 105.52" replaceData=""><g><path d="M977.26,551.45c-7.31-7.23-12.19-17-12.15-27.33,0-7.76,0-15.52,0-23.27h.8V496.8a.42.42,0,0,0-.41-.41H954.87a.42.42,0,0,0-.42.41v4.05h.8c0,7.75,0,15.51,0,23.27,0,10.37-4.83,20.1-12.14,27.33a9.78,9.78,0,0,0-2.89,7.85c.84,9.46,3,29.68,6.39,33.71h27.15c3.38-4,5.54-24.25,6.38-33.71A9.8,9.8,0,0,0,977.26,551.45Z" transform="translate(-940.18 -487.49)"/><path d="M964.69,500.26h-8.86v-11a1.73,1.73,0,0,1,1.74-1.73H963a1.73,1.73,0,0,1,1.74,1.73Z" transform="translate(-940.18 -487.49)"/></g></svg>