<svg data-name="Layer 1" xmlns="http://www.w3.org/2000/svg" viewBox="0 0 42.8 53.67" replaceData=""><g><path d="M951.72,516c-2-.56-6.48,9.22-9.94,21.84s-4.62,23.29-2.59,23.85c30,8.24,37.21-1,40.61-13.43S980.89,524,951.72,516Z" transform="translate(-938.19 -511.17)"/><path d="M952.19,517.62c1.75.48-.69,10.11-3.94,21.94s-6,21.36-7.81,20.88-.55-10.46,2.69-22.29S950.43,517.14,952.19,517.62Z" transform="translate(-938.19 -511.17)"/><path d="M960.32,511.66a7.52,7.52,0,0,0-4.53,5.47s0,0,0,.06l2,.66,0-.15a5.56,5.56,0,0,1,3.25-4.05,7.56,7.56,0,0,1,6.55,1.08,10.74,10.74,0,0,1,4.37,10c.61.48,1.23.87,1.84,1.4,0-.12,0-.1.08-.23,1.22-4.45-1.13-10.38-5.13-12.95A9.73,9.73,0,0,0,960.32,511.66Z" transform="translate(-938.19 -511.17)"/></g></svg>