<svg data-name="Layer 1" xmlns="http://www.w3.org/2000/svg" viewBox="0 0 49.84 68.11" replaceData=""><g><path d="M978.93,574.3H941.44a6.18,6.18,0,0,1-6.18-6.17V507.49a1.3,1.3,0,0,1,1.3-1.3H983.8a1.3,1.3,0,0,1,1.3,1.3v60.64A6.18,6.18,0,0,1,978.93,574.3Zm-41.07-65.51v59.34a3.58,3.58,0,0,0,3.58,3.58h37.49a3.59,3.59,0,0,0,3.58-3.58V508.79Z" transform="translate(-935.26 -506.19)"/><path d="M978.93,574.3H941.44a6.18,6.18,0,0,1-6.18-6.17V507.49a1.3,1.3,0,0,1,1.3-1.3H983.8a1.3,1.3,0,0,1,1.3,1.3v60.64A6.18,6.18,0,0,1,978.93,574.3Z" transform="translate(-935.26 -506.19)"/><path d="M973.38,562c-10.84.05-23.08-.91-33.42-5.21V564a5,5,0,0,0,5,5h30.42a5,5,0,0,0,5-5v-2.13C978.09,562,975.75,562,973.38,562Z" transform="translate(-935.26 -506.19)"/></g></svg>