<svg data-name="Layer 1" xmlns="http://www.w3.org/2000/svg" viewBox="0 0 46.83 64.54" replaceData=""><g><path d="M952.37,517.73s3.47,14.64,1.34,26.87,8.93-6.91,8.6-18.75S959.06,508,959.06,508Z" transform="translate(-936.77 -507.97)"/><path d="M977.8,572.52H942.57a5.8,5.8,0,0,1-5.8-5.8v-57a1.21,1.21,0,0,1,1.22-1.22h44.39a1.22,1.22,0,0,1,1.22,1.22v57A5.8,5.8,0,0,1,977.8,572.52ZM939.21,511v55.76a3.36,3.36,0,0,0,3.36,3.36H977.8a3.37,3.37,0,0,0,3.36-3.36V511Z" transform="translate(-936.77 -507.97)"/><path d="M978.11,542.65v19.8a4.58,4.58,0,0,1-4.58,4.58H946.84a4.58,4.58,0,0,1-4.58-4.58v-19.8Z" transform="translate(-936.77 -507.97)"/><path d="M946.17,553.06a1.6,1.6,0,0,0-1.6,1.6v2a1.6,1.6,0,0,0,3.2,0v-2A1.6,1.6,0,0,0,946.17,553.06Zm-1.6-10.41v7.93a1.6,1.6,0,0,0,3.2,0v-7.93Z" transform="translate(-936.77 -507.97)"/></g></svg>