<svg data-name="Layer 1" xmlns="http://www.w3.org/2000/svg" viewBox="0 0 413.28 605.43" replaceData=""><g><path d="M925.62,404.76H780a27.65,27.65,0,1,0,0,55.3H925.62a27.65,27.65,0,1,0,0-55.3Z" transform="translate(-752.34 -236.45)"/><path  d="M930.66,448.7H785a27.62,27.62,0,0,1-27.15-32.9A27.65,27.65,0,0,0,780,460.06H925.62a27.65,27.65,0,0,0,27.16-22.41A27.63,27.63,0,0,1,930.66,448.7Z" transform="translate(-752.34 -236.45)"/><path  d="M1104.71,261.09A33.88,33.88,0,1,0,1138.58,295,33.87,33.87,0,0,0,1104.71,261.09Z" transform="translate(-752.34 -236.45)"/><path  d="M1138,404.76H992.35a27.65,27.65,0,1,0,0,55.3H1138a27.65,27.65,0,1,0,0-55.3Z" transform="translate(-752.34 -236.45)"/><path  d="M1142.29,316.23a27.56,27.56,0,1,0-54,11L1111,437.92a27.56,27.56,0,1,0,54-11Z" transform="translate(-752.34 -236.45)"/><path  d="M1164.51,424.62l-22.22-108.39A27.56,27.56,0,0,0,1122.08,295a27.21,27.21,0,0,1,3,8.09l22.22,108.39a27.65,27.65,0,0,1-26.54,35.44H975.17a27.67,27.67,0,0,1-6.86-.85,27.65,27.65,0,0,0,24,14H1138a27.65,27.65,0,0,0,26.54-35.44Z" transform="translate(-752.34 -236.45)"/><path  d="M1078.78,246.45a8,8,0,0,0-8,8v32.15a8,8,0,0,0,15.9,0V254.4A8,8,0,0,0,1078.78,246.45Z" transform="translate(-752.34 -236.45)"/><path  d="M953.28,362.08a18.46,18.46,0,0,0-18.41,18.41v11.4a18.41,18.41,0,0,0,36.82,0v-11.4A18.46,18.46,0,0,0,953.28,362.08Z" transform="translate(-752.34 -236.45)"/><path  d="M903.34,314l.34,21.13a48,48,0,0,0,48.62,47.07h0a48,48,0,0,0,47.07-48.61L999,312.43a48,48,0,0,0-48.62-47.07h0A48,48,0,0,0,903.34,314Z" transform="translate(-752.34 -236.45)"/><path  d="M168.88,145.4h56a6.91,6.91,0,0,1,6.91,6.91v6.91a6.92,6.92,0,0,1-6.92,6.92h-56a6.91,6.91,0,0,1-6.91-6.91v-6.91A6.91,6.91,0,0,1,168.88,145.4Z"/><path  d="M995.06,396.47H903.37A39.65,39.65,0,0,0,863.84,436V601.27a39.65,39.65,0,0,0,39.53,39.53h91.69a39.65,39.65,0,0,0,39.54-39.53V436A39.65,39.65,0,0,0,995.06,396.47Z" transform="translate(-752.34 -236.45)"/><path  d="M995.06,396.47h-8.25a39.14,39.14,0,0,1,2,12.39V574.13a39.65,39.65,0,0,1-39.54,39.54H865.86a39.68,39.68,0,0,0,37.51,27.13h91.69a39.65,39.65,0,0,0,39.54-39.53V436A39.65,39.65,0,0,0,995.06,396.47Z" transform="translate(-752.34 -236.45)"/><path  d="M179,3.92h2.73a42.8,42.8,0,0,1,42.8,42.8V82.83a42.79,42.79,0,0,1-42.79,42.79H179a42.8,42.8,0,0,1-42.8-42.8V46.71A42.79,42.79,0,0,1,179,3.92Z"/><rect  x="197.63" y="6.92" width="53.81" height="71.76" rx="26.07"/><circle  cx="979.33" cy="314.26" r="13.18" transform="translate(-798.06 -6.6) rotate(-13.08)"/><path  d="M979.33,307.43a6.84,6.84,0,1,0,6.84,6.83A6.83,6.83,0,0,0,979.33,307.43Z" transform="translate(-752.34 -236.45)"/><path  d="M993.51,236.45H927.19a16.42,16.42,0,0,0,0,32.84h66.32a16.42,16.42,0,0,0,0-32.84Z" transform="translate(-752.34 -236.45)"/><path  d="M960.35,326.44A37.56,37.56,0,0,1,922.79,364h0a37.56,37.56,0,0,1-37.55-37.56V280.92a37.55,37.55,0,0,1,37.55-37.55h0a37.55,37.55,0,0,1,37.56,37.55Z" transform="translate(-752.34 -236.45)"/><path  d="M949.22,625.57H858.09c-11.44,0-23.53,12.6-18.66,24.5q31.29,76.5,62.6,153l10.05,24.57c4,9.75,12.71,16.57,23.81,13.52,9.26-2.55,17.53-14,13.52-23.82l-62.6-153-10-24.56-18.67,24.5h91.13a19.36,19.36,0,1,0,0-38.71Z" transform="translate(-752.34 -236.45)"/><path  d="M947.13,664.28h91.13l-18.66-24.5L957,792.77l-10,24.56c-4,9.79,4.27,21.27,13.52,23.82,11.1,3.05,19.82-3.77,23.82-13.52q31.29-76.5,62.6-153l10-24.56c4.87-11.9-7.23-24.5-18.67-24.5H947.13a19.36,19.36,0,0,0,0,38.71Z" transform="translate(-752.34 -236.45)"/><path  d="M1034.6,619.48A11.61,11.61,0,0,1,1023,631.1H871.75a11.61,11.61,0,0,1-11.61-11.62h0a11.61,11.61,0,0,1,11.61-11.61H1023a11.61,11.61,0,0,1,11.61,11.61Z" transform="translate(-752.34 -236.45)"/><path  d="M911.2,825.49c.3.71.59,1.42.88,2.14,4,9.75,12.71,16.57,23.81,13.52a21.15,21.15,0,0,0,14.29-15.66Z" transform="translate(-752.34 -236.45)"/><path  d="M946.18,825.49a21.14,21.14,0,0,0,14.28,15.66c11.1,3.05,19.82-3.77,23.82-13.52l.87-2.14Z" transform="translate(-752.34 -236.45)"/></g></svg>