<svg xmlns="http://www.w3.org/2000/svg" viewBox="0 0 281.16 395.44" replaceData=""><g><rect x="146.17" y="378.02" width="107.73" height="16.31"/><path d="M1055.37,561.57a80.48,80.48,0,0,0-34.09-7.55h0a80.52,80.52,0,0,0-34.1,7.55l34.1,85.71Z" transform="translate(-821.25 -342.53)"/><path d="M987.18,561.57A83,83,0,0,0,967.41,573V721.42l36.82,14.32,17-10.85V636.82Z" transform="translate(-821.25 -342.53)"/><path d="M1075.14,573a83,83,0,0,0-19.77-11.42l-34.09,75.25v88.07l17.29,10.85,36.57-13.45Z" transform="translate(-821.25 -342.53)"/><rect x="178.13" y="177.23" width="43.8" height="51.2"/><path d="M999.38,519.76v28.07a65.17,65.17,0,0,0,43.8,0V519.76Z" transform="translate(-821.25 -342.53)"/><rect x="189.16" y="220.26" width="21.74" height="21.74" rx="3.91"/><path d="M1010.44,580.9l-16.62,6.42a5.36,5.36,0,0,1-7.3-5V565a5.37,5.37,0,0,1,7.3-5l16.62,6.43Z" transform="translate(-821.25 -342.53)"/><path d="M1032.12,580.9l16.62,6.42a5.36,5.36,0,0,0,7.29-5V565a5.37,5.37,0,0,0-7.29-5l-16.62,6.43Z" transform="translate(-821.25 -342.53)"/><path d="M997,572.3a1.55,1.55,0,0,0,0,3.1h13.41v-3.1Z" transform="translate(-821.25 -342.53)"/><path d="M1045.55,572.3a1.55,1.55,0,0,1,0,3.1h-13.4v-3.1Z" transform="translate(-821.25 -342.53)"/><path d="M1024.49,595.89a3.21,3.21,0,1,1-3.21-3.21A3.21,3.21,0,0,1,1024.49,595.89Z" transform="translate(-821.25 -342.53)"/><path d="M1024.49,617a3.21,3.21,0,1,1-3.21-3.22A3.21,3.21,0,0,1,1024.49,617Z" transform="translate(-821.25 -342.53)"/><path d="M1016.09,660.76a3.22,3.22,0,1,1-3.21-3.21A3.21,3.21,0,0,1,1016.09,660.76Z" transform="translate(-821.25 -342.53)"/><path d="M1016.09,688.55a3.22,3.22,0,1,1-3.21-3.22A3.21,3.21,0,0,1,1016.09,688.55Z" transform="translate(-821.25 -342.53)"/><path d="M1016.09,716.33a3.22,3.22,0,1,1-3.21-3.21A3.21,3.21,0,0,1,1016.09,716.33Z" transform="translate(-821.25 -342.53)"/><path d="M940.39,636.09V736.37h27V574.58A83,83,0,0,0,940.39,636.09Z" transform="translate(-821.25 -342.53)"/><path d="M1102.16,636.09a83,83,0,0,0-27-61.51V736.37h27Z" transform="translate(-821.25 -342.53)"/><path d="M131.9,49.21H153a0,0,0,0,1,0,0v58.53a0,0,0,0,1,0,0h-.87A20.22,20.22,0,0,1,131.9,87.52V49.21A0,0,0,0,1,131.9,49.21Z"/><path d="M1086.37,436c7.87,0,14.24,6.87,14.24,15.35h0c0,8.48-6.37,15.35-14.24,15.35h-7.07V436Z" transform="translate(-821.25 -342.53)"/><path d="M1083.09,443.11c4.21,0,7.62,3.68,7.62,8.22h0c0,4.54-3.41,8.22-7.62,8.22h-3.79V443.11Z" transform="translate(-821.25 -342.53)"/><path d="M1081.06,486.64a60.3,60.3,0,0,1-60.31,60.3h0a60.3,60.3,0,0,1-60.3-60.3V428.81a60.31,60.31,0,0,1,60.3-60.31h0a60.31,60.31,0,0,1,60.31,60.31Z" transform="translate(-821.25 -342.53)"/><path d="M1020.75,368.5a60.37,60.37,0,0,0-14.32,1.73A60.32,60.32,0,0,1,1054,429.17V487a60.32,60.32,0,0,1-46,58.57,60.31,60.31,0,0,0,73-58.94V428.81A60.31,60.31,0,0,0,1020.75,368.5Z" transform="translate(-821.25 -342.53)"/><path d="M1078,392V385.7a43.17,43.17,0,0,0-43.18-43.17H992.24a43.17,43.17,0,0,0-43.18,43.17v18h99a17.15,17.15,0,0,1,17.15,17.15v18.58a10.73,10.73,0,0,0,10,10.83,10.54,10.54,0,0,0,11-10.53V402.28A10.54,10.54,0,0,0,1078,392Z" transform="translate(-821.25 -342.53)"/><rect x="118.45" y="34.45" width="108.62" height="47.46" rx="22.82"/><path d="M988.83,450.13a5.71,5.71,0,1,1-5.71-5.71A5.71,5.71,0,0,1,988.83,450.13Z" transform="translate(-821.25 -342.53)"/><path d="M1045.53,450.13a5.71,5.71,0,1,1-5.72-5.71A5.72,5.72,0,0,1,1045.53,450.13Z" transform="translate(-821.25 -342.53)"/><path d="M994,437.21a2.92,2.92,0,0,1-2.92,2.92H973.78a2.92,2.92,0,0,1-2.92-2.92h0a2.92,2.92,0,0,1,2.92-2.92h17.34a2.92,2.92,0,0,1,2.92,2.92Z" transform="translate(-821.25 -342.53)"/><path d="M1050.57,437.21a2.92,2.92,0,0,1-2.92,2.92h-17.34a2.92,2.92,0,0,1-2.92-2.92h0a2.92,2.92,0,0,1,2.92-2.92h17.34a2.92,2.92,0,0,1,2.92,2.92Z" transform="translate(-821.25 -342.53)"/><path d="M991.55,492.94a17.83,17.83,0,0,0,17.91,16.92,18.06,18.06,0,0,0,17.92-16.92Z" transform="translate(-821.25 -342.53)"/><path d="M1023.15,493.92a4.47,4.47,0,0,1-4.52,4.52h-18.2a4.46,4.46,0,0,1-4.51-4.52v-1H1023v1Z" transform="translate(-821.25 -342.53)"/><path d="M1020,506.61a16.38,16.38,0,0,0-10.58-3.66,17.17,17.17,0,0,0-10.57,3.66,18.26,18.26,0,0,0,10.57,3.53,20.52,20.52,0,0,0,10.58-3.53" transform="translate(-821.25 -342.53)"/><path d="M1014.22,532.71a3.92,3.92,0,0,1-3.91,3.91h0a3.92,3.92,0,0,1-3.91-3.91v-7a3.91,3.91,0,0,1,3.91-3.91h0a3.91,3.91,0,0,1,3.91,3.91Z" transform="translate(-821.25 -342.53)"/><path d="M968.39,487.05A19.81,19.81,0,0,0,988,504.32h2a19.83,19.83,0,0,0,19.65-17.27Z" transform="translate(-821.25 -342.53)"/><path d="M1009.63,487.05a19.82,19.82,0,0,0,19.65,17.27h2a19.81,19.81,0,0,0,19.64-17.27Z" transform="translate(-821.25 -342.53)"/><path d="M1021.26,483a10.88,10.88,0,0,1-10.88,10.88h0A10.88,10.88,0,0,1,999.5,483V463.27a10.88,10.88,0,0,1,10.88-10.88h0a10.88,10.88,0,0,1,10.88,10.88Z" transform="translate(-821.25 -342.53)"/><path d="M985.43,481.15a14.91,14.91,0,1,1,14.91-14.91A14.93,14.93,0,0,1,985.43,481.15Zm0-28.4a13.49,13.49,0,1,0,13.48,13.49A13.5,13.5,0,0,0,985.43,452.75Z" transform="translate(-821.25 -342.53)"/><path d="M1033.5,481.15a14.91,14.91,0,1,1,14.91-14.91A14.92,14.92,0,0,1,1033.5,481.15Zm0-28.4A13.49,13.49,0,1,0,1047,466.24,13.5,13.5,0,0,0,1033.5,452.75Z" transform="translate(-821.25 -342.53)"/><path d="M1019.79,461.51a13.65,13.65,0,0,0-21.78,0l-1.14-.84a15,15,0,0,1,24.06,0Z" transform="translate(-821.25 -342.53)"/><path d="M943.21,627.92a21.45,21.45,0,0,1-8.49-1.75l-97.84-41.72a21.67,21.67,0,1,1,17-39.86l97.84,41.73a21.67,21.67,0,0,1-8.51,41.6Z" transform="translate(-821.25 -342.53)"/><path d="M861,595.3a24,24,0,0,1-9.45-1.94l-15.58-6.65a24.12,24.12,0,1,1,18.92-44.38L870.43,549A24.13,24.13,0,0,1,861,595.3Z" transform="translate(-821.25 -342.53)"/><path d="M1084,588.65a18.45,18.45,0,0,0-18.44,18.44V714.43a18.44,18.44,0,1,0,36.87,0V607.09A18.44,18.44,0,0,0,1084,588.65Z" transform="translate(-821.25 -342.53)"/><path d="M1083,614.28V721.62a18.37,18.37,0,0,0,3.68,11.06,18.44,18.44,0,0,0,15.77-18.25V607.09a18.37,18.37,0,0,0-3.68-11.06A18.46,18.46,0,0,0,1083,614.28Z" transform="translate(-821.25 -342.53)"/><path d="M1084,696H1028.1a18.44,18.44,0,1,0,0,36.87H1084a18.44,18.44,0,0,0,0-36.87Z" transform="translate(-821.25 -342.53)"/><path d="M1034.31,713.12a24.85,24.85,0,1,1-24.85-24.85A24.85,24.85,0,0,1,1034.31,713.12Z" transform="translate(-821.25 -342.53)"/><path d="M1009.46,730.39a24.86,24.86,0,0,1-24.56-21.06,24.85,24.85,0,1,0,49.12,0A24.84,24.84,0,0,1,1009.46,730.39Z" transform="translate(-821.25 -342.53)"/><path d="M1022.34,704.26c0,2.8-4.22,5.07-9.44,5.07s-9.44-2.27-9.44-5.07,4.22-5.06,9.44-5.06S1022.34,701.47,1022.34,704.26Z" transform="translate(-821.25 -342.53)"/><path d="M833.86,578.07,929.43,647c7.84,5.66,19.69,1.38,24.22-6.34,5.23-8.93,1.46-18.59-6.35-24.22L851.72,547.5c-7.84-5.65-19.69-1.37-24.21,6.35-5.23,8.93-1.46,18.58,6.35,24.22Z" transform="translate(-821.25 -342.53)"/><path d="M965.24,627.73a24.85,24.85,0,1,1-24.85-24.85A24.86,24.86,0,0,1,965.24,627.73Z" transform="translate(-821.25 -342.53)"/><path d="M940.39,645a24.85,24.85,0,0,1-24.56-21.06,24.85,24.85,0,1,0,49.12,0A24.87,24.87,0,0,1,940.39,645Z" transform="translate(-821.25 -342.53)"/><path d="M953.27,618.87c0,2.8-4.23,5.07-9.44,5.07s-9.45-2.27-9.45-5.07,4.23-5.07,9.45-5.07S953.27,616.07,953.27,618.87Z" transform="translate(-821.25 -342.53)"/></g></svg>