<svg data-name="Layer 1" xmlns="http://www.w3.org/2000/svg" viewBox="0 0 205 233" replaceData=""><g><rect x="8" y="9" width="188" height="216" rx="2"/><path d="M1052.18,656.75h-184a10.51,10.51,0,0,1-10.5-10.5v-212a10.51,10.51,0,0,1,10.5-10.5h184a10.51,10.51,0,0,1,10.5,10.5v212A10.51,10.51,0,0,1,1052.18,656.75Zm-177.5-17h171v-199h-171Z" transform="translate(-857.68 -423.75)"/><path d="M942.62,467.94c-.07-1.92-.14-4.24-.14-6.55h-.07c-.49,2-1.16,4.3-1.77,6.17l-1.94,6.22h-2.82l-1.7-6.17c-.52-1.87-1.06-4.14-1.44-6.22h0c-.09,2.15-.16,4.61-.28,6.6l-.29,6.05h-3.33l1-15.94h4.8l1.56,5.32c.49,1.85,1,3.83,1.35,5.7h.07c.45-1.84,1-3.95,1.51-5.72l1.7-5.3h4.71l.88,15.94h-3.53Z" transform="translate(-857.68 -423.75)"/><path d="M958.64,467.3h-5.87v3.78h6.55v3H949.15V458.1H959v3h-6.22v3.31h5.87Z" transform="translate(-857.68 -423.75)"/><path d="M961.78,474V458.1H966l3.32,5.84a47.86,47.86,0,0,1,2.6,5.46H972a58.15,58.15,0,0,1-.31-6.64V458.1H975V474H971.2l-3.41-6.15a60.06,60.06,0,0,1-2.77-5.63l-.07,0c.1,2.1.15,4.35.15,6.95V474Z" transform="translate(-857.68 -423.75)"/><path d="M981.7,458.1v9.18c0,2.74,1,4.13,2.88,4.13s2.94-1.32,2.94-4.13V458.1h3.59V467c0,4.92-2.48,7.26-6.64,7.26s-6.39-2.22-6.39-7.31V458.1Z" transform="translate(-857.68 -423.75)"/><path d="M900.68,509a5,5,0,1,0,0,10C906.68,519,906.68,509,900.68,509Z" transform="translate(-857.68 -423.75)"/><path d="M900.68,547.37a5,5,0,1,0,0,10C906.68,557.37,906.68,547.37,900.68,547.37Z" transform="translate(-857.68 -423.75)"/><path d="M900.68,585.56a5,5,0,1,0,0,10C906.68,595.56,906.68,585.56,900.68,585.56Z" transform="translate(-857.68 -423.75)"/></g></svg>