<svg data-name="Layer 1" xmlns="http://www.w3.org/2000/svg" viewBox="0 0 160.05 253.82" replaceData=""><g><path d="M960.18,647.15c44.2,0,80,4.48,80,10s-35.83,10-80,10-80-4.47-80-10,35.83-10,80-10" transform="translate(-880.16 -413.34)"/><path d="M917.17,422.84h86a9.53,9.53,0,0,1,9.5,9.5h0a9.53,9.53,0,0,1-9.5,9.51h-86a9.53,9.53,0,0,1-9.5-9.51h0a9.53,9.53,0,0,1,9.5-9.5" transform="translate(-880.16 -413.34)"/><path d="M906.16,413.34h108a9.53,9.53,0,0,1,9.5,9.5h0a9.53,9.53,0,0,1-9.5,9.5h-108a9.53,9.53,0,0,1-9.5-9.5h0a9.53,9.53,0,0,1,9.5-9.5" transform="translate(-880.16 -413.34)"/><path d="M1003.43,441.54a6,6,0,0,0-12,.61l11,211.06a6,6,0,1,0,12-.61Zm-86.5,0a6,6,0,1,1,12,.61l-11,211.06a6,6,0,1,1-12-.61Z" transform="translate(-880.16 -413.34)"/><rect x="38.52" y="153.29" width="84.02" height="10"/><rect x="38.52" y="170.54" width="84.02" height="10"/></g></svg>