<svg width="75px" height="143px" id="Layer_1" xmlns="http://www.w3.org/2000/svg" viewBox="0 0 74.95 142.83"><defs><style>.cls-1{fill:#2aaabf;}.cls-2{fill:#22b5b4;}.cls-3{fill:#010101;}</style></defs><g><path class="cls-1" d="m58.17,9.02c-5.08-4.45-11.7-7.11-18.45-7.42-1.83-.08-3.73.02-5.39.78-3.23,1.49-4.87,5.07-6.02,8.43-1.91,5.55-3.26,11.3-4.01,17.13-.1.78-.18,1.59.11,2.32.83,2.05,3.72,1.91,5.93,1.69,3.8-.37,7.68.16,11.24,1.54,4.19,1.62,7.87,4.35,12,6.13,3.18,1.37,6.6,2.16,10.05,2.33.58.03,1.21.02,1.69-.32.43-.32.64-.85.82-1.36,1.25-3.43,2.5-6.86,3.75-10.28.47-1.3.95-2.64.9-4.02-.07-1.76-1-3.35-1.91-4.85-2.96-4.9-6.19-9.94-11.12-12.85"/><path class="cls-3" d="m59.23,7.96c-3.65-3.15-7.93-5.49-12.59-6.77-4.23-1.16-9.92-2.11-13.87.33s-5.38,7.08-6.66,11.16c-.83,2.65-1.54,5.34-2.11,8.06s-1.16,5.33-1.29,7.99c-.1,2.04.94,3.76,2.89,4.45s4.08.27,6.1.19c5.4-.21,10.12,1.61,14.76,4.21s8.91,4.81,14.07,5.56c2.07.3,5.02.97,6.4-1.09.64-.96.94-2.17,1.33-3.24.51-1.4,1.02-2.8,1.53-4.21.98-2.68,2.6-5.72,2.48-8.63s-1.84-5.21-3.27-7.49c-2.77-4.45-5.95-8.75-10.51-11.51-1.66-1-3.17,1.59-1.51,2.59,3.46,2.09,6.03,5.23,8.24,8.56,1.13,1.71,2.29,3.46,3.23,5.29.49.94.86,1.94.82,3.02-.05,1.25-.59,2.48-1.01,3.63-.82,2.26-1.65,4.52-2.47,6.78-.37,1.01-.61,2.39-1.2,3.28-.44.66-1.83.28-2.55.21-4.55-.47-8.61-2.27-12.56-4.49s-7.58-4.24-11.92-5.03c-2.23-.41-4.51-.56-6.78-.39-1.33.1-3.34.56-4.54-.22-.66-.42-.57-1.17-.5-1.86.12-1.26.35-2.52.56-3.76.41-2.35.91-4.68,1.51-6.98,1-3.85,2.02-8.29,4.42-11.55,2.88-3.9,8.2-3.23,12.39-2.27,4.6,1.06,8.9,3.22,12.47,6.3,1.45,1.26,3.59-.86,2.12-2.12h0Z"/></g><path class="cls-3" d="m34.88,33.19c-4.7,14.96-9.42,29.91-14.17,44.85-.59,1.84,2.31,2.63,2.89.8,4.75-14.94,9.47-29.89,14.17-44.85.58-1.85-2.32-2.64-2.89-.8h0Z"/><path class="cls-3" d="m56.85,41.55c-1.97,12.6-2.86,25.33-2.6,38.08.04,1.93,3.04,1.93,3,0-.26-12.47.56-24.96,2.49-37.29.3-1.89-2.59-2.7-2.89-.8h0Z"/><path class="cls-3" d="m56.39,78.88c-10.96-2.35-22.22-4.63-33.4-2.43-1.89.37-1.09,3.26.8,2.89,10.62-2.09,21.41.2,31.81,2.43,1.88.4,2.69-2.49.8-2.89h0Z"/><path class="cls-3" d="m22.63,75.4c-4.84-.7-9.97-1.08-14.82-.26-4.09.69-7.18,3.33-7.71,7.54-.24,1.92,0,3.88.44,5.76.38,1.67.8,4.13,2.06,5.39,1.73,1.72,4.43.09,6.35-.41,2.39-.63,4.83-1.01,7.29-1.25,10.23-1,20.68-.88,30.94-.4,5.22.24,10.42.63,15.62,1.17,2.6.27,5.19.59,7.78.92,2.2.28,3.7-.71,4.07-2.92.4-2.41.62-5.11-.65-7.31-1.01-1.75-2.76-2.87-4.66-3.47-4.97-1.58-10.06,1.12-14.98-.29-1.86-.53-2.65,2.36-.8,2.89,4.05,1.16,7.97-.29,12.05-.19,3.29.09,6.39,1.48,6.36,5.19,0,.9-.11,1.8-.26,2.69-.07.4-.03.4-.29.5-.41.16-1.37-.16-1.81-.21-2.18-.28-4.37-.54-6.56-.77-4.46-.47-8.94-.83-13.42-1.07-8.96-.49-17.94-.54-26.91-.14-4.2.19-8.43.46-12.56,1.31-.97.2-1.94.44-2.89.71-.49.14-2.38.99-2.65.79-.4-.3-.57-1.63-.71-2.12-.25-.83-.46-1.67-.63-2.53-.74-3.78,0-7.57,4.18-8.64,2.1-.54,4.36-.54,6.52-.54,2.63,0,5.26.18,7.87.56,1.89.27,2.7-2.62.8-2.89h0Z"/><path class="cls-3" d="m9.78,92.86c-1.21,4.83-1.91,9.79-2.03,14.76-.06,2.5.02,5,.25,7.49.2,2.16.38,4.44,1.01,6.53.57,1.87,1.65,3.54,3.39,4.5s3.92,1.24,5.9,1.31c2.57.09,3.26-1.82,3.8-3.99.58-2.31.78-4.7.65-7.08-.11-1.92-3.11-1.93-3,0s0,3.92-.44,5.84c-.12.52-.23,1.92-.68,2.24-.31.22-1.86-.13-2.22-.19-1.6-.24-3.2-.75-4.03-2.25s-.96-3.23-1.16-4.82c-.99-7.87-.48-15.86,1.45-23.55.47-1.87-2.42-2.67-2.89-.8h0Z"/><path class="cls-3" d="m18.48,125.63c-.1,1.95-.06,4.11,1.02,5.81,1.38,2.17,4.19,2.61,6.46,3.34,1.27.41,2.54.81,3.81,1.22,1.2.38,2.41.88,3.66,1.07s2.59-.15,3.37-1.27c.6-.87.7-1.94.75-2.97.13-3.11.15-6.23.07-9.34-.05-1.93-3.05-1.93-3,0,.07,2.85.06,5.7-.04,8.55-.02.54,0,1.11-.1,1.64-.02.11-.06.34-.15.43.02-.02.08.01-.13.02-.51.02-1.01-.2-1.49-.35-.71-.23-1.42-.45-2.13-.68-1.32-.42-2.64-.84-3.96-1.27-.71-.23-1.42-.45-2.13-.68-.58-.18-1.23-.32-1.75-.64-1.54-.94-1.33-3.35-1.25-4.89.1-1.93-2.9-1.92-3,0h0Z"/><path class="cls-3" d="m33.43,134.45l2.47,4.97c.73,1.46,1.29,3.28,3.19,3.4.88.06,1.82-.14,2.7-.22s1.67-.16,2.5-.24c1.85-.18,3.69-.36,5.54-.53s3.6-.28,3.79-2.45c.16-1.72.04-3.51.03-5.23-.03-3.65-.17-7.3-.4-10.94-.12-1.92-3.12-1.93-3,0,.19,3.06.32,6.11.37,9.18.03,1.53.04,3.06.03,4.59,0,.23-.19,2.02-.02,2.12.58-.36.61-.48.09-.35l-.36.03c-.42.04-.83.08-1.25.12-3.04.29-6.07.6-9.11.88-.16.02-.91-.06-.46.23-.19-.13-.32-.63-.43-.86l-1.08-2.17-2.01-4.04c-.86-1.73-3.45-.21-2.59,1.51h0Z"/><path class="cls-3" d="m52.22,139.04c2.26-.33,4.49-.76,6.7-1.31,1.71-.43,4.18-.77,5.19-2.43.46-.76.5-1.65.5-2.51,0-.67-.09-1.02.59-1.22,1.23-.36,2.53-.17,3.68-.85,1.64-.99,1.51-2.78,1.39-4.45-.16-2.16-.18-4.33-.06-6.49.26-4.51,1.2-8.94,2.69-13.19.25-.72-.29-1.7-1.05-1.85-2.21-.42-3.58-2.77-4.81-4.45-1.52-2.08-2.87-4.26-3.44-6.8-.42-1.88-3.32-1.09-2.89.8.69,3.07,2.39,5.71,4.25,8.2,1.6,2.13,3.29,4.62,6.09,5.14l-1.05-1.85c-1.38,3.93-2.26,8-2.66,12.14-.19,2-.26,4.01-.2,6.02.03.93.08,1.85.16,2.78.06.74.32,1.3-.24,1.52-1.12.44-2.39.2-3.5.73-1.39.66-1.92,1.95-1.96,3.43-.02,1.1.15,1.38-.98,1.74-.9.29-1.82.52-2.73.74-2.14.53-4.3.94-6.48,1.26-1.9.27-1.09,3.17.8,2.89h0Z"/><path class="cls-3" d="m60.87,128.97l-.11.09,1.06-.44c.42.31.58.36.5.16-.1-.14-.19-.28-.29-.42-.14-.21-.29-.42-.43-.63-.33-.49-.67-.98-1-1.47-.65-.96-1.38-1.9-1.94-2.91-.42-.77-.03-1.47.35-2.19.56-1.06,1.13-2.11,1.69-3.17.91-1.7-1.68-3.22-2.59-1.51-.72,1.35-1.52,2.68-2.13,4.08-.7,1.61-.64,3.17.31,4.67.84,1.33,1.77,2.61,2.65,3.92.43.64.83,1.4,1.4,1.92.82.74,1.82.7,2.65.04.63-.51.53-1.59,0-2.12-.63-.63-1.49-.51-2.12,0h0Z"/><g><path class="cls-2" d="m41.45,95.63c-6.21.23-12.67.53-18.14,3.47-.72.39-1.46.86-1.85,1.58-.47.86-.37,1.92-.21,2.89.17,1.06.39,2.12.65,3.17.16.65.36,1.33.84,1.8.39.38.91.58,1.43.74,3.3,1.03,6.84.95,10.29.8,6.1-.27,12.2-.76,18.27-1.47.47-.05.99-.13,1.31-.49.36-.4.34-.99.29-1.53-.25-2.93-.65-5.85-1.2-8.74-.1-.54-.23-1.12-.64-1.49-.35-.32-.85-.41-1.32-.49-4.08-.67-8.23-.94-12.36-.83"/><path class="cls-3" d="m41.45,94.13c-6.15.23-12.5.54-18.13,3.28-1.11.54-2.26,1.17-2.97,2.22-.88,1.31-.78,2.85-.55,4.34s.46,3.13,1.1,4.49c.69,1.47,2.02,2.04,3.51,2.44,3.12.83,6.39.82,9.59.69,3.45-.14,6.9-.37,10.34-.65,1.65-.14,3.29-.29,4.93-.46,1.53-.16,3.69-.04,5.08-.78,1.22-.65,1.54-1.81,1.47-3.11-.1-1.76-.36-3.53-.61-5.27-.23-1.64-.27-3.7-1.06-5.19s-2.44-1.7-4-1.92c-3.76-.53-7.55-.76-11.34-.67-1.93.05-1.93,3.05,0,3,2.7-.07,5.41.02,8.1.28,1.29.12,2.59.26,3.86.5.62.12.6.09.85.6.26.54.27,1.43.37,2.02.22,1.32.41,2.64.57,3.97.08.65.15,1.3.21,1.95.03.3.09.6.08.89.01.16.02.33,0,.49l-.16-.14c-.48.23-1.4.16-1.93.22-.66.07-1.31.14-1.97.21-1.48.15-2.96.28-4.44.41-5.19.43-10.56,1.03-15.77.63-1.21-.09-2.41-.29-3.58-.62-.6-.17-1.1-.28-1.43-.84-.29-.51-.36-1.33-.49-1.9-.22-1.04-.72-2.51-.39-3.56.31-.97,1.69-1.45,2.53-1.84,5.04-2.31,10.78-2.49,16.22-2.69,1.92-.07,1.93-3.07,0-3h0Z"/></g></svg>