<?xml version="1.0" encoding="UTF-8"?><svg width="108px" height="98px" id="Layer_1" xmlns="http://www.w3.org/2000/svg" viewBox="0 0 107.15 97.93"><defs><style>.cls-1{fill:#9b9b9b;}.cls-2{fill:#010101;}</style></defs><g><path class="cls-1" d="m27.39,67.72c.16,5.31.33,10.62.49,15.93.1,3.21.13,6.67-1.73,9.29,9.8,3.43,20.41,3.56,30.79,3.46,12.5-.12,25-.52,37.48-1.21-3.86-13.62-4.45-28.16-1.71-42.04.2-.99.42-2,.98-2.83.57-.85,1.44-1.44,2.25-2.08,6.11-4.8,9.09-12.72,9.62-20.47.53-7.75-1.11-15.46-2.74-23.05-.18-.85-.41-1.78-1.11-2.31-.55-.42-1.29-.49-1.99-.53-6.2-.31-12.32,1.18-18.46,2.09C58.02,7.42,34.45,2.68,10.99,1.48c-.66-.03-1.36-.06-1.94.27-.56.32-.9.93-1.2,1.5C2.35,13.91.33,26.32,2.16,38.16c.63,4.09,1.9,8.41,5.15,10.97,1.57,1.24,3.48,1.96,5.37,2.63,2.28.82,4.58,1.6,6.89,2.35,2.71.88,5.6,1.8,7.43,3.98,2.82,3.34,1.19,5.33.38,9.63"/><path class="cls-2" d="m25.89,67.72c.14,4.48.28,8.96.41,13.44.11,3.64.69,7.83-1.44,11.02-.57.85.04,1.91.9,2.2,8.22,2.83,16.96,3.46,25.59,3.53,9.1.07,18.21-.18,27.3-.51,5.26-.19,10.52-.43,15.77-.72.96-.05,1.72-.92,1.45-1.9-2.6-9.25-3.7-18.85-3.25-28.45.11-2.41.32-4.81.63-7.2.29-2.26.55-4.67,1.21-6.85.6-2,2.7-2.98,4.13-4.35s2.64-2.9,3.68-4.54c4.57-7.19,5.44-16.01,4.59-24.31-.51-4.96-1.48-9.89-2.59-14.75-.43-1.91-1.37-3.48-3.44-3.83-2.28-.38-4.76-.15-7.04.07-4.85.47-9.62,1.55-14.45,2.17s-9.96.92-14.96.96c-9.97.08-19.92-.82-29.83-1.77-4.94-.47-9.88-.97-14.82-1.37-2.51-.2-5.02-.38-7.53-.52-2.2-.12-4.09-.12-5.36,1.94-1.15,1.87-1.99,4.03-2.79,6.06s-1.53,4.27-2.1,6.46C.82,18.8.18,23.24.03,27.68s.15,8.85,1.1,13.13c.83,3.73,2.44,7.42,5.59,9.75,1.79,1.33,3.93,2.08,6.02,2.82,2.26.8,4.53,1.56,6.8,2.3,3.04.99,7.91,2.71,7.52,6.73-.16,1.66-.81,3.28-1.13,4.92-.37,1.89,2.52,2.69,2.89.8.63-3.21,2.13-6.43.34-9.55-2-3.49-5.83-4.81-9.44-5.98-2.3-.75-4.59-1.52-6.86-2.34-1.92-.69-3.87-1.46-5.35-2.92-2.72-2.69-3.56-6.79-4.05-10.43-1.17-8.65-.22-17.55,2.62-25.79.7-2.02,1.51-4,2.44-5.92.42-.86.76-2.16,1.83-2.23,1.15-.07,2.36.11,3.52.18,4.87.31,9.72.74,14.58,1.2,9.53.91,19.07,1.92,28.65,2.25s19.09-.22,28.56-1.83c4.62-.79,9.35-1.69,14.05-1.38,1.12.07,1.36.48,1.61,1.55.27,1.17.5,2.34.75,3.51.49,2.38.96,4.77,1.33,7.18,1.27,8.3,1.26,17.22-2.87,24.78-.88,1.6-1.91,3.11-3.15,4.46-1.3,1.41-2.97,2.41-4.27,3.8-1.52,1.62-1.82,3.82-2.19,5.92-.4,2.28-.72,4.57-.95,6.87-.93,9.11-.44,18.36,1.36,27.34.46,2.29,1.01,4.56,1.64,6.8l1.45-1.9c-9.11.5-18.24.85-27.36,1.05-8.71.19-17.5.51-26.19-.29-4.87-.45-9.68-1.36-14.31-2.96l.9,2.2c2.28-3.41,2-7.63,1.88-11.54-.15-4.81-.3-9.62-.44-14.43-.06-1.93-3.06-1.93-3,0h0Z"/></g><path class="cls-2" d="m29.23,54.57c20.34-.97,40.6-3.23,60.66-6.75,1.9-.33,1.09-3.22-.8-2.89-19.79,3.47-39.79,5.69-59.86,6.64-1.92.09-1.93,3.09,0,3h0Z"/><path class="cls-2" d="m58.78,32.91c2.78,9.65,4.52,19.57,5.12,29.6.3,4.96.32,9.93.08,14.89-.23,4.62-.48,9.49-2.89,13.57-.99,1.66,1.61,3.18,2.59,1.51,1.91-3.23,2.64-6.88,3-10.57.39-4.01.5-8.05.47-12.08-.05-8.09-.82-16.19-2.27-24.15-.83-4.58-1.91-9.11-3.19-13.57-.53-1.85-3.43-1.06-2.89.8h0Z"/><path class="cls-2" d="m54.72,67.35c4.19.36,8.38.22,12.54-.37,3.04-.43,6.86-1.22,7.28-4.87.09-.81-.75-1.5-1.5-1.5-.89,0-1.41.69-1.5,1.5s-1.39,1.21-2.01,1.4c-1.42.42-2.95.58-4.42.74-3.45.37-6.93.4-10.39.1-1.92-.16-1.91,2.84,0,3h0Z"/><path class="cls-2" d="m54.38,81.41c7.13,1.86,14.85.75,21.16-3.07,1.65-1,.14-3.59-1.51-2.59-5.63,3.41-12.47,4.42-18.84,2.76-1.87-.49-2.67,2.41-.8,2.89h0Z"/></svg>