<svg width="250px" height="250px" xmlns="http://www.w3.org/2000/svg" xmlns:xlink="http://www.w3.org/1999/xlink" aria-hidden="true" role="img" class="iconify iconify--twemoji" preserveAspectRatio="xMidYMid meet">



	<svg viewBox="0 0 128 128" xmlns="http://www.w3.org/2000/svg" xmlns:xlink="http://www.w3.org/1999/xlink" aria-hidden="true" role="img" class="iconify iconify--noto" preserveAspectRatio="xMidYMid meet" id="dummyId"><path d="M123.43 50.54c-2.44-9.55-4.56-13.75-8.91-14.56c-4.18-.78-10.12 1.93-11.6 2.73l-.02-.07s.34-1.85-.14-3.71s-2.4-2.61-2.95-2.47L25.58 43.38l-.5 2.95l-.94 4.73c-2.42-.44-8.81-1.29-12.26 1.25c-4.31 3.17-6.05 9-7.11 16.63s-.38 11.62 2.04 14.21c2.97 3.19 7.63 4.09 10.06 4.35l-1.4 7s-1.72.62-2.75 3.5s.34 5.63.34 5.63s2.87-5.06 25.01-1.15c22.47 3.97 23.51 8.84 23.51 8.84s1.24-1.24 2.2-4.19s-.82-6.04-.82-6.04l4.32-19.08l4.32 11.8s-1.6 1.94-.89 4.74c.85 3.37 8.84 10.23 28.64 2.77c19.63-7.41 20.25-17.85 19.12-21.09c-.77-2.22-3.36-2.81-3.36-2.81l-1.14-3.63c1.11-.64 2.82-1.76 5.4-3.72c6.04-4.58 6.53-9.85 4.06-19.53zM11.12 76.72c-1.51-4.61 1.06-16.21 3.25-17.92c3.24-2.53 6.67-1.3 8.31-.45l-4.45 22.33c-1.73.02-5.92-.32-7.11-3.96zm106.82-17.11c-.5 3.92-4.89 5.42-6.59 5.86l-6.41-20.35c1.53-1.04 4.52-2.55 7.01-2.27c2.6.3 6.61 11.89 5.99 16.76z" opacity=".5" fill="#fff"></path><path d="M123.43 50.54c-2.44-9.55-4.61-13.52-8.91-14.56c-5.97-1.45-11.62 2.66-11.62 2.66s.34-1.85-.14-3.71s-2.4-2.61-2.95-2.47L25.58 43.38l-.5 2.95l-.94 4.73c-2.42-.44-8.81-1.29-12.26 1.25c-4.31 3.17-6.05 9-7.11 16.63s-.38 11.62 2.04 14.21c2.97 3.19 7.63 4.09 10.06 4.35l-1.4 7s-1.72.62-2.75 3.5s.34 5.63.34 5.63s1.54-2.53 10.47-2.57c3.56-.02 8.24.29 14.54 1.42c21.97 3.94 23.51 8.84 23.51 8.84s1.24-1.24 2.2-4.19s-.82-6.04-.82-6.04l4.32-19.08l4.32 11.8s-1.6 1.94-.89 4.74c.85 3.37 8.84 10.23 28.64 2.77c19.63-7.41 20.25-17.85 19.12-21.09c-.77-2.22-3.36-2.81-3.36-2.81l-1.14-3.63c1.11-.64 2.82-1.76 5.4-3.72c6.04-4.58 6.53-9.85 4.06-19.53zM11.12 76.72c-1.51-4.61 1.06-16.21 3.25-17.92c3.24-2.53 6.67-1.3 8.31-.45l-4.45 22.33c-1.73.02-5.92-.32-7.11-3.96zm106.82-17.11c-.5 3.92-4.89 5.42-6.59 5.86l-6.41-20.35c1.53-1.04 4.52-2.55 7.01-2.27c2.6.3 6.61 11.89 5.99 16.76z" opacity=".7" fill="#e0e0e0"></path><path d="M36.32 113.32c-21.53-3.22-23.26-9.69-23.26-9.69s2.67-5 25.01-1.15c21.78 3.75 23.51 8.84 23.51 8.84s-1.78 5.52-25.26 2z" opacity=".7" fill="#bcbcbc"></path><radialGradient id="IconifyId17ecdb2904d178eab6083" cx="38.178" cy="106.632" r="60.091" gradientUnits="userSpaceOnUse"><stop offset=".331" stop-color="#fdb408"></stop><stop offset=".502" stop-color="#f1a20d"></stop><stop offset=".745" stop-color="#db8116"></stop></radialGradient><path d="M29.16 49.11S21.4 87.76 21.18 89.5c-.22 1.74-.22 3.41 1.74 3.92s10.01.65 18.2 2.18s13.78 3.99 15.08 4.42s2.76-.36 3.55-2.97c.8-2.61 9.35-40.02 9.35-40.02L49.97 44.11l-20.81 5z" fill="url(#IconifyId17ecdb2904d178eab6083)"></path><radialGradient id="IconifyId17ecdb2904d178eab6084" cx="76.648" cy="36.911" r="45.012" gradientUnits="userSpaceOnUse"><stop offset=".628" stop-color="#db8116"></stop><stop offset=".786" stop-color="#ee9d0e"></stop><stop offset=".939" stop-color="#fdb408"></stop></radialGradient><path d="M69.32 74.1l3.76-19.35l24.69-14.71s11.25 34.83 11.73 36.33c.6 1.88-2.24 8.22-13.62 13.03s-19.04 2.73-20 .89c-.95-1.83-6.56-16.19-6.56-16.19z" fill="url(#IconifyId17ecdb2904d178eab6084)"></path><path d="M74.48 44.82l21.5-10.28l2.29 6.97s-1.77 4.69-11.73 9.18c-8.67 3.91-13.68 2.97-13.68 2.97l1.62-8.84z" fill="#f4d097"></path><path d="M30.55 42.78l-2.97 13.68S32 53.66 43.3 54c11.3.34 24.83 7.42 24.83 7.42l.67-3.03l2.46-11.18l-40.71-4.43z" fill="#f4d097"></path><path d="M23.39 39.17c-.82 6.61 2.45 11.17 10.37 12c7.02.73 11.02-2.77 14.94.82c4.98 4.57-1.8 19.42-2.29 21.71s-.82 5.14 1.55 5.79c2.37.65 4.07-2.31 4.73-4.9c1.63-6.37 4.65-16.16 8.49-17.14c5.38-1.37 4.54 2.71 10.12 1.8c4.98-.82 6.77-5.63 7.1-7.75c.33-2.12-.82-5.22-.82-5.22s2.86-.98 6.04-2.86s3.9-3.39 6.37-4.73c3.59-1.96 8.9-1.42 11.43-5.79c2.77-4.82 2.53-15.22-7.8-16.25c-3.26-.33-5.02.85-7.22.66c-2.51-.22-3.4-1.91-7.75-1.1c-4.36.81-5.39 4.04-7.92 4.69c-2.8.72-6.94.08-10.94 3.02s-4.98 6.77-4.98 6.77s-3.07-1.27-7.26-.98c-4.56.31-6.45 2.2-9.71 1.96s-13.12-3.28-14.45 7.5z" fill="#ffebc9"></path><path d="M87.75 56.38c-1.17-.23-2.21.74-2.29 2.29c-.08 1.55.54 2.44 1.32 2.48s1.63-.54 1.94-2.01c.31-1.48 0-2.57-.97-2.76z" fill="#ffe267"></path><path d="M85.8 69.51c-.48.82.12 1.7.77 2.17s1.7.35 1.94-.19c.23-.54.31-1.55-.46-2.17c-.77-.62-1.74-.66-2.25.19z" fill="#ffe267"></path><path d="M91.77 72.22c-1.05-.12-1.9.74-1.9 2.52s.66 2.45 1.63 2.52c1.12.08 1.74-1.74 1.78-2.83c.04-1.08-.19-2.05-1.51-2.21z" fill="#ffe267"></path><path d="M93.74 82.21c-.74-.81-2.01-.43-2.6.54c-.48.79-.58 2.01.12 2.52c.7.5 1.76.2 2.21-.58c.58-1 .66-2.05.27-2.48z" fill="#ffe267"></path><path d="M44.13 62.11c-.52.4-.58 1.55 0 2.4c.58.85 1.59 1.01 1.94.46c.35-.54.19-1.55-.12-2.17c-.31-.61-1.01-1.31-1.82-.69z" fill="#ffe267"></path><path d="M41.22 71.68c.9.86 2.32.15 2.94-.74c.62-.89.77-1.9.15-2.52s-1.8-.5-2.67.12c-1.04.74-1.31 2.29-.42 3.14z" fill="#ffe267"></path><path d="M37.7 73.42c-1.12-.15-2.13.95-2.13 2.52c0 1.74 1.05 3.21 2.09 3.1c1.08-.12 1.74-1.47 1.78-2.83c.04-1.35-.58-2.63-1.74-2.79z" fill="#ffe267"></path><path d="M36.84 85.72c-.8.14-1.24 1.01-1.09 2.16c.14 1.09.79 2 1.91 1.8c.84-.14 1.12-1.29 1.01-2.38c-.1-1.09-.92-1.74-1.83-1.58z" fill="#ffe267"></path><path d="M11.02 57.84c1.22.89 2.33-1.5 4.05-2.44c1.7-.93 3.27-1.55 2.55-2.78c-.72-1.22-3.11-1.05-4.77.11c-1.66 1.17-3.37 3.99-1.83 5.11z" fill="#fff"></path><path d="M28.78 50.84c-1.33-.28-1.94.56-2.16 1.61c-.22 1.07.11 2.22 1.17 2.5s2.16-.56 2.39-1.72c.21-1.14-.2-2.14-1.4-2.39z" fill="#fff"></path><path d="M27.76 56.41c-1.97-.38-2.67 2.39-3.6 7.43c-.85 4.58-3.73 20.15-3.73 21.37s0 2.55 1.28 2.88c1.28.33 2.38-.82 2.85-3.06c.42-1.99 4.25-24.25 4.47-25.75s-.21-2.67-1.27-2.87z" fill="#fff"></path><path d="M12.74 61.83c.06.09 1.8-2.83 5.82-2.57c2.37.15 3.38.94 3.72.77c.34-.17 1.03-2.7.81-3.25c-.21-.56-2.63-1.39-5.16-.97c-4.4.75-5.62 5.4-5.19 6.02z" fill="#b0b0b0"></path><path d="M5.31 80.84c-.17.37 1.61 4.69 5.2 6.5c3.18 1.6 6.13 1.57 6.29 1.07c.13-.39.43-1.63.47-2.91c.03-.84-1.68-.27-5.52-1.46c-4.84-1.48-6.27-3.59-6.44-3.2z" fill="#b0b0b0"></path><path d="M39.64 35.36c-1.42.39-4.23-.91-6.96-.65c-2.54.24-5.04 1.93-5.33 5.49c-.49 6.02 5.22 6.41 7.93 6.3c2.72-.11 10.49-1.9 14.24.92c3.78 2.85 4.08 7.88 3.53 10.6s-3.67 13.1-4.08 14.45c-.76 2.55.54 2.83 1.47 1.3c.92-1.52 4.18-13.31 5.6-15.92s2.93-4.56 5.49-4.84c4.08-.43 4.02 1.36 8.48 1.36c3.91 0 5.49-3.77 3.64-7.55c-2.45-5-10-5.43-10.92-5.92s-3.59-6.09-10.05-7.34s-9.73.88-13.04 1.8z" fill="#fff"></path><path d="M58.56 31.71s1.63 1.19 3.11 2.74c.94.98 2.05 2.99 3.36 3.37s2.98.18 5.78 1.42c2.8 1.24 4.23 2.92 4.23 2.92s2.99-.44 5.66-2.43c2.67-1.99 5.22-5.22 8.65-5.97c3.42-.75 11.55-2 9.08-8.52c-2.68-7.06-9.46-3.49-11.45-3.67s-3.37-2.49-8.4-1.18c-3.39.88-4.09 4.05-7.45 4.42c-3.36.37-5.79-.32-8.71 1.86c-2.92 2.18-3.86 5.04-3.86 5.04z" fill="#fff"></path><path d="M58.57 19.68c-.05 0-.1 0-.16-.01c-.91-.09-1.57-.89-1.49-1.8l1-10.57c.08-.91.89-1.58 1.8-1.49c.91.09 1.57.89 1.49 1.8l-1 10.57c-.08.86-.8 1.5-1.64 1.5z" fill="#ff2a23"></path><path d="M53.96 22.23c-.53 0-1.06-.26-1.38-.74L45.3 10.54c-.5-.76-.3-1.78.46-2.29c.76-.5 1.78-.3 2.29.46l7.28 10.95c.5.76.3 1.78-.46 2.29c-.28.19-.59.28-.91.28z" fill="#ff2a23"></path><path d="M49.79 26.08c-.2 0-.4-.04-.6-.11l-10.82-4.23a1.654 1.654 0 0 1-.94-2.14c.33-.85 1.29-1.27 2.14-.94L50.4 22.9c.85.33 1.27 1.29.94 2.14c-.26.65-.89 1.04-1.55 1.04z" fill="#ff2a23"></path><path d="M72.75 67.28c-1.55.65-1.25 3.3 0 6.6s4.15 11.75 4.8 13.15c.65 1.4 1.5 2.45 3.1 1.95c1.6-.5.95-2.45.4-4.4c-.55-1.95-4.25-12.45-4.85-14.1c-.6-1.65-1.31-4.1-3.45-3.2z" fill="#feffff"></path><path d="M18.36 101.41s1.73 4.76 18.62 7.18s20.89-.32 20.89-.32s-5.84-3.56-19.99-5.89c-14.92-2.46-19.52-.97-19.52-.97z" fill="#bcbcbc"></path><path d="M16.74 95.73c-1.48-.19-2.36 1.13-2.71 1.87c-.34.74-.69 2.71.59 2.91s2.36-1.03 2.76-2.07c.39-1.04.49-2.56-.64-2.71z" fill="#fff"></path><path d="M18.61 96.91c-.16 1.48 1.58 1.63 3.94 1.67s10.47.73 15.76 1.72c11.03 2.07 18.03 4.92 20.29 6.06c2.27 1.13 2.49-.08 2.51-.39c.05-.89-1.48-2.31-3.5-3.3c-1.56-.76-6.99-3.94-18.47-5.71c-11.12-1.72-16.84-1.23-18.03-1.18c-1.17.05-2.4.25-2.5 1.13z" fill="#d4d4d4"></path><path d="M75.97 93.04c-.22.72.97 1.73 3.68 2.23c3.56.65 10.13.12 17.22-2.7c7.05-2.8 11.25-6.51 13.59-9.34c1.46-1.77 1.45-3.82.89-4.27c-.71-.57-1.1 1.2-2.71 3.13c-1.56 1.87-5.23 5.26-12.53 8.52c-7.24 3.23-12.82 3.2-16.05 2.79c-2.25-.28-3.78-1.38-4.09-.36z" fill="#9e9e9e"></path><path d="M73.33 96.24c-.25 1.37 2.01 2.67 3.07 3.14c3.07 1.34 11.15 2.04 21.66-2.03c13.64-5.29 16.52-11.36 17.43-13.07c.93-1.76.53-2.57.1-2.8c-.67-.36-1.47.14-2.39 1.35c-2.85 3.73-6.79 7.62-16.18 11.46s-15.88 3.68-20.23 2.28c-1.2-.39-3.2-1.73-3.46-.33z" fill="#d5d5d5"></path><path d="M113.57 72.55c-.47 1.16.41 2.49.57 2.54l.16.05s4.89-2.33 7.97-6.03c3.16-3.79 3.06-9.03 2.59-9.09c-.36-.05-1.26 4.26-5.68 8.43c-3.67 3.46-5.01 2.59-5.61 4.1z" fill="#b0b0b0"></path><path d="M104.31 43.37l.96 2.95s2.58-2.67 5.98-2.41c3.4.26 4.11 3.99 4.25 3.99c.78.01.79-5.1-2.51-6.42c-4.01-1.62-8.68 1.89-8.68 1.89z" fill="#b0b0b0"></path></svg>

	<svg viewBox="0 0 36 36" xmlns="http://www.w3.org/2000/svg" xmlns:xlink="http://www.w3.org/1999/xlink" aria-hidden="true" role="img" class="iconify iconify--twemoji ShowMe" preserveAspectRatio="xMidYMid meet"><path fill="#FFDC5D" d="M36 18.5c0-1.639-.97-3.004-2.273-3.385C32.367 7.658 25.85 2 18 2C10.15 2 3.633 7.658 2.273 15.115C.97 15.496 0 16.861 0 18.5c0 1.736 1.087 3.168 2.51 3.442C4.269 28.868 10.527 34 18 34c7.473 0 13.731-5.132 15.49-12.058C34.912 21.668 36 20.236 36 18.5z"></path><path fill="#662214" d="M18 25c-3 0-4-1-4 1s2 4 4 4s4-2 4-4s-1-1-4-1z"></path><circle fill="#662214" cx="22.5" cy="18.5" r="2.5"></circle><circle fill="#662214" cx="13.5" cy="18.5" r="2.5"></circle><path fill="#FFF" d="M18 26h2v1s0 1-1 1s-1-1-1-1v-1z"></path><path fill="#EF9645" d="M17.982 11h-.031a4.362 4.362 0 0 1-3.135-1.304a3.739 3.739 0 0 1-1.076-2.847a.992.992 0 0 1 1.057-.935c.551.033.972.508.939 1.06c-.029.495.155.983.503 1.336a2.425 2.425 0 0 0 1.725.729c.653-.036 1.27-.247 1.735-.705a3.312 3.312 0 0 0 .032-4.677a4.391 4.391 0 0 0-6.202-.042a.999.999 0 1 1-1.404-1.424a6.394 6.394 0 0 1 9.03.062a5.29 5.29 0 0 1-.052 7.486c-.836.826-1.945 1.261-3.121 1.261z"></path></svg>


<!-- Generator: Adobe Illustrator 19.0.0, SVG Export Plug-In . SVG Version: 6.00 Build 0)  -->
<svg version="1.1" id="Layer_1" xmlns="http://www.w3.org/2000/svg" xmlns:xlink="http://www.w3.org/1999/xlink" x="0px" y="0px"
	 viewBox="0 0 508.469 508.469" style="enable-background:new 0 0 508.469 508.469;" xml:space="preserve">
<path style="fill:#FDC794;" d="M97.103,262.719c-19.421,0-34.428-8.828-40.607-14.124c-3.531-3.531-10.593-5.297-15.89-6.179
	C19.421,238.002,0,222.112,0,200.926v-60.028c0-28.248,22.952-51.2,51.2-51.2h16.772c17.655-16.772,44.138-32.662,44.138-32.662
	c32.662-17.655,64.441-49.434,66.207-49.434s6.179-1.766,10.593,5.297c0.883,1.766,2.648,4.414,3.531,6.179
	c5.297,15.007-3.531,34.428-15.007,47.669c-3.531,4.414-8.828,7.945-13.241,10.593l-14.124,8.828H291.31
	c12.359,0,22.952,8.828,22.952,21.186c0,14.124-10.593,22.952-22.952,22.952h-79.448h17.655c12.359,0,22.069,8.828,22.069,22.069
	s-10.593,22.069-22.069,22.069h-17.655h-8.828c8.828,0,22.069,8.828,22.069,22.952c0,12.359-10.593,21.186-22.069,21.186h-17.655
	c12.359,0,22.069,8.828,22.069,17.655C207.448,260.07,180.083,262.719,97.103,262.719"/>
<g>
	<path style="fill:#F9A671;" d="M44.138,139.133c-0.883,0-1.766,0-2.648,0c-4.414-1.766-7.062-6.179-6.179-10.593
		c4.414-15.007,17.655-28.248,26.483-37.076l2.648-2.648c3.531-3.531,8.828-3.531,12.359,0c3.531,3.531,3.531,8.828,0,12.359
		l-2.648,2.648c-7.062,7.062-18.538,17.655-22.069,29.131C51.2,136.484,47.669,139.133,44.138,139.133z"/>
	<path style="fill:#F9A671;" d="M132.414,103.822c-3.531,0-6.179-1.766-7.945-5.297c-1.766-4.414,0-9.71,3.531-11.476l17.655-8.828
		c4.414-1.766,9.71,0,11.476,3.531c1.766,4.414,0,9.71-3.531,11.476l-17.655,8.828C135.062,103.822,133.297,103.822,132.414,103.822
		z"/>
	<path style="fill:#F9A671;" d="M211.862,139.133h-61.793c-5.297,0-8.828-3.531-8.828-8.828s3.531-8.828,8.828-8.828h61.793
		c5.297,0,8.828,3.531,8.828,8.828S216.276,139.133,211.862,139.133z"/>
	<path style="fill:#F9A671;" d="M203.034,183.27h-44.138c-5.297,0-8.828-3.531-8.828-8.828c0-5.297,3.531-8.828,8.828-8.828h44.138
		c5.297,0,8.828,3.531,8.828,8.828C211.862,179.739,207.448,183.27,203.034,183.27z"/>
	<path style="fill:#F9A671;" d="M185.379,227.408h-35.31c-5.297,0-8.828-3.531-8.828-8.828s3.531-8.828,8.828-8.828h35.31
		c5.297,0,8.828,3.531,8.828,8.828S189.793,227.408,185.379,227.408z"/>
	<path style="fill:#F9A671;" d="M56.497,248.595c-1.766,0-3.531-0.883-5.297-1.766c-8.828-6.179-10.593-9.71-14.124-23.834
		c-0.883-4.414,1.766-9.71,6.179-10.593s9.71,1.766,10.593,6.179c2.648,10.593,2.648,10.593,7.945,14.124
		c4.414,3.531,5.297,8.828,1.766,12.359C61.793,247.712,59.145,248.595,56.497,248.595z"/>
</g>
<path style="fill:#FDC794;" d="M411.366,501.064c19.421,0,34.428-8.828,40.607-14.124c4.414-3.531,10.593-5.297,15.89-7.062
	c21.186-4.414,40.607-20.303,40.607-41.49V378.36c0-28.248-22.952-51.2-51.2-51.2h-16.772
	c-17.655-16.772-44.138-32.662-44.138-32.662c-32.662-17.655-64.441-49.434-66.207-49.434c-1.766,0-6.179-1.766-10.593,5.297
	c-0.883,1.766-2.648,4.414-3.531,6.179c-5.297,15.007,3.531,34.428,15.007,47.669c3.531,4.414,7.945,7.945,13.241,10.593
	l14.124,8.828H217.159c-12.359,0-22.952,8.828-22.952,21.186c0,14.124,10.593,22.952,22.952,22.952h79.448h-17.655
	c-12.359,0-22.069,8.828-22.069,22.069c0,13.241,10.593,22.069,22.069,22.069h17.655h8.828c-8.828,0-22.069,8.828-22.069,22.952
	c0,12.359,10.593,21.186,22.069,21.186h17.655c-12.359,0-22.069,8.828-22.069,17.655
	C301.021,498.415,328.386,501.064,411.366,501.064"/>
<g>
	<path style="fill:#F9A671;" d="M464.331,377.477c-3.531,0-7.062-2.648-8.828-6.179c-2.648-10.593-14.124-22.069-22.069-29.131
		l-2.648-2.648c-3.531-3.531-3.531-8.828,0-12.359c3.531-3.531,8.828-3.531,12.359,0l2.648,2.648
		c8.828,8.828,22.069,21.186,26.483,37.076c1.766,4.414-1.766,9.71-6.179,10.593C466.097,377.477,465.214,377.477,464.331,377.477z"
		/>
	<path style="fill:#F9A671;" d="M376.055,342.167c-1.766,0-2.648,0-3.531-0.883l-17.655-8.828
		c-4.414-1.766-6.179-7.062-3.531-11.476c1.766-4.414,7.062-6.179,11.476-3.531l17.655,8.828c4.414,1.766,6.179,7.062,3.531,11.476
		C382.234,340.402,379.586,342.167,376.055,342.167z"/>
	<path style="fill:#F9A671;" d="M358.4,377.477h-61.793c-5.297,0-8.828-3.531-8.828-8.828s3.531-8.828,8.828-8.828H358.4
		c5.297,0,8.828,3.531,8.828,8.828S363.697,377.477,358.4,377.477z"/>
	<path style="fill:#F9A671;" d="M349.572,421.615h-44.138c-5.297,0-8.828-3.531-8.828-8.828s3.531-8.828,8.828-8.828h44.138
		c5.297,0,8.828,3.531,8.828,8.828S354.869,421.615,349.572,421.615z"/>
	<path style="fill:#F9A671;" d="M358.4,465.753h-35.31c-5.297,0-8.828-3.531-8.828-8.828s3.531-8.828,8.828-8.828h35.31
		c5.297,0,8.828,3.531,8.828,8.828S363.697,465.753,358.4,465.753z"/>
	<path style="fill:#F9A671;" d="M451.972,486.939c-2.648,0-5.297-0.883-7.062-3.531c-2.648-3.531-1.766-9.71,1.766-12.359
		c5.297-3.531,5.297-3.531,7.945-14.124c0.883-4.414,6.179-7.945,10.593-6.179c4.414,0.883,7.945,6.179,6.179,10.593
		c-3.531,14.124-5.297,17.655-14.124,23.834C455.503,486.939,453.738,486.939,451.972,486.939z"/>
</g>
<g>
</g>
<g>
</g>
<g>
</g>
<g>
</g>
<g>
</g>
<g>
</g>
<g>
</g>
<g>
</g>
<g>
</g>
<g>
</g>
<g>
</g>
<g>
</g>
<g>
</g>
<g>
</g>
<g>
</g>
</svg>

</svg>