<?xml version="1.0" encoding="iso-8859-1"?>
<!-- Generator: Adobe Illustrator 16.0.0, SVG Export Plug-In . SVG Version: 6.00 Build 0)  -->
<!DOCTYPE svg PUBLIC "-//W3C//DTD SVG 1.1//EN" "http://www.w3.org/Graphics/SVG/1.1/DTD/svg11.dtd">
<svg version="1.1" id="Capa_1" xmlns="http://www.w3.org/2000/svg" xmlns:xlink="http://www.w3.org/1999/xlink" x="0px" y="0px"
	 width="562.724px" height="562.724px" viewBox="0 0 562.724 562.724" style="enable-background:new 0 0 562.724 562.724;"
	 xml:space="preserve">
<g>
	<g>
		<path d="M361.874,183.483c-3.4-2.1-7-4-10.1-5.8c-21.4-11.9-46.801-21.1-71.601-19.3c-149-34.3-246.3,179.6-183.3,309.7
			c0,2.8,1.5,5.5,3.7,7c17.7,32.399,45.6,59.1,86.3,74.1c113.8,42.2,236.2-18.1,284.3-127.3
			C513.973,324.883,454.673,218.683,361.874,183.483z M224.173,475.383c-74.6,19.6-93.3-133.4-64.2-189.4
			c2.1,27.801,18.1,56.9,29.4,80.801C195.773,380.883,247.173,469.283,224.173,475.383z"/>
		<path d="M368.074,139.383c13.2-22-3.7-51.1-20.8-65.8c-9.801-8.6-21.7-14.4-34.301-18.7c-1.8-28.8-15.6-56.6-50.2-54.8
			c-30.6,1.8-52,29.7-52.9,58.4c-36.4,16.8-60.9,51.1-43.8,96.4c1.8,4.9,7.7,6.1,11,3.7c0.6,0,1.2,0,1.8-0.3
			c30-10.4,59.7-17.7,91.5-18.1c29.7-0.2,59.1,14.8,88.2,10.9C365.874,150.383,369.574,144.583,368.074,139.383L368.074,139.383z
			 M266.474,47.283c-9.5-0.3-19,0.6-28.5,2.4c4.3-10.4,11.6-19,24.8-22c14.4-3.1,20.5,8.3,22.3,20.8
			C278.673,47.883,272.574,47.283,266.474,47.283z"/>
	</g>
</g>
<g>
</g>
<g>
</g>
<g>
</g>
<g>
</g>
<g>
</g>
<g>
</g>
<g>
</g>
<g>
</g>
<g>
</g>
<g>
</g>
<g>
</g>
<g>
</g>
<g>
</g>
<g>
</g>
<g>
</g>
</svg>
