<?xml version="1.0" encoding="iso-8859-1"?>
<!-- Generator: Adobe Illustrator 19.0.0, SVG Export Plug-In . SVG Version: 6.00 Build 0)  -->
<svg version="1.1" id="Layer_1" xmlns="http://www.w3.org/2000/svg" xmlns:xlink="http://www.w3.org/1999/xlink" x="0px" y="0px"
	 viewBox="0 0 512 512" style="enable-background:new 0 0 512 512;" xml:space="preserve">
<g>
	<g>
		<path d="M385.137,29.402V0H126.863v29.402h-25.477v130.78v181.505v140.911h25.477V512h258.272v-29.402h25.478v-130.78V170.313
			V29.402H385.137z M142.071,15.208h227.856v14.194H142.071V15.208z M395.406,467.39h-10.269H189.525v15.208h180.404v14.194H142.071
			v-14.194h27.174h0.001V467.39h-0.001h-42.382h-10.269V350.946c16.901,8.811,34.854,13.121,54.518,13.121c0.003,0,0.009,0,0.012,0
			c29.523-0.003,58.881-9.782,87.273-19.238c28.5-9.493,55.42-18.459,82.479-18.459c19.879,0,37.759,5.044,54.53,15.4V467.39z
			 M395.406,324.281c-16.902-8.81-34.86-13.117-54.53-13.117c-29.526,0-58.889,9.781-87.285,19.238
			c-28.496,9.491-55.412,18.456-82.467,18.459c-0.004,0-0.007,0-0.011,0c-19.872,0-37.748-5.044-54.518-15.398V187.719
			c16.902,8.81,34.86,13.117,54.53,13.117c29.525,0,58.885-9.78,87.279-19.238c28.498-9.493,55.416-18.458,82.474-18.458
			c19.879,0,37.759,5.043,54.53,15.399V324.281z M395.406,161.054c-16.902-8.811-34.86-13.121-54.53-13.121
			c-29.525,0-58.885,9.78-87.279,19.238c-28.498,9.493-55.416,18.458-82.474,18.458c-19.879,0-37.759-5.044-54.53-15.4V75.028
			h191.113V59.82H116.594V44.61h10.269h258.272h10.27V161.054z"/>
	</g>
</g>
<g>
</g>
<g>
</g>
<g>
</g>
<g>
</g>
<g>
</g>
<g>
</g>
<g>
</g>
<g>
</g>
<g>
</g>
<g>
</g>
<g>
</g>
<g>
</g>
<g>
</g>
<g>
</g>
<g>
</g>
</svg>
